<svg xmlns="http://www.w3.org/2000/svg" width="32" height="32" viewBox="0 0 24 24"><path fill="currentColor" d="M4 21q-.825 0-1.413-.588T2 19V7q0-.825.588-1.413T4 5h3.15L8.4 3.65q.275-.3.663-.475T9.874 3h4.25q.425 0 .813.175t.662.475L16.85 5H20q.825 0 1.413.588T22 7v12q0 .825-.588 1.413T20 21H4Zm11.45-7.6q-.15 1.325-1.125 2.212T12 16.5q-.2 0-.4-.025t-.4-.075q-.2-.05-.425 0t-.375.2q-.275.275-.2.663t.425.512q.35.125.688.175T12 18q1.975 0 3.4-1.337t1.55-3.313l.225.2q.225.2.525.2t.5-.2q.225-.225.238-.537t-.213-.538L16.95 11.2q-.275-.275-.7-.275t-.7.275l-1.275 1.275q-.225.225-.225.525t.225.525q.225.225.525.225t.525-.225l.125-.125Zm-8.4-.75l-.225-.2q-.225-.2-.525-.2t-.5.2q-.225.225-.237.537t.212.538L7.05 14.8q.275.275.7.275t.7-.275l1.275-1.275Q9.95 13.3 9.95 13t-.225-.525Q9.5 12.25 9.2 12.25t-.525.225l-.125.125q.15-1.325 1.125-2.212T12 9.5q.2 0 .4.025t.4.075q.2.05.425 0t.375-.2q.275-.275.2-.663t-.425-.512q-.35-.125-.688-.175T12 8q-1.975 0-3.4 1.337T7.05 12.65Z"/></svg>