<svg width="48" height="48" viewBox="0 0 48 48" xmlns="http://www.w3.org/2000/svg">
  <g fill="none" fill-rule="nonzero">
    <rect fill="#13131A" width="48" height="48" rx="8"/>
    <path d="M17.702 31c.572 0 1.111-.111 1.617-.333a4.134 4.134 0 001.318-.908c.373-.383.669-.83.889-1.341.22-.511.329-1.056.329-1.634 0-.578-.11-1.12-.33-1.624a4.335 4.335 0 00-.898-1.331 4.287 4.287 0 00-1.318-.908 3.912 3.912 0 00-1.607-.333h-6.549c-.386 0-.712-.135-.978-.404a1.351 1.351 0 01-.4-.988c0-.39.133-.72.4-.989.266-.268.592-.403.978-.403h12.586L19.31 17h-8.156c-.572 0-1.111.111-1.617.333a4.217 4.217 0 00-1.318.898c-.373.376-.669.82-.889 1.331A4.094 4.094 0 007 21.196c0 .578.11 1.123.33 1.634.22.511.515.955.888 1.331.373.377.812.676 1.318.898a3.981 3.981 0 001.617.333h6.549c.386 0 .712.134.978.403.267.27.4.599.4.989s-.133.723-.4.998a1.307 1.307 0 01-.978.414H7L8.378 31h9.324zm9.173 0v-2.949c-.002-.225-.005-.469-.01-.733-.007-.329.026-.635.1-.917.074-.283.208-.518.402-.706.194-.189.492-.283.894-.283h8.38c.388 0 .717.135.985.404.267.269.401.598.401.988s-.134.723-.401.999a1.32 1.32 0 01-.985.413H25.1L25.307 31h11.334c.576 0 1.119-.111 1.628-.333.509-.222.954-.524 1.336-.908a4.181 4.181 0 001.216-2.976c0-1.062-.355-1.99-1.065-2.783.71-.793 1.065-1.715 1.065-2.764 0-.578-.108-1.126-.322-1.644a4.133 4.133 0 00-.894-1.351 4.282 4.282 0 00-1.336-.908A4.029 4.029 0 0036.64 17H24.08v5.608l3.1-1.372v-1.432h9.46c.388 0 .717.138.985.414.267.275.401.608.401.998s-.134.72-.401.989a1.336 1.336 0 01-.985.403h-8.38c-.576 0-1.118.111-1.627.333-.51.222-.952.521-1.327.898-.375.376-.673.82-.894 1.331a4.072 4.072 0 00-.331 1.634V31h2.793z" fill="#FFF"/>
  </g>
</svg>
