<svg xmlns="http://www.w3.org/2000/svg" width="67" height="58" viewBox="0 0 67 58" fill="none">
    <path d="M27.7233 16.7799L19.0901 0L0 49.9748L10.7002 44.8071L19.6373 46.935L26.0818 54.9602L33.0126 58L39.457 54.9602L46.2054 46.935L54.9602 44.8071L66.0252 49.9748L46.7526 0L38.0587 16.7799H27.7233Z" fill="black"/>
    <path d="M56.7864 31.0197L45.28 45.308L38.4029 53.4745L32.9452 49.6695L27.4847 53.4705L20.6105 45.308L9.104 31.0197L19.2971 4.37744L26.6871 18.5884H39.2033L46.5934 4.37744L56.7864 31.0197Z" fill="#FF7200"/>
    <path d="M24.0144 18.5883H16.3994L19.6267 10.1521L24.0144 18.5883Z" fill="#FF6700"/>
    <path d="M49.4887 18.5883H41.8738L46.2608 10.1521L49.4887 18.5883Z" fill="#FF6700"/>
    <path d="M20.61 45.3078L10.8365 42.9132L3.22217 46.3912L9.10349 31.0195L20.61 45.3078Z" fill="#E5E6E8"/>
    <path d="M62.666 46.3912L55.0522 42.9132L45.2788 45.3078L56.7853 31.0195L62.666 46.3912Z" fill="#E5E6E8"/>
    <path d="M38.4028 53.4742L32.9689 55.9999L27.4846 53.4702L32.9452 49.6692L38.4028 53.4742Z" fill="black"/>
    <path d="M27.6707 20.936L32.9451 34.1793L38.2196 20.936H27.6707Z" fill="#FF6700"/>
    <path d="M20.0769 30.7593H23.9428L27.6934 34.9449V38.0095L21.9233 33.9154L20.0769 30.7593Z" fill="black"/>
    <path d="M41.9458 30.7593L38.1953 34.9449V38.0095L43.9654 33.9148L45.8118 30.7593H41.9458Z" fill="black"/>
</svg>

