<svg id="_1" data-name=" 1" xmlns="http://www.w3.org/2000/svg" viewBox="0 0 312.94 312.94"><defs><style>.cls-1{fill:#f6f7f9;}.cls-2{fill:#181530;}.cls-3{fill:none;}</style></defs><ellipse class="cls-1" cx="155.27" cy="155.26" rx="140.28" ry="137.96"/><path class="cls-2" d="M315.26,157.38v0a156.38,156.38,0,0,0-97-143.48,153.7,153.7,0,0,0-32.54-9.44,107.67,107.67,0,0,1,11.66,3.75,188.91,188.91,0,0,1,28.87,14A184.23,184.23,0,0,1,252.38,40.8a86.82,86.82,0,0,1,11.3,11.54,35,35,0,0,1,4.39,6.94s0,.08,0,.11q4,4.5,7.56,9.3l.36.49c.49.65,1,1.31,1.44,2l.51.73c.45.63.9,1.28,1.34,1.92l.52.78c.43.63.86,1.27,1.28,1.92l.54.84c.41.63.81,1.26,1.21,1.89.16.27.32.55.49.82.68,1.11,1.34,2.23,2,3.35.26.46.53.91.78,1.37s.54,1,.8,1.45.56,1,.82,1.52.51,1,.76,1.44l.81,1.58c.22.46.45.91.68,1.37l.84,1.77.6,1.26c.3.66.6,1.34.9,2,.15.34.31.69.46,1,.45,1,.88,2.06,1.3,3.1a145.64,145.64,0,0,1-77.85,188.89,5,5,0,0,0,.06-2.82,3.65,3.65,0,0,0,1.85-5,3.59,3.59,0,0,0,1.75-4.55,135.52,135.52,0,0,0,72.81-107s0-.07,0-.1c.2-2.1.36-4.21.46-6.34l0-.58c0-.82.07-1.65.09-2.48,0-.25,0-.5,0-.76,0-1,0-2,0-3s0-2,0-3c0-.52,0-1,0-1.57s0-1-.05-1.45-.05-.9-.07-1.36l-.09-1.65c0-.45-.07-.89-.11-1.33s-.08-1.1-.13-1.66-.08-.87-.13-1.3-.1-1.12-.16-1.67-.11-.88-.16-1.32-.13-1.08-.2-1.62L292,138.1l-.21-1.46c-.08-.52-.18-1-.26-1.56s-.15-.89-.23-1.34-.18-1-.28-1.5l-.27-1.41c-.1-.48-.2-1-.31-1.45s-.19-.93-.29-1.39l-.36-1.54c-.1-.43-.2-.87-.31-1.3s-.25-1-.37-1.45-.24-.93-.37-1.4-.25-.92-.38-1.38-.26-.93-.4-1.4-.29-1-.43-1.44-.27-.88-.41-1.32-.33-1-.5-1.53-.26-.79-.4-1.19-.36-1-.54-1.56-.28-.78-.41-1.16-.39-1-.58-1.54-.29-.77-.44-1.16l-.61-1.53c-.15-.37-.3-.75-.46-1.12s-.42-1-.63-1.5-.33-.77-.5-1.15-.44-1-.67-1.49-.33-.73-.5-1.1-.47-1-.71-1.5-.34-.72-.52-1.07l-.76-1.52-.51-1-.81-1.53-.52-1c-.28-.52-.57-1-.86-1.55l-.52-.93-.92-1.57-.5-.85c-.32-.54-.65-1.06-1-1.59l-.52-.84c-.33-.52-.66-1-1-1.56l-.52-.81-1-1.55-.56-.82-1-1.48-.59-.84c-.35-.48-.7-1-1.06-1.45l-.61-.82L265.2,75l-.59-.76-1.16-1.45c-.12-.15-.23-.3-.35-.44h0c-.3.25-.6.51-.89.78q-1.12.94-2.22,1.92h0l-1.41,1.23A128.6,128.6,0,0,1,267,226.84l-.3.46c-.34.53-.68,1-1,1.57l-.88,1.31-.37.54A130.86,130.86,0,0,1,253.92,244c-8-12.51-30.92-32.45-44.91-44a31,31,0,0,0-5-3.32,19.38,19.38,0,0,0,5.22-2.75l.91-.76.87-.9,1.28-1.47,2.62-2.93c3.56-3.93,7.08-7.92,10.37-12.23a69.06,69.06,0,0,0,4.58-6.76c.71-1.18,1.36-2.41,2-3.7a19.2,19.2,0,0,0,1.5-4.26,13.14,13.14,0,0,0,.18-1.32,7,7,0,0,0-.08-1.46,8.85,8.85,0,0,0-.78-2.52,13.64,13.64,0,0,0-2.79-3.85,14.44,14.44,0,0,0-3.83-2.71c-.27-.13-.57-.2-.85-.31.64-.58,1.18-1.23,1.77-1.85,7.28-3.38,13.18-8.05,15.94-13.88,8-16.87,0-33.24,0-33.24S241.6,98.3,239.35,96c-.65.77-1.3,1.55-1.93,2.34-.8,1-1.67,2-2.42,3.1a108.15,108.15,0,0,0-6.75,10l-5.1,11.83a1.13,1.13,0,0,1-.61,1l-.09,0a11.11,11.11,0,0,1-4.06.51,33,33,0,0,1-3.76-.39,72.56,72.56,0,0,1-7.22-1.62c-4.73-1.3-9.36-2.86-13.92-4.6a.12.12,0,0,1,.08-.22c4.66,1.39,9.39,2.61,14.14,3.55a70.47,70.47,0,0,0,7.15,1.06,27.93,27.93,0,0,0,3.53.11,10.8,10.8,0,0,0,1.93-.36l6.46-12.62c.53-1,1-2.13,1.62-3.12.69-1.16,1.32-2.35,2-3.47l2.21-3.37a129.08,129.08,0,0,1,9.94-12.64q5.35-6,11.27-11.45l2.38-2.11,1.94-1.67c-1.21,0-2.4-.09-3.59-.22-.74-.08-1.47-.17-2.2-.3a78.73,78.73,0,0,1-15.58-4.6A191.32,191.32,0,0,1,208,52.46a178,178,0,0,1-26-18.9c-1.39-1.24-2.76-2.52-4.09-3.83a80.1,80.1,0,0,1-6.21-6.8c-.17-.22-.35-.43-.53-.65v.61l0,1.56c0,1.47-.05,2.94-.1,4.42-.11,3.89-.33,7.78-.82,11.66a97.26,97.26,0,0,1-3,15.84c-.36,1.3-.8,2.58-1.2,3.86s-.9,2.55-1.44,3.79a42.3,42.3,0,0,1-4.23,7.8c-.84,1.29-1.88,2.59-2.85,3.8s-2.14,2.63-3.29,3.88c-.28.3-.58.58-.87.89-.12-.36-.28-.65-.39-1,4.24-5.76,6.36-9.09,6.36-9.09l.05-.08a35.25,35.25,0,0,0,3.35-6.93c.48-1.21.85-2.47,1.27-3.71s.72-2.51,1-3.79c.12-.47.18-1,.29-1.45-.25,0-.49-.08-.74-.1C123.63,50.74,118,82.56,120.64,89c0,0,.32,1,.94,2.52a25.79,25.79,0,0,0-6.73,10.46,49.2,49.2,0,0,0-.93,5.08c0,.3-.51,13.31-.54,13.61v.06a13.29,13.29,0,0,0-4.16-2.07,11.93,11.93,0,0,0-6.78-.08,10.1,10.1,0,0,0-5.64,4.15,15.09,15.09,0,0,0-2.26,6.47,18.55,18.55,0,0,0,.31,6.75,33.72,33.72,0,0,0,2.3,6,21.4,21.4,0,0,1,1,2.69c.15.44.23.89.35,1.34l.31,1.52a35.47,35.47,0,0,0,1.72,6.27,12.58,12.58,0,0,0,1.74,3.12,9.51,9.51,0,0,0,2,1.89c-.06.09-.11.18-.16.27-1.09,1.85-2.13,3.73-3.08,5.73-.24.5-.47,1-.68,1.53l-.31.79c-.1.29-.18.6-.26.89s-.17.61-.23.91l-.12.88-.11.88,0,.87a35.6,35.6,0,0,0,.52,6.07l.59.41a31.58,31.58,0,0,0,2.76,1.71l.65.41s0,0,0-.06l.14.08c-.2-.85-.44-1.71-.6-2.56a31,31,0,0,1-.64-6v-.73l.08-.7.07-.69c0-.22.1-.43.15-.64s.09-.43.16-.65l.26-.69c.16-.46.36-.93.56-1.4.82-1.86,1.78-3.72,2.79-5.56l.24-.42.21-.37.72-1.3c.35-.61.7-1.23,1.06-1.84a.41.41,0,0,0,.05-.09h0L110,155l1-1.73.26-.44,1.92-3.17c1.1-1.83,2.21-3.61,3.28-5.53.13-.23.27-.48.4-.76a5.16,5.16,0,0,0,.36-.89,11.37,11.37,0,0,0,.39-1.75c.16-1.11.25-2.18.33-3.25,0-.48.07-1,.11-1.44,0,0,0,0,0-.06h0l0-.43c0-.4.07-.8.1-1.2,0-.13,0-.26,0-.38,0-.52.09-1,.15-1.55l0-.24c0-.4.09-.8.14-1.2l.09-.62c0-.29.08-.57.13-.85s.07-.45.1-.68l0-.15.21-1.11v0l0-.09a.13.13,0,0,1,0-.06c0-.16.06-.33.1-.5s.06-.27.1-.41v0s0,0,0-.06,0,0,0,0c.1-.42.2-.83.32-1.24a74.19,74.19,0,0,1,4.89-11.54c1.37-2.74,2.85-5.43,4.33-8.11a106.52,106.52,0,0,0,6.15,8.76,10.2,10.2,0,0,0-.78,1.9,14.22,14.22,0,0,0-.78,1.37,14.85,14.85,0,0,0-.94,7.2,17.09,17.09,0,0,0,1.92,6.53l0,.09a4.64,4.64,0,0,0,.48.56,3.87,3.87,0,0,0,.52.47,2.93,2.93,0,0,0,1.38.6.47.47,0,0,0,.38-.8l-.09-.09a2.18,2.18,0,0,1-.47-.75c-.06-.15-.12-.3-.17-.46a2.1,2.1,0,0,1-.1-.44l0,.09a14.72,14.72,0,0,1,.59-5.34,42.88,42.88,0,0,1,3.06-4.86A120.13,120.13,0,0,0,180,149a53.19,53.19,0,0,0,20.23,3.52,23.81,23.81,0,0,1-4.45,5.24,8,8,0,0,1-1.4.7c2,3.54,2.37,10.23,2.11,14.67-.06,1-.13,2.07-.24,2.77-.53,3.13-2.94,8.58-.46,9.21a3.43,3.43,0,0,0,2-.17c5.61-1.87,5.73-2,6.66-4.09a3,3,0,0,0,.18-.5c.07-.22.14-.47.22-.76l.12-.47.16-.66c.11-.46.23-1,.36-1.55a3.59,3.59,0,0,0,.08-.35c.11-.47.22-1,.34-1.49s.23-1.07.36-1.62c.06-.29.12-.58.19-.88l.27-1.2.13-.21a35,35,0,0,1,3.85-4.73,13,13,0,0,1,4.79-3.15,9.33,9.33,0,0,1,1.36-.34,8.28,8.28,0,0,1,1.41-.05,7.71,7.71,0,0,1,2.79.67l.07,0a.46.46,0,0,0,.5-.77,6.9,6.9,0,0,0-3.12-1.57,9.41,9.41,0,0,0-1.77-.21,9.63,9.63,0,0,0-1.77.22,12.69,12.69,0,0,0-5.94,3.47c-.18.17-.35.36-.52.55h0l0,0,0,0-.05.06-.09.1-.06.07-.09.11,0,.05,0,0-.11.13c0-.16.07-.33.11-.48a7.11,7.11,0,0,1,.55-.68c1.24-1.18,2.5-2.34,3.81-3.43a10.26,10.26,0,0,1,1-1.1l.41-.52-.08,0a17.45,17.45,0,0,1,1.26-1.74l.13,0a7.65,7.65,0,0,0,.53-.73,52.19,52.19,0,0,1,5.37-4.89l.15,0a8.31,8.31,0,0,1,5.39,2.73,9.39,9.39,0,0,1,1.77,2.57,5.48,5.48,0,0,1,.36,1.25,3.15,3.15,0,0,1,0,.51c0,.19-.06.42-.09.64a15.35,15.35,0,0,1-1.17,3.18c-.53,1.1-1.13,2.19-1.78,3.28-1.31,2.16-2.77,4.28-4.28,6.37-3,4.14-6.48,8.12-9.9,12.13l-2.58,3-1.28,1.55-.5.54-.6.53a14.8,14.8,0,0,1-2.93,1.79,14.46,14.46,0,0,1-3.28,1.12,7.19,7.19,0,0,1-2.35,0,4.77,4.77,0,0,1-.65,0l-.31-.07a1,1,0,0,1-.18-.09c0-.23.07-.46.09-.69.05-.63.09-1.25.1-1.89a10.66,10.66,0,0,0-.12-2,.47.47,0,0,0-.39-.37.45.45,0,0,0-.52.39l0,.11a9.11,9.11,0,0,1-.4,1.55s0,0,0,.07c-.13.39-.29.78-.44,1.17-.29.68-.57,1.36-.9,2l-.53,1-.23.44-.66,1.29c-.6,1.11-1.41,2.08-2.06,3.15a4.26,4.26,0,0,0-1.21-3.49c1.71-.78,2-4.15.58-5.92,1.09-1.43,1.75-3.86.18-5.63,1.45-.7,1.38-3.53.14-4.51a2,2,0,0,0,.11-.29l0-.12a1.21,1.21,0,0,0,.05-.18,1.74,1.74,0,0,0,0-.22l0-.09c0-.1,0-.2.05-.3s0-.14,0-.21h0c.11-.09.25-.14.35-.24a5.44,5.44,0,0,0,1.43-3.92,5.21,5.21,0,0,0-1.36-3.27,4.12,4.12,0,0,0-.37-.35,5.3,5.3,0,0,0-3.61-1.33c0-.37,0-.75-.09-1.12v0c0-.36-.1-.73-.16-1.08v-.05c-.07-.36-.15-.71-.24-1.07,0,0,0,0,0-.06-.09-.35-.2-.7-.31-1a16.62,16.62,0,0,0-2.31-4.29,17.19,17.19,0,0,0-7.74-5.71c-.3-.11-.64-.11-.95-.2.68-.12,1.4-.27,2-.36a11,11,0,0,1,1.65-.09,6.7,6.7,0,0,1,1.58.38c2.52.87,5.19,2.08,7.92,3.09h0a.77.77,0,0,0,.82-1.26,35.4,35.4,0,0,0-7-5.64,9.72,9.72,0,0,0-2.47-1.1,13.86,13.86,0,0,0-2.65-.36,33.39,33.39,0,0,0-4.65.19l-4.32.5-2.09.23c-.32,0-.73.08-1,.07s-.51,0-.75,0c-.49-.06-1-.13-1.43-.21a14.14,14.14,0,0,1-1.49-.26,11.37,11.37,0,0,1-1.59-.47c-.28-.09-.55-.21-.83-.31a6.31,6.31,0,0,0-.78-.3l-1.27-.12a1.78,1.78,0,0,0-1.75,2.58,11,11,0,0,0,.74,1.24,8.56,8.56,0,0,0,.85,1,10.21,10.21,0,0,0,2.12,1.73,8.81,8.81,0,0,0,2.08.91,16.47,16.47,0,0,0-3.12,2.26,15.82,15.82,0,0,0-4.89,8.56,15.3,15.3,0,0,0,1.38,9.88,15.83,15.83,0,0,0,1.31,2.17c.47.63.92,1.31,1.5,2a16.11,16.11,0,0,0,3.93,3.23,15.09,15.09,0,0,0,9.81,2,17.34,17.34,0,0,0,6.19-1.44,17.53,17.53,0,0,0,5.27-3.61c.3-.3.58-.62.86-.94l.06-.07c.27-.32.53-.66.77-1h0a8.17,8.17,0,0,1-.23,2.34h0a2.29,2.29,0,0,1-.12.37,5.34,5.34,0,0,1,.07,1.26c.25.53.51,1,.74,1.59-1.48.84-1.33,4,0,5.15-1.89,1-1.63,4.12-.36,5.89a2.2,2.2,0,0,0-.32.21l-.07.05-.26.24-.07.08-.17.21-.11.16a2.12,2.12,0,0,0-.11.21.8.8,0,0,0-.08.16c-.05.09-.08.18-.12.27h0a4.93,4.93,0,0,0,1.06,4.94c-2.52.79-2.64,5.39-.43,6.79a3.09,3.09,0,0,0-1.67,1.85s0,0,0,.05l-.76.76a4.81,4.81,0,0,0,.53.2,7,7,0,0,0-.07,1h0l-.41-.14-.11,0-.52-.22-.13,0-.06,0a35.7,35.7,0,0,1-7.13-5.08c-4-3.49-7.75-7.26-11.42-11.09h0l-1-1a22.84,22.84,0,0,0-6.31-4.67,2.78,2.78,0,0,0,.21-.27,11.11,11.11,0,0,0,1.13-2.8,7,7,0,0,0,.15-3c-.06-.24-.11-.48-.18-.71a2.54,2.54,0,0,0-.4-.64l-.23-.07h0l-.09.13v0a3.73,3.73,0,0,0-.09.72l.06.68a5.93,5.93,0,0,1-.5,2.51,10.38,10.38,0,0,1-1.25,2.29,5.93,5.93,0,0,1-.43.44,9.08,9.08,0,0,1-1.58,1.52,7.56,7.56,0,0,1-1.94,1,15.45,15.45,0,0,1-2.53.54,18.92,18.92,0,0,1-12.66-2.55c-.79-.42-1.56-.87-2.33-1.35l-1.13-.71-1.14-.77a26.07,26.07,0,0,1-4.1-3.38,10.36,10.36,0,0,1-1.41-1.86,6,6,0,0,1-.89-2.36,7.09,7.09,0,0,1,1.34-4.64,9.68,9.68,0,0,1,4-3.18,23.51,23.51,0,0,1,2.54-1l.92-.41a1.61,1.61,0,0,1,.22-.23l0-.09,0,0,0-.05a1.39,1.39,0,0,1-.06-.13l0,0a8.55,8.55,0,0,0-1.24,0,16.44,16.44,0,0,0-2.82.72,10.49,10.49,0,0,0-5,3.39,11.48,11.48,0,0,0-1.5,2.68,6.59,6.59,0,0,0,.07,5.44l-.73,0c-2.87.17-5.73.49-8.65.57a15,15,0,0,1-4.41-.39,21.16,21.16,0,0,1-4.12-1.59,33.5,33.5,0,0,1-7.22-4.92,22.5,22.5,0,0,1-3-3.23A9.17,9.17,0,0,1,91.71,169a7.36,7.36,0,0,1,.79-4.46,11.62,11.62,0,0,1,2-2.61,9.79,9.79,0,0,0-4,1.18,8.22,8.22,0,0,0-3.38,3.78,13.39,13.39,0,0,0-1,5.12c0,.9.06,1.79.15,2.68l.42,2.67a30.31,30.31,0,0,0,2.84,8.47l.5,1c.18.32.41.62.61.93.42.62.8,1.25,1.25,1.84l1.44,1.69A18,18,0,0,0,95,192.87a27.71,27.71,0,0,0,9.54,5.65c.65.24,1.3.44,2,.63a34.63,34.63,0,0,0,4.45,1,28.59,28.59,0,0,0,4.42.33,17.66,17.66,0,0,0,2.19-.09c.71,0,1.47-.13,2.25-.23a64.52,64.52,0,0,1,9.34-.46,29.77,29.77,0,0,1,9.42,1.66,16,16,0,0,1,4.33,2.46c1.25,1,2.4,2,3.55,3a108,108,0,0,0,14.33,11,79.67,79.67,0,0,0,7.88,4.37l.25.12,1.78.84a15.34,15.34,0,0,0,2,.72c.24.08.49.07.72.13l.19.05c.65.16,1.3.31,2,.41h.05l.22,0,.31,0c.23,0,.46.06.69.07s.65,0,1,0h.19l.77,0h.15l.49,0,.35,0,.47,0c.33,0,.67-.07,1-.12a28.94,28.94,0,0,0-2,2.45c-.21.28-.43.56-.67.85-4.39,5.23-14.43,11.3-19.48,14.17l-.76.19a17.24,17.24,0,0,0-3,1.13c-.52.26-.93.51-1.37.75l-1.32.77a38.58,38.58,0,0,0-4,2.75,3.1,3.1,0,0,0-.45-.21,7.24,7.24,0,0,0-2.72-.48l-.07,0h-.23a12.07,12.07,0,0,0-2.62,0,8.21,8.21,0,0,0-1.5.32c.08-.81-.74-1.14-1.25-1.35-2.18-.87-12.23-9.43-21.13-17.3.81.58,1.62,1.16,2.45,1.73,1.78,1.22,3.63,2.38,5.39,3.51a37.51,37.51,0,0,0,5.89,3.24,19.48,19.48,0,0,0,6.95,1.51,24.66,24.66,0,0,0,6.86-.77A62.67,62.67,0,0,0,158.47,233a105.61,105.61,0,0,0,11.82-6.64c-.3-.13-.61-.22-.91-.34l-2.12-1-.6-.33h0c-.25-.15-.5-.3-.76-.43a104.71,104.71,0,0,1-9.21,5,58,58,0,0,1-11.49,4.22A17.31,17.31,0,0,1,134,232.8a38.93,38.93,0,0,1-5.23-2.92c-1.83-1.14-3.58-2.22-5.3-3.39a67.39,67.39,0,0,1-9.63-7.64,14.69,14.69,0,0,1-3.23-4.35c0-.16-.09-.31-.14-.47l-.12-.67a11.92,11.92,0,0,1-.13-1.34c0-.89,0-1.89.1-3a30.54,30.54,0,0,0-.51-6.78c0-.07,0-.14,0-.22q-.69-.13-1.38-.3h-.07c-.45-.11-.89-.22-1.34-.35h0c-.56-.15-1.12-.32-1.68-.5s-1-.44-1.46-.65c-.12.31-.25.61-.36.94l-.89,2.72c-1.19,3.63-2.45,7.25-3.84,10.82-.71,1.78-1.44,3.56-2.22,5.31s-1.62,3.46-2.34,5.21a50.8,50.8,0,0,0-1.93,5.28,19,19,0,0,0-.6,2.63,6,6,0,0,0,0,1.18l0,.22a.08.08,0,0,1,0,0c4.63,1.48,9.24,3,13.71,4.9h0l.08,0a.93.93,0,0,1,.52,1.21.9.9,0,0,1-.25.36q-3.92,3.42-7.68,7l-1.89,1.79a8.55,8.55,0,0,0-1.38,1.94,15,15,0,0,0-1.59,4.65,20,20,0,0,0,1.08,9.77,32.57,32.57,0,0,0,2,4.6c-1.16-.64-2.31-1.3-3.45-2a1.8,1.8,0,0,1-.08-.21c-.22-.58-.43-1.15-.61-1.74a21.69,21.69,0,0,1-.65-10.76,16.74,16.74,0,0,1,1.91-5.1,11.3,11.3,0,0,1,1.67-2.25L97,247c2.14-2,4.22-4.11,6.28-6.21-4.21-1.21-8.35-2.63-12.45-4.14l-.17-.06a1.42,1.42,0,0,1-.25-.13,1.72,1.72,0,0,1-.37-.31,2.34,2.34,0,0,1-.39-.64,4.12,4.12,0,0,1-.15-.55l-.06-.49a7.38,7.38,0,0,1,.14-1.67,18.75,18.75,0,0,1,.84-2.9,50,50,0,0,1,2.32-5.34c1.73-3.46,3.52-6.76,4.9-10.31s2.66-7.11,3.81-10.74l.87-2.73c0-.14.11-.29.16-.43-5.74.81-12.38,2.62-21.92,7.88l-.29.16-.72.4-.5.29-.6.34-1.16.68c-19,11.24-24.62,18.17-24.67,18.23l-.07.08,0,.05c-.08.1-.29.37-.55.76v0l-.16.23-.09.16-.09.13s0,.08-.07.13-.15.24-.22.37c-.21-.31-.4-.62-.6-.94h0l-.57-.88h0c.11-.17.23-.33.33-.47.32-.44.58-.76.68-.87.41-.5,4.05-4.72,14.26-11.71,3-2.08,6.59-4.38,10.9-6.93,10.66-6.31,18-8.64,24.17-9.72a32.88,32.88,0,0,1-4.5-2.76c-5.47,1.43-10.91,3.79-19.44,8.84-19.93,11.81-27.11,20-27.11,20a5.09,5.09,0,0,0-.78,1.19,128.32,128.32,0,0,1-19.81-68.43c0-71.28,58-129.27,129.27-129.27,3.27,0,6.5.17,9.71.43v-.1c0-1.36,0-2.72-.05-4.08l-.1-1.8v-.1l-1.77-.11c-1.56-.08-3.14-.11-4.71-.15l0,0-1.67,0h-1.43c-74.57,0-135.25,60.67-135.25,135.26,0,1,0,2.1,0,3.14,0,.3,0,.6,0,.89q0,1.17.09,2.34c0,.29,0,.58,0,.87.06,1,.12,2.06.2,3.08l0,.37c.07.92.15,1.83.24,2.75l.09.85.27,2.36c0,.26.06.53.1.78q.2,1.52.42,3c0,.21.07.42.1.62.12.8.25,1.59.39,2.38l.18,1c.14.74.28,1.48.43,2.23l.15.74c.2,1,.41,1.94.63,2.91l.18.72c.17.75.35,1.49.54,2.24l.24.93c.2.76.41,1.52.62,2.28l.18.63c.26.93.54,1.86.82,2.78.1.3.19.6.29.9l.63,2c.12.33.23.67.35,1q.38,1.11.78,2.22c.07.19.13.38.2.56.33.89.66,1.76,1,2.63.14.34.27.68.41,1,.23.59.47,1.17.71,1.75l.45,1.08c.31.72.62,1.43.94,2.14l.47,1c.3.67.61,1.33.93,2,.16.34.33.69.5,1,.27.56.55,1.11.82,1.66l.51,1c.4.79.82,1.57,1.24,2.34.17.33.35.64.53,1l.91,1.64.63,1.09c.28.49.57,1,.86,1.45l.63,1c.46.75.92,1.49,1.39,2.23.23.36.47.72.71,1.08l.83,1.27c.27.41.55.81.83,1.22l.82,1.19.82,1.16c.48.67,1,1.34,1.46,2,.3.41.61.81.91,1.21l.8,1,1,1.25.78,1c.6.75,1.22,1.49,1.84,2.23.23.27.46.55.7.82l1.11,1.28.74.83c.38.43.77.85,1.15,1.27l.62.66c.79.86,1.6,1.7,2.42,2.54l.47.48,1.32,1.31.63.62,1.36,1.31.36.33c1,.9,1.93,1.78,2.91,2.65l.41.36,1.47,1.27.62.53c1.59,1.33,3.21,2.64,4.86,3.9l.55.42c.52.4,1,.79,1.58,1.18l.52.38q2.59,1.89,5.28,3.66l.49.33,1.69,1.08.53.33q2.73,1.71,5.54,3.29l.53.3,1.84,1,.29.15c2,1.05,4,2.06,6,3l.48.23,2,.9h0l0,0c1.74.78,3.5,1.51,5.27,2.21.6.24,1.19.47,1.79.69l.23.09L113,285l.18.06c3.28,1.16,6.6,2.2,10,3.1,2,.55,4.07,1,6.13,1.49l.35.08q2.89.63,5.83,1.12l1,.16,1.63.26c.77.12,1.55.23,2.32.33l1.39.17,1.74.2,1.1.12c.9.09,1.81.17,2.72.24l1,.07,2.4.16.62,0,3,.12H155c1,0,2.06,0,3.1,0,1.76,0,3.52,0,5.26-.11h0c1.38-.06,2.76-.13,4.13-.23a132.79,132.79,0,0,0,20.1-2.93l.23,0,.14,0h0a4.18,4.18,0,0,0,4.65,1.22c-1.74,2.46-.34,5.63,2.11,6.76-4.89,1.25-9.84,2.28-14.82,3-1.37.22-2.75.41-4.13.59l-9,.82-2.58.12-.4,0c-.81,0-1.61.05-2.42.06h-.11l-2.46,0h0l-3.18,0H155c-1,0-2-.05-3.07-.1l-.65,0c-.9,0-1.81-.09-2.71-.15l-.58,0-3-.24-.86-.08-2.93-.31-.7-.09-2.33-.31-1.07-.15-2.68-.41-1.12-.2-2-.37-1.28-.24c-.77-.15-1.55-.31-2.32-.48l-1.23-.27c-.85-.19-1.69-.38-2.54-.59-2.73-.66-5.44-1.41-8.13-2.23h0c-2.09-.64-4.18-1.33-6.25-2.06l-.37-.14-2.72-1c-1-.4-2.08-.81-3.12-1.23A146,146,0,0,1,55,53.55,146.56,146.56,0,0,1,158.76,10.11c1.09,0,2.19,0,3.28,0l3.18.11h0a6.67,6.67,0,0,1,.88-3.79,7,7,0,0,1,3.5-2.7A13.57,13.57,0,0,1,173.77,3c.31,0,.63,0,.94,0A158.78,158.78,0,0,0,99.29,13.7,156.47,156.47,0,0,0,47.58,268.55a156.12,156.12,0,0,0,222.47.06,156.54,156.54,0,0,0,45.21-111.23ZM113.18,122.73c0,.19,0,.39,0,.59,0,.39,0,.8-.08,1.23,0,.08,0,.15,0,.23,0,.33,0,.68-.06,1s0,.69,0,1.05,0,.89-.07,1.35,0,1-.06,1.57c0,.07,0,.13,0,.2s0,.31,0,.46c0,.5,0,1,0,1.51l0,.6c0,.13,0,.25,0,.38s0,.38,0,.57,0,.21,0,.31c0,.57,0,1.14,0,1.7a1.62,1.62,0,0,1,0,.22c0,.26,0,.52,0,.78v0h0q-.16-.51-.36-1c-.14-.37-.28-.73-.43-1.1a24.8,24.8,0,0,0-1.32-2.69,9.05,9.05,0,0,0-2-2.51,5.44,5.44,0,0,0-3.1-1.23,6,6,0,0,0-3.11.7.47.47,0,0,0,.35.86h0a5.71,5.71,0,0,1,2.53-.09,4.14,4.14,0,0,1,2,1.15,7.91,7.91,0,0,1,1.37,2.12,27.21,27.21,0,0,1,1.1,2.53c.67,1.73,1.2,3.53,1.76,5.32.36,1.15.71,2.31,1.08,3.47v0c0,.11,0,.21,0,.31a.57.57,0,0,1,0,.13c0,.06,0,.13,0,.19s0,.15,0,.22a.76.76,0,0,0,0,.15c0,.1,0,.21,0,.29-.61,1-1.19,1.9-1.8,2.85l-2.31,3.58-.13.21c-.78,1.21-1.54,2.43-2.3,3.66h0c-.11-.09-.21-.19-.31-.29l0,0a6.15,6.15,0,0,1-.87-1.07l0,0-.17-.27-.14-.25-.12-.22-.18-.36a1.3,1.3,0,0,0-.08-.17c-.08-.19-.16-.38-.23-.58a37.29,37.29,0,0,1-1.55-5.66l-.33-1.51c-.14-.55-.26-1.12-.45-1.65a25.11,25.11,0,0,0-1.2-3.09,34.19,34.19,0,0,1-2.24-5.43,14.87,14.87,0,0,1-.4-5.54,12.15,12.15,0,0,1,1.5-5.21,7.76,7.76,0,0,1,1.69-2,7.25,7.25,0,0,1,2.26-1.3,8.92,8.92,0,0,1,2.64-.53,12,12,0,0,1,2.79.23c.22,0,.43.09.65.15l.22.06.42.12.25.09.38.14.27.11.33.14.29.14.32.16.27.14.31.2a2.26,2.26,0,0,1,.26.16l.43.3.09.07ZM183,172h0v-.25a18.42,18.42,0,0,0-.64-4.13,21.94,21.94,0,0,0-1.38-3.91,13.73,13.73,0,0,0-2.37-3.43,9.67,9.67,0,0,0-3.48-2.32,21.72,21.72,0,0,0-4-1.13.27.27,0,0,0-.32.21.28.28,0,0,0,.2.34h0c2.56.62,5.21,1.49,6.91,3.47a12.82,12.82,0,0,1,2.1,3.28,20.56,20.56,0,0,1,1.18,3.76,14.16,14.16,0,0,1-.13,7.67,14.36,14.36,0,0,1-3.53,6.2,16.79,16.79,0,0,1-2.56,1l-3.84-16.1a.11.11,0,0,0-.14-.09.12.12,0,0,0-.1.14l3.24,16.21a17.21,17.21,0,0,1-3.15.62h-.14c-.21,0-.42,0-.64,0,0,0,0,0,0-.06L164.35,160a.13.13,0,0,0-.16-.1.14.14,0,0,0-.1.16l5.27,23.39a12.51,12.51,0,0,1-6.55-1.52,13.36,13.36,0,0,1-3.26-2.64c-.46-.51-.9-1.1-1.37-1.71a13.57,13.57,0,0,1-1.16-1.78,12.91,12.91,0,0,1-1.39-8.21,13.56,13.56,0,0,1,3.94-7.5,14.06,14.06,0,0,1,5.26-3.28,13,13,0,0,1,2.3-.8c.71-.13,1.49-.17,2.22-.24.37,0,.75-.08,1.12-.09l.71,0,.4,0a15.62,15.62,0,0,1,4.33.85,15.08,15.08,0,0,1,7.14,5.08,14.17,14.17,0,0,1,2.08,3.89c.11.34.2.69.29,1a15.64,15.64,0,0,1,.39,3.2,5.07,5.07,0,0,0-2,1.18A5.38,5.38,0,0,0,183,172Zm1.43,3.6a3,3,0,0,1-.27-1,3.2,3.2,0,0,1,.83-2.41,3.49,3.49,0,0,1,.74-.59,3.06,3.06,0,0,1,3.76.42,2.09,2.09,0,0,1,.2.22l0,0a4,4,0,0,1,.34.5c.06.12.12.25.17.37a3.29,3.29,0,0,1,.19,1.41,2.94,2.94,0,0,1-1,2,3.74,3.74,0,0,1-1.19.69l-.06,0a3.36,3.36,0,0,1-.78.14h-.38l-.08,0a3.2,3.2,0,0,1-1.13-.33l-.13-.06h0a3.52,3.52,0,0,1-.42-.29,2.83,2.83,0,0,1-.25-.24A2.87,2.87,0,0,1,184.38,175.61Z" transform="translate(-2.32 -2.13)"/><path class="cls-1" d="M294.1,101.3c-.42-1-.85-2.07-1.3-3.1-.15-.35-.31-.7-.46-1-.3-.67-.6-1.35-.9-2l-.6-1.26L290,92.12c-.23-.46-.46-.91-.68-1.37l-.81-1.58c-.25-.48-.5-1-.76-1.44s-.54-1-.82-1.52-.52-1-.8-1.45-.52-.91-.78-1.37c-.65-1.12-1.31-2.24-2-3.35-.17-.27-.33-.55-.49-.82-.4-.63-.8-1.26-1.21-1.89l-.54-.84c-.42-.65-.85-1.29-1.28-1.92l-.52-.78c-.44-.64-.89-1.29-1.34-1.92l-.51-.73c-.48-.65-1-1.31-1.44-2l-.36-.49q-3.59-4.8-7.56-9.3s0-.07,0-.11a35,35,0,0,0-4.39-6.94,86.82,86.82,0,0,0-11.3-11.54,184.23,184.23,0,0,0-26.17-18.61,188.91,188.91,0,0,0-28.87-14,107.67,107.67,0,0,0-11.66-3.75c-1.25-.31-2.51-.59-3.78-.82a35.84,35.84,0,0,0-7.19-.68c-.31,0-.63,0-.94,0a13.57,13.57,0,0,0-4.13.81,7,7,0,0,0-3.5,2.7,6.67,6.67,0,0,0-.88,3.79h0L162,10.15c-1.09,0-2.19,0-3.28,0A146,146,0,0,0,56.13,260a145.45,145.45,0,0,0,47.17,31.31c1,.42,2.07.83,3.12,1.23l2.72,1,.37.14c2.07.73,4.16,1.42,6.25,2.06h0c2.69.82,5.4,1.57,8.13,2.23.85.21,1.69.4,2.54.59l1.23.27c.77.17,1.55.33,2.32.48l1.28.24,2,.37,1.12.2,2.68.41,1.07.15,2.33.31.7.09,2.93.31.86.08,3,.24.58,0c.9.06,1.81.11,2.71.15l.65,0c1,.05,2.05.08,3.07.1h.66l3.18,0h0l2.46,0h.11c.81,0,1.61,0,2.42-.06l.4,0,2.58-.12,9-.82c1.38-.18,2.76-.37,4.13-.59,5-.76,9.93-1.79,14.82-3-2.45-1.13-3.85-4.3-2.11-6.76a4.18,4.18,0,0,1-4.65-1.22h0l-.14,0-.23,0a132.79,132.79,0,0,1-20.1,2.93c-1.37.1-2.75.17-4.13.23h0c-1.74.07-3.5.11-5.26.11-1,0-2.07,0-3.1,0h-.74l-3-.12-.62,0-2.4-.16-1-.07c-.91-.07-1.82-.15-2.72-.24l-1.1-.12-1.74-.2-1.39-.17c-.77-.1-1.55-.21-2.32-.33l-1.63-.26-1-.16q-2.94-.5-5.83-1.12l-.35-.08c-2.06-.45-4.11-.94-6.13-1.49-3.39-.9-6.71-1.94-10-3.1L113,285l-2.32-.85-.23-.09c-.6-.22-1.19-.45-1.79-.69-1.77-.7-3.53-1.43-5.27-2.21l0,0h0l-2-.9-.48-.23c-2-.95-4-2-6-3l-.29-.15-1.84-1-.53-.3q-2.8-1.57-5.54-3.29l-.53-.33-1.69-1.08-.49-.33q-2.68-1.77-5.28-3.66l-.52-.38c-.53-.39-1.06-.78-1.58-1.18l-.55-.42c-1.65-1.26-3.27-2.57-4.86-3.9l-.62-.53L69,259.19l-.41-.36c-1-.87-2-1.75-2.91-2.65l-.36-.33L64,254.54l-.63-.62L62,252.61l-.47-.48c-.82-.84-1.63-1.68-2.42-2.54l-.62-.66c-.38-.42-.77-.84-1.15-1.27l-.74-.83-1.11-1.28c-.24-.27-.47-.55-.7-.82-.62-.74-1.24-1.48-1.84-2.23l-.78-1-1-1.25-.8-1c-.3-.4-.61-.8-.91-1.21-.49-.66-1-1.33-1.46-2l-.82-1.16-.82-1.19c-.28-.41-.56-.81-.83-1.22l-.83-1.27c-.24-.36-.48-.72-.71-1.08-.47-.74-.93-1.48-1.39-2.23l-.63-1c-.29-.48-.58-1-.86-1.45l-.63-1.09-.91-1.64c-.18-.32-.36-.63-.53-1-.42-.77-.84-1.55-1.24-2.34l-.51-1c-.27-.55-.55-1.1-.82-1.66-.17-.34-.34-.69-.5-1-.32-.66-.63-1.32-.93-2l-.47-1c-.32-.71-.63-1.42-.94-2.14l-.45-1.08c-.24-.58-.48-1.16-.71-1.75-.14-.33-.27-.67-.41-1-.34-.87-.67-1.74-1-2.63-.07-.18-.13-.37-.2-.56q-.41-1.11-.78-2.22c-.12-.34-.23-.68-.35-1l-.63-2c-.1-.3-.19-.6-.29-.9-.28-.92-.56-1.85-.82-2.78l-.18-.63c-.21-.76-.42-1.52-.62-2.28l-.24-.93c-.19-.75-.37-1.49-.54-2.24l-.18-.72c-.22-1-.43-1.93-.63-2.91l-.15-.74c-.15-.75-.29-1.49-.43-2.23l-.18-1c-.14-.79-.27-1.58-.39-2.38,0-.2-.07-.41-.1-.62q-.22-1.48-.42-3c0-.25-.06-.52-.1-.78l-.27-2.36-.09-.85c-.09-.92-.17-1.83-.24-2.75l0-.37c-.08-1-.14-2.05-.2-3.08,0-.29,0-.58,0-.87q-.06-1.17-.09-2.34c0-.29,0-.59,0-.89,0-1,0-2.09,0-3.14,0-74.59,60.68-135.26,135.25-135.26h1.43l1.67,0c1.57,0,3.13.1,4.68.19l1.77.11v.1l.1,1.8c0,1.36,0,2.72.05,4.08v.1c0,3.86-.06,7.73-.41,11.57a96.65,96.65,0,0,1-2.12,14.08c-.11.48-.17,1-.29,1.45-.31,1.28-.69,2.53-1,3.79s-.79,2.5-1.27,3.71a35.25,35.25,0,0,1-3.35,6.93l-.05.08s-2.12,3.33-6.36,9.09c.11.36.27.65.39,1,.29-.31.59-.59.87-.89,1.15-1.25,2.23-2.57,3.29-3.88s2-2.51,2.85-3.8a42.3,42.3,0,0,0,4.23-7.8c.54-1.24,1-2.52,1.44-3.79s.84-2.56,1.2-3.86a97.26,97.26,0,0,0,3-15.84c.49-3.88.71-7.77.82-11.66,0-1.48.08-2.95.1-4.42l0-1.56v-.61c.18.22.36.43.53.65a80.1,80.1,0,0,0,6.21,6.8c1.33,1.31,2.7,2.59,4.09,3.83a178,178,0,0,0,26,18.9,191.32,191.32,0,0,0,28.85,14.33,78.73,78.73,0,0,0,15.58,4.6c.73.13,1.46.22,2.2.3,1.19.13,2.38.2,3.59.22l-1.94,1.67-2.38,2.11Q248,81.13,242.6,87.14a129.08,129.08,0,0,0-9.94,12.64l-2.21,3.37c-.73,1.12-1.36,2.31-2,3.47-.62,1-1.09,2.07-1.62,3.12l-6.46,12.62a10.8,10.8,0,0,1-1.93.36,27.93,27.93,0,0,1-3.53-.11,70.47,70.47,0,0,1-7.15-1.06c-4.75-.94-9.48-2.16-14.14-3.55a.12.12,0,0,0-.08.22c4.56,1.74,9.19,3.3,13.92,4.6a72.56,72.56,0,0,0,7.22,1.62,33,33,0,0,0,3.76.39,11.11,11.11,0,0,0,4.06-.51l.09,0a1.13,1.13,0,0,0,.61-1l5.1-11.83a108.15,108.15,0,0,1,6.75-10c.75-1.08,1.62-2.07,2.42-3.1.63-.79,1.28-1.57,1.93-2.34.19-.23.37-.47.57-.7l2.56-3,2.65-2.9q5.37-5.76,11.17-11.1l2.23-2,.05,0c.46-.41.93-.83,1.41-1.24q1.1-1,2.22-1.92c.29-.27.59-.53.89-.78h0c.12.14.23.29.35.44l1.16,1.45.59.76,1.12,1.47.61.82c.36.48.71,1,1.06,1.45l.59.84,1,1.48.56.82,1,1.55.52.81c.34.52.67,1,1,1.56l.52.84c.32.53.65,1.05,1,1.59l.5.85.92,1.57.52.93c.29.52.58,1,.86,1.55l.52,1,.81,1.53.51,1,.76,1.52c.18.35.35.71.52,1.07s.48,1,.71,1.5.34.73.5,1.1.45,1,.67,1.49.33.77.5,1.15.43,1,.63,1.5.31.75.46,1.12l.61,1.53c.15.39.29.78.44,1.16s.39,1,.58,1.54.27.77.41,1.16.37,1,.54,1.56.27.8.4,1.19.34,1,.5,1.53.27.88.41,1.32.29,1,.43,1.44.27.94.4,1.4.26.92.38,1.38.25.93.37,1.4.25,1,.37,1.45.21.87.31,1.3l.36,1.54c.1.46.2.93.29,1.39s.21,1,.31,1.45l.27,1.41c.1.5.19,1,.28,1.5s.15.89.23,1.34.18,1,.26,1.56l.21,1.46.21,1.46c.07.54.13,1.08.2,1.62s.11.88.16,1.32.11,1.11.16,1.67.09.87.13,1.3.09,1.11.13,1.66.08.88.11,1.33l.09,1.65c0,.46.05.91.07,1.36s0,1,.05,1.45,0,1.05,0,1.57c0,1,0,2,0,3s0,2,0,3c0,.26,0,.51,0,.76,0,.83-.05,1.66-.09,2.48l0,.58c-.1,2.13-.26,4.24-.46,6.34,0,0,0,.06,0,.1a135.52,135.52,0,0,1-72.81,107,3.59,3.59,0,0,1-1.75,4.55,3.65,3.65,0,0,1-1.85,5,5,5,0,0,1-.06,2.82A145.82,145.82,0,0,0,294.1,101.3ZM267,66.38a.5.5,0,0,0,0,.13,1.24,1.24,0,0,1-.12.32,5.4,5.4,0,0,1-2.75,1.7,11.65,11.65,0,0,1-2.42.46c-.39.05-.72.19-1.12.21h-.26l-.7,0h-.06c-.45,0-.9,0-1.35,0-.79,0-1.59-.09-2.39-.18h0c-.95-.11-1.9-.24-2.86-.39l-1.27-.23a103.48,103.48,0,0,1-13.94-3.87A128.83,128.83,0,0,1,223,58.32c-4.77-2.32-9.44-4.88-14-7.58a177.44,177.44,0,0,1-25.9-18.51l-1.32-1.18-.6-.56-.28-.25-.37-.34-.76-.72-.47-.45-.9-.86s0,0,0,0a72.94,72.94,0,0,1-6.31-7c-.36-.47-.68-1-1-1.46a29.76,29.76,0,0,1-3.1-5.14,11.87,11.87,0,0,1-1.09-3.91h0a5.19,5.19,0,0,1,.61-3,6.22,6.22,0,0,1,.91-.94,5.45,5.45,0,0,1,1.82-1.16,12.15,12.15,0,0,1,3.69-.8,34.35,34.35,0,0,1,7.82.42,84.44,84.44,0,0,1,15.36,4.13,138.55,138.55,0,0,1,14.64,6.39c4.77,2.38,9.42,5,14,7.73a172.45,172.45,0,0,1,25.75,18.81,87.3,87.3,0,0,1,10.35,10.81c.19.23.37.46.55.7A34.7,34.7,0,0,1,266,59.2c.13.27.26.54.37.82C267.33,62.14,267.79,64.55,267,66.38Z" transform="translate(-2.32 -2.13)"/><path class="cls-1" d="M228.77,158.79a5.48,5.48,0,0,0-.36-1.25,9.39,9.39,0,0,0-1.77-2.57,8.31,8.31,0,0,0-5.39-2.73l-.15,0a52.19,52.19,0,0,0-5.37,4.89,7.65,7.65,0,0,1-.53.73l-.13,0a17.45,17.45,0,0,0-1.26,1.74l.08,0-.41.52a10.26,10.26,0,0,0-1,1.1c-1.31,1.09-2.57,2.25-3.81,3.43a7.11,7.11,0,0,0-.55.68c0,.15-.07.32-.11.48l.11-.13,0,0c0-.05.09-.1.13-.16l.06-.07.09-.1.05-.06,0,0,0,0h0c.17-.19.34-.38.52-.55a12.69,12.69,0,0,1,5.94-3.47,9.63,9.63,0,0,1,1.77-.22,9.41,9.41,0,0,1,1.77.21,6.9,6.9,0,0,1,3.12,1.57.46.46,0,0,1-.5.77l-.07,0a7.71,7.71,0,0,0-2.79-.67,8.28,8.28,0,0,0-1.41.05,9.33,9.33,0,0,0-1.36.34,13,13,0,0,0-4.79,3.15,35,35,0,0,0-3.85,4.73l-.13.21-.27,1.2c-.07.3-.13.59-.19.88-.13.55-.25,1.1-.36,1.62s-.23,1-.34,1.49a3.59,3.59,0,0,1-.08.35c-.13.57-.25,1.09-.36,1.55l-.16.66-.12.47c-.08.29-.15.54-.22.76a3,3,0,0,1-.18.5c-.93,2.1-1.05,2.22-6.66,4.09a3.43,3.43,0,0,1-2,.17c-2.48-.63-.07-6.08.46-9.21.11-.7.18-1.74.24-2.77.26-4.44-.09-11.13-2.11-14.67a8,8,0,0,0,1.4-.7,23.81,23.81,0,0,0,4.45-5.24A53.19,53.19,0,0,1,180,149a120.13,120.13,0,0,1-39.89-28.76,42.88,42.88,0,0,0-3.06,4.86,14.72,14.72,0,0,0-.59,5.34l0-.09a2.1,2.1,0,0,0,.1.44c0,.16.11.31.17.46a2.18,2.18,0,0,0,.47.75l.09.09a.47.47,0,0,1-.38.8,2.93,2.93,0,0,1-1.38-.6,3.87,3.87,0,0,1-.52-.47,4.64,4.64,0,0,1-.48-.56l0-.09a17.09,17.09,0,0,1-1.92-6.53,14.85,14.85,0,0,1,.94-7.2,14.22,14.22,0,0,1,.78-1.37,10.2,10.2,0,0,1,.78-1.9,106.52,106.52,0,0,1-6.15-8.76c-1.48,2.68-3,5.37-4.33,8.11a74.19,74.19,0,0,0-4.89,11.54c-.12.41-.22.82-.32,1.24,0,0,0,0,0,0s0,0,0,.06-.06.3-.1.44-.08.37-.11.56l0,.09v0l-.21,1.11,0,.15c0,.23-.07.45-.1.68s-.09.56-.13.85l-.09.62c-.05.4-.1.8-.14,1.2l0,.24c-.06.51-.11,1-.15,1.55,0,.12,0,.25,0,.38,0,.4-.07.8-.1,1.2l0,.44h0s0,0,0,.06c0,.48-.07,1-.11,1.44-.08,1.07-.17,2.14-.33,3.25a11.37,11.37,0,0,1-.39,1.75,5.16,5.16,0,0,1-.36.89c-.13.28-.27.53-.4.76-1.07,1.92-2.18,3.7-3.28,5.53l-1.92,3.17-.26.44L110,155c-.3.52-.61,1-.92,1.56a.41.41,0,0,1-.05.09c-.36.61-.71,1.23-1.06,1.84l-.72,1.3-.21.37-.24.42c-1,1.84-2,3.7-2.79,5.56-.2.47-.4.94-.56,1.4l-.26.69c-.07.22-.1.43-.16.65s-.11.42-.15.64l-.07.69-.08.7v.73a31,31,0,0,0,.64,6c.16.85.4,1.71.6,2.56l-.14-.08s0,0,0,.06l-.65-.41a31.58,31.58,0,0,1-2.76-1.71l-.59-.41c-.82-.59-1.78-1.32-2.53-2a22.12,22.12,0,0,1-2.88-3.09,8.15,8.15,0,0,1-1.75-3.64c-.43-2.68,1.21-5.35,3.21-7.15h0l0,0a.46.46,0,0,0-.29-.81,10.92,10.92,0,0,0-5.55,1.35,9.34,9.34,0,0,0-3.87,4.21A14.36,14.36,0,0,0,85,172c0,.94,0,1.89.12,2.82l.38,2.77c1,6.09,3.64,12.2,8.33,16.5A22.34,22.34,0,0,0,96,195.94a32.88,32.88,0,0,0,4.5,2.76c-6.2,1.08-13.51,3.41-24.17,9.72-4.31,2.55-7.86,4.85-10.9,6.93-10.21,7-13.85,11.21-14.26,11.71-.1.11-.36.43-.68.87-.1.14-.22.3-.33.47h0l.57.88h0c.2.32.39.63.6.94l.29-.5.09-.13.09-.16.16-.23v0l.16-.24.06-.08.25-.34.08-.1,0-.05.07-.08c0-.06,5.69-7,24.67-18.23l1.16-.68.6-.34.5-.29.72-.4.29-.16c9.54-5.26,16.18-7.07,21.92-7.88,0,.14-.12.29-.16.43l-.87,2.73c-1.15,3.63-2.36,7.23-3.81,10.74s-3.17,6.85-4.9,10.31a50,50,0,0,0-2.32,5.34,18.75,18.75,0,0,0-.84,2.9,7.38,7.38,0,0,0-.14,1.67l.06.49a4.12,4.12,0,0,0,.15.55,2.34,2.34,0,0,0,.39.64,1.72,1.72,0,0,0,.37.31,1.42,1.42,0,0,0,.25.13l.17.06h0l.27.06-.24,0c4.1,1.51,8.24,2.93,12.45,4.14-2.06,2.1-4.14,4.19-6.28,6.21l-1.89,1.8A11.3,11.3,0,0,0,93.45,251a16.74,16.74,0,0,0-1.91,5.1,21.69,21.69,0,0,0,.65,10.76c.18.59.39,1.16.61,1.74a1.8,1.8,0,0,0,.08.21c1.14.67,2.29,1.33,3.45,2a32.57,32.57,0,0,1-2-4.6,20,20,0,0,1-1.08-9.77,15,15,0,0,1,1.59-4.65,8.55,8.55,0,0,1,1.38-1.94l1.89-1.79q3.76-3.59,7.68-7a.9.9,0,0,0,.25-.36.93.93,0,0,0-.52-1.21l-.08,0h0c-4.47-1.91-9.08-3.42-13.71-4.9a.08.08,0,0,0,0,0l0-.22a6,6,0,0,1,0-1.18,19,19,0,0,1,.6-2.63,50.8,50.8,0,0,1,1.93-5.28c.72-1.75,1.56-3.44,2.34-5.21s1.51-3.53,2.22-5.31c1.39-3.57,2.65-7.19,3.84-10.82l.89-2.72c.11-.33.24-.63.36-.94.49.21,1,.48,1.46.65s1.12.35,1.68.5h0c.45.13.89.24,1.34.35h.07q.69.17,1.38.3c0,.08,0,.15,0,.22a30.54,30.54,0,0,1,.51,6.78c0,1.13-.14,2.13-.1,3a11.92,11.92,0,0,0,.13,1.34l.12.67c0,.16.1.31.14.47a14.69,14.69,0,0,0,3.23,4.35,67.39,67.39,0,0,0,9.63,7.64c1.72,1.17,3.47,2.25,5.3,3.39A38.93,38.93,0,0,0,134,232.8a17.31,17.31,0,0,0,11.16.61,58,58,0,0,0,11.49-4.22,104.71,104.71,0,0,0,9.21-5c.26.13.51.28.76.43h0l.6.33,2.12,1c.3.12.61.21.91.34A105.61,105.61,0,0,1,158.47,233a62.67,62.67,0,0,1-12.33,4.62,24.66,24.66,0,0,1-6.86.77,19.48,19.48,0,0,1-6.95-1.51,37.51,37.51,0,0,1-5.89-3.24c-1.76-1.13-3.61-2.29-5.39-3.51-.83-.57-1.64-1.15-2.45-1.73,8.9,7.87,19,16.43,21.13,17.3.51.21,1.33.54,1.25,1.35a8.21,8.21,0,0,1,1.5-.32,12.07,12.07,0,0,1,2.62,0h.23l.07,0a7.24,7.24,0,0,1,2.72.48,3.1,3.1,0,0,1,.45.21,38.58,38.58,0,0,1,4-2.75l1.32-.77c.44-.24.85-.49,1.37-.75a17.24,17.24,0,0,1,3-1.13l.76-.19c5.05-2.87,15.09-8.94,19.48-14.17.24-.29.46-.57.67-.85a28.94,28.94,0,0,1,2-2.45c-.33.05-.67.09-1,.12l-.47,0-.35,0-.49,0h-.15l-.77,0h-.19c-.33,0-.65,0-1,0s-.46,0-.69-.07l-.31,0-.22,0h-.05c-.66-.1-1.31-.25-2-.41l-.19-.05c-.23-.06-.48,0-.72-.13a15.34,15.34,0,0,1-2-.72l-1.78-.84-.25-.12a79.67,79.67,0,0,1-7.88-4.37,108,108,0,0,1-14.33-11c-1.15-1-2.3-2-3.55-3a16,16,0,0,0-4.33-2.46,29.77,29.77,0,0,0-9.42-1.66,64.52,64.52,0,0,0-9.34.46c-.78.1-1.54.18-2.25.23a17.66,17.66,0,0,1-2.19.09,28.59,28.59,0,0,1-4.42-.33,34.63,34.63,0,0,1-4.45-1c-.66-.19-1.31-.39-2-.63A27.71,27.71,0,0,1,95,192.87a18,18,0,0,1-1.59-1.56l-1.44-1.69c-.45-.59-.83-1.22-1.25-1.84-.2-.31-.43-.61-.61-.93l-.5-1a30.31,30.31,0,0,1-2.84-8.47l-.42-2.67c-.09-.89-.1-1.78-.15-2.68a13.39,13.39,0,0,1,1-5.12,8.22,8.22,0,0,1,3.38-3.78,9.79,9.79,0,0,1,4-1.18,11.62,11.62,0,0,0-2,2.61,7.36,7.36,0,0,0-.79,4.46,9.17,9.17,0,0,0,1.93,4.06,22.5,22.5,0,0,0,3,3.23,33.5,33.5,0,0,0,7.22,4.92,21.16,21.16,0,0,0,4.12,1.59,15,15,0,0,0,4.41.39c2.92-.08,5.78-.4,8.65-.57l.73,0a6.59,6.59,0,0,1-.07-5.44,11.48,11.48,0,0,1,1.5-2.68,10.49,10.49,0,0,1,5-3.39,16.44,16.44,0,0,1,2.82-.72,8.55,8.55,0,0,1,1.24,0l0,0a1.39,1.39,0,0,0,.06.13l0,.05,0,0,0,.09a1.61,1.61,0,0,0-.22.23l-.92.41a23.51,23.51,0,0,0-2.54,1,9.68,9.68,0,0,0-4,3.18,7.09,7.09,0,0,0-1.34,4.64,6,6,0,0,0,.89,2.36,10.36,10.36,0,0,0,1.41,1.86,26.07,26.07,0,0,0,4.1,3.38l1.14.77,1.13.71c.77.48,1.54.93,2.33,1.35A18.92,18.92,0,0,0,147,193.17a15.45,15.45,0,0,0,2.53-.54,7.56,7.56,0,0,0,1.94-1,9.08,9.08,0,0,0,1.58-1.52,5.93,5.93,0,0,0,.43-.44,10.38,10.38,0,0,0,1.25-2.29,5.93,5.93,0,0,0,.5-2.51l-.06-.68a3.73,3.73,0,0,1,.09-.72v0l.09-.13h0l.23.07a2.54,2.54,0,0,1,.4.64c.07.23.12.47.18.71a7,7,0,0,1-.15,3,11.11,11.11,0,0,1-1.13,2.8,2.78,2.78,0,0,1-.21.27,22.84,22.84,0,0,1,6.31,4.67l1,1c3.67,3.83,7.41,7.6,11.42,11.09a35.7,35.7,0,0,0,7.13,5.08l.06,0,.13,0,.52.22.11,0,.41.14h0a7,7,0,0,1,.07-1,4.81,4.81,0,0,1-.53-.2l.76-.76s0,0,0-.05a3.09,3.09,0,0,1,1.67-1.85c-2.21-1.4-2.09-6,.43-6.79a4.93,4.93,0,0,1-1.06-4.94h0c0-.09.07-.18.12-.27a.8.8,0,0,1,.08-.16,2.12,2.12,0,0,1,.11-.21l.11-.16.17-.21.07-.08.26-.24.07-.05a2.2,2.2,0,0,1,.32-.21c-1.27-1.77-1.53-4.87.36-5.89-1.3-1.19-1.45-4.31,0-5.15-.23-.55-.49-1.06-.74-1.59A5.34,5.34,0,0,0,184,182a2.29,2.29,0,0,0,.12-.37h0a8.17,8.17,0,0,0,.23-2.34h0c-.24.34-.5.68-.77,1l-.06.07c-.28.32-.56.64-.86.94a17.53,17.53,0,0,1-5.27,3.61,17.34,17.34,0,0,1-6.19,1.44,15.09,15.09,0,0,1-9.81-2,16.11,16.11,0,0,1-3.93-3.23c-.58-.65-1-1.33-1.5-2a15.83,15.83,0,0,1-1.31-2.17,15.3,15.3,0,0,1-1.38-9.88,15.82,15.82,0,0,1,4.89-8.56,16.47,16.47,0,0,1,3.12-2.26,8.81,8.81,0,0,1-2.08-.91,10.21,10.21,0,0,1-2.12-1.73,8.56,8.56,0,0,1-.85-1,11,11,0,0,1-.74-1.24,1.78,1.78,0,0,1,1.75-2.58l1.27.12a6.31,6.31,0,0,1,.78.3c.28.1.55.22.83.31a11.37,11.37,0,0,0,1.59.47,14.14,14.14,0,0,0,1.49.26c.47.08.94.15,1.43.21.24,0,.5,0,.75,0s.66,0,1-.07l2.09-.23,4.32-.5a33.39,33.39,0,0,1,4.65-.19,13.86,13.86,0,0,1,2.65.36,9.72,9.72,0,0,1,2.47,1.1,35.4,35.4,0,0,1,7,5.64.77.77,0,0,1-.82,1.26h0c-2.73-1-5.4-2.22-7.92-3.09a6.7,6.7,0,0,0-1.58-.38,11,11,0,0,0-1.65.09c-.63.09-1.35.24-2,.36.31.09.65.09.95.2a17.19,17.19,0,0,1,7.74,5.71,16.62,16.62,0,0,1,2.31,4.29c.11.35.22.7.31,1,0,0,0,0,0,.06.09.36.17.71.24,1.07v.05c.06.35.12.72.16,1.08v0c.05.37.07.75.09,1.12a5.3,5.3,0,0,1,3.61,1.33,4.12,4.12,0,0,1,.37.35,5.21,5.21,0,0,1,1.36,3.27,5.44,5.44,0,0,1-1.43,3.92c-.1.1-.24.15-.35.24h0c0,.07,0,.14,0,.21h0c0,.1,0,.2-.05.3l0,.09a1.74,1.74,0,0,1,0,.22,1.21,1.21,0,0,1-.05.18l0,.12a2,2,0,0,1-.11.29c1.24,1,1.31,3.81-.14,4.51,1.57,1.77.91,4.2-.18,5.63,1.4,1.77,1.13,5.14-.58,5.92a4.26,4.26,0,0,1,1.21,3.49c.65-1.07,1.46-2,2.06-3.15l.66-1.29.23-.44.53-1c.33-.66.61-1.34.9-2,.15-.39.31-.78.44-1.17,0,0,0-.05,0-.07a9.11,9.11,0,0,0,.4-1.55l0-.11a.45.45,0,0,1,.52-.39.47.47,0,0,1,.39.37,10.66,10.66,0,0,1,.12,2c0,.64-.05,1.26-.1,1.89,0,.23-.06.46-.09.69a1,1,0,0,0,.18.09l.31.07a4.77,4.77,0,0,0,.65,0,7.19,7.19,0,0,0,2.35,0,14.46,14.46,0,0,0,3.28-1.12,14.8,14.8,0,0,0,2.93-1.79l.6-.53.5-.54,1.28-1.55,2.58-3c3.42-4,6.85-8,9.9-12.13,1.51-2.09,3-4.21,4.28-6.37.65-1.09,1.25-2.18,1.78-3.28a15.35,15.35,0,0,0,1.17-3.18c0-.22.07-.45.09-.64A3.15,3.15,0,0,0,228.77,158.79Zm-102.92,46a24,24,0,0,1,6.46.65,13.51,13.51,0,0,1,3.16,1.23,7.52,7.52,0,0,1,1.48,1l.35.3.28.25c.19.16.36.34.55.5.74.65,1.46,1.28,2.23,1.87a16.4,16.4,0,0,0,2.49,1.49,21.69,21.69,0,0,0,5.76,1.73h0a.47.47,0,0,1,0,.93,13.72,13.72,0,0,1-6.61-.58,12.79,12.79,0,0,1-5.62-3.77c-.18-.21-.35-.44-.51-.67l-.44-.61a5.27,5.27,0,0,0-.93-1,8.22,8.22,0,0,0-2.58-1.39,17.59,17.59,0,0,0-6-1h0a.46.46,0,0,1-.47-.46A.47.47,0,0,1,125.85,204.74Z" transform="translate(-2.32 -2.13)"/><path class="cls-1" d="M108.45,152l.13-.21,2.31-3.58c.61-.95,1.19-1.9,1.8-2.85,0-.08,0-.19,0-.29a.76.76,0,0,1,0-.15c0-.07,0-.14,0-.22s0-.12,0-.19a.57.57,0,0,0,0-.13c0-.1,0-.2,0-.31v0c-.37-1.16-.72-2.32-1.08-3.47-.56-1.79-1.09-3.59-1.76-5.32a27.21,27.21,0,0,0-1.1-2.53,7.91,7.91,0,0,0-1.37-2.12,4.14,4.14,0,0,0-2-1.15,5.71,5.71,0,0,0-2.53.09h0a.47.47,0,0,1-.57-.33.46.46,0,0,1,.22-.53,6,6,0,0,1,3.11-.7,5.44,5.44,0,0,1,3.1,1.23,9.05,9.05,0,0,1,2,2.51,24.8,24.8,0,0,1,1.32,2.69c.15.37.29.73.43,1.1s.25.68.36,1h0v0c0-.26,0-.52,0-.78a1.62,1.62,0,0,0,0-.22c0-.56,0-1.13,0-1.7,0-.1,0-.21,0-.31s0-.38,0-.57,0-.25,0-.38,0-.4,0-.6c0-.51,0-1,0-1.51l0-.46c0-.07,0-.13,0-.2,0-.53,0-1.06.06-1.57s0-.91.07-1.35,0-.71,0-1.05,0-.71.06-1a1.77,1.77,0,0,1,0-.23c0-.43,0-.84.08-1.23,0-.2,0-.4,0-.59h0l-.09-.07-.43-.3a2.26,2.26,0,0,0-.26-.16l-.31-.2-.27-.14-.32-.16-.29-.14-.33-.14-.27-.11-.38-.14-.25-.09-.42-.12-.22-.06c-.22-.06-.43-.11-.65-.15a12,12,0,0,0-2.79-.23,8.92,8.92,0,0,0-2.64.53,7.25,7.25,0,0,0-2.26,1.3,7.76,7.76,0,0,0-1.69,2,12.15,12.15,0,0,0-1.5,5.21,14.87,14.87,0,0,0,.4,5.54,34.19,34.19,0,0,0,2.24,5.43,25.11,25.11,0,0,1,1.2,3.09c.19.53.31,1.1.45,1.65l.33,1.51a37.29,37.29,0,0,0,1.55,5.66c.07.2.15.39.23.58a1.3,1.3,0,0,1,.08.17l.18.36.12.22.14.25.17.27,0,0a6.15,6.15,0,0,0,.87,1.07l0,0a3.11,3.11,0,0,0,.33.29C106.9,154.42,107.67,153.2,108.45,152Z" transform="translate(-2.32 -2.13)"/><path class="cls-1" d="M150.06,253.87c0-.06,0-.12,0-.18a1.23,1.23,0,0,0,0-.2c0-.17,0-.33-.07-.5v0l-.09-.46v0h0s0-.05,0-.08a6.5,6.5,0,0,0-.71-1.76.16.16,0,0,1,0-.07l-.09-.15a2.88,2.88,0,0,0-.3-.39l-.08-.09a2.72,2.72,0,0,0-.24-.24l-.18-.16-.06-.05h0a4.17,4.17,0,0,0-.77-.49,5.53,5.53,0,0,0-2.3-.48h-.22a6.26,6.26,0,0,0-4.07.69s0,0-.07.05l-.32.27a2.08,2.08,0,0,0-.27.32,2.4,2.4,0,0,0-.22.37s0,.08-.05.13a.49.49,0,0,0,0,.11h0v0l-.09.26c-.1.28-.18.57-.26.87v0c-.07.3-.14.6-.19.91,0,.13-.05.26-.06.39a4.52,4.52,0,0,0-.06.53h0v0l0,.58c0,.22,0,.43,0,.65v.12c0,.27,0,.52,0,.78h0c0,.28.07.54.11.81,0,.08,0,.17.05.26a3.59,3.59,0,0,0,.08.35,2.34,2.34,0,0,0,.09.38l.15.46h0c0,.06.05.12.08.19a3.43,3.43,0,0,0,.19.44.37.37,0,0,0,0,.11h0l0,.07c.06.12.13.23.19.34s.11.2.17.29a2.91,2.91,0,0,0,.55.6.12.12,0,0,0,0,.05,2,2,0,0,0,.72.39,2.83,2.83,0,0,0,.5.13l.1,0,.49.07h0l.43,0h.1l.48,0,.69,0h.72c.32,0,.63,0,.93,0s.33,0,.49-.06l.48-.1.13,0c.13,0,.26-.08.38-.12l.2-.08,0,0,.25-.11a3,3,0,0,0,.47-.27h0a2.66,2.66,0,0,0,.85-.92,3.94,3.94,0,0,0,.36-.9,1.19,1.19,0,0,0,.05-.22l0-.13,0-.22v0c0-.15,0-.31,0-.47,0-.36.06-.72.1-1.08l0-.16h0v0c0-.16,0-.32,0-.48s0-.38,0-.56S150.07,254.11,150.06,253.87Zm-1,1.15a14.53,14.53,0,0,1-.36,2.16,2.77,2.77,0,0,1-.55,1.17,1.6,1.6,0,0,1-.26.26,3.41,3.41,0,0,1-1.71.59,13.27,13.27,0,0,1-2,0,8.17,8.17,0,0,1-1.89-.15l-.08,0a1.83,1.83,0,0,1-1-1.05,6.23,6.23,0,0,1-.49-1.12,9.55,9.55,0,0,1-.46-2.89,11.32,11.32,0,0,1,.15-2.17c0-.21.08-.45.14-.67a3.1,3.1,0,0,1,.1-.36c0-.06,0-.12.06-.19a2,2,0,0,1,.38-.57l.29-.23a6,6,0,0,1,3.68-.89,5,5,0,0,1,2.63,1,3.4,3.4,0,0,1,.81.92l.06.09a1,1,0,0,0,.07.15A7.15,7.15,0,0,1,149.07,255Z" transform="translate(-2.32 -2.13)"/><path class="cls-2" d="M148.59,251.05a1,1,0,0,1-.07-.15l-.06-.09a3.4,3.4,0,0,0-.81-.92,5,5,0,0,0-2.63-1,6,6,0,0,0-3.68.89l-.29.23a2,2,0,0,0-.38.57c0,.07,0,.13-.06.19a3.1,3.1,0,0,0-.1.36c-.06.22-.1.46-.14.67a11.32,11.32,0,0,0-.15,2.17,9.55,9.55,0,0,0,.46,2.89,6.23,6.23,0,0,0,.49,1.12,1.83,1.83,0,0,0,1,1.05l.08,0a8.17,8.17,0,0,0,1.89.15,13.27,13.27,0,0,0,2,0,3.41,3.41,0,0,0,1.71-.59,1.6,1.6,0,0,0,.26-.26,2.77,2.77,0,0,0,.55-1.17,14.53,14.53,0,0,0,.36-2.16A7.15,7.15,0,0,0,148.59,251.05Z" transform="translate(-2.32 -2.13)"/><path class="cls-1" d="M139.43,261.83l-.06-.05a4.37,4.37,0,0,1-.44-.42c-.13.18-.27.35-.41.52l0,.05c-.16.18-.32.36-.49.53h0v0c-.2.21-.41.41-.62.61l-.12.11-.56.49a19,19,0,0,1-1.93,1.35c-.71.42-1.41.84-2.12,1.24a10.52,10.52,0,0,1-4.23,1.55,3.63,3.63,0,0,1-1.92-.46,11.72,11.72,0,0,1-1.9-1.28c-.14-.12-.28-.24-.41-.37-2.09-2-3.23-5-4.08-7.92-.46-1.59-.84-3.21-1.17-4.85a24.94,24.94,0,0,1-.55-4c0-.29,0-.59,0-.88a14.71,14.71,0,0,1,.1-1.49h0a5.72,5.72,0,0,1,1.16-3,3.62,3.62,0,0,1,.85-.76,5.1,5.1,0,0,1,.52-.31c.1-.07.14-.05.21-.08l.27-.05a11.66,11.66,0,0,1,2.44,0,19.83,19.83,0,0,1,9.22,2.67.71.71,0,0,0,.14.1,39,39,0,0,1,3.45,2.51l.54.44c.37.31.73.62,1.08.94l.25-.36a5.26,5.26,0,0,1,.61-.64l.06-.05c-.39-.31-.78-.62-1.18-.92a39.85,39.85,0,0,0-4.11-2.7h0l-.17-.1a16.25,16.25,0,0,0-4.8-1.85,29.88,29.88,0,0,0-5-.75,15.91,15.91,0,0,0-2.58,0l-.35.05a1.77,1.77,0,0,0-.38.15,5.57,5.57,0,0,0-.58.32,4.59,4.59,0,0,0-1,.88,6.83,6.83,0,0,0-1.49,3.82h0a11.35,11.35,0,0,0-.09,1.15c0,.42,0,.83,0,1.24,0,.13,0,.26,0,.38.06,1.18.21,2.35.37,3.5.26,1.67.56,3.34.94,5,.19.78.39,1.57.63,2.35a22.76,22.76,0,0,0,.93,2.58,12.76,12.76,0,0,0,3,4.43,11.56,11.56,0,0,0,2.22,1.61,5.65,5.65,0,0,0,2.89.77,12.35,12.35,0,0,0,5.23-1.66c.77-.4,1.51-.81,2.25-1.26a20.44,20.44,0,0,0,2.18-1.54,13,13,0,0,0,2.62-2.87A4.76,4.76,0,0,1,139.43,261.83Z" transform="translate(-2.32 -2.13)"/><path class="cls-1" d="M187.5,219.6c-.33-1-1.19-1.81-2.84-.87C180.37,221.18,189.13,224.53,187.5,219.6Z" transform="translate(-2.32 -2.13)"/><path class="cls-1" d="M187.07,226.4a2.19,2.19,0,0,0-3.45,2.14C184.26,231.29,189.33,229.85,187.07,226.4Z" transform="translate(-2.32 -2.13)"/><path class="cls-1" d="M186.78,234.06a2.45,2.45,0,0,0-2.18.36,1.85,1.85,0,0,0-.72,2.37C185.3,240.84,190,235.31,186.78,234.06Z" transform="translate(-2.32 -2.13)"/><path class="cls-1" d="M185,242.42c-2.35,1.4-.08,4.06,1.53,3.78C189.09,245.74,188.49,240.36,185,242.42Z" transform="translate(-2.32 -2.13)"/><path class="cls-1" d="M185.6,259.13a2.13,2.13,0,0,0-.33,3.41C189.28,266,190.27,256.21,185.6,259.13Z" transform="translate(-2.32 -2.13)"/><path class="cls-1" d="M187.9,271.52c2.38-.61,1.79-5.69-1.57-4C183.85,268.77,185.66,272.08,187.9,271.52Z" transform="translate(-2.32 -2.13)"/><path class="cls-1" d="M219.94,267.5c.3-.11.3-.42.57-.55C220.26,264.1,217.44,267.42,219.94,267.5Z" transform="translate(-2.32 -2.13)"/><path class="cls-1" d="M218,270.73a3.65,3.65,0,0,1,1,.51,1.27,1.27,0,0,0,.51-2.33C218.21,269,217.57,269.45,218,270.73Z" transform="translate(-2.32 -2.13)"/><path class="cls-1" d="M190.62,277.11c-.45-1.37-1.72-1.73-3.08-1.05C182.28,278.64,192.56,282.89,190.62,277.11Z" transform="translate(-2.32 -2.13)"/><path class="cls-1" d="M219.18,275a1.93,1.93,0,0,0-.77-1.88C215.13,273.13,217.45,277.19,219.18,275Z" transform="translate(-2.32 -2.13)"/><path class="cls-1" d="M216.09,278c-2.74,1.26,1.84,4,1.75,1.05C217.79,277.73,216.78,277.68,216.09,278Z" transform="translate(-2.32 -2.13)"/><path class="cls-1" d="M203.35,295.59c-3,1.1-.86,4.63,1.17,4.28C207.15,299.42,206.6,294.38,203.35,295.59Z" transform="translate(-2.32 -2.13)"/><path class="cls-1" d="M209.38,291.44c-4.13,2.39,3.92,6,3.12,1.27C212.28,291.38,211.24,290.37,209.38,291.44Z" transform="translate(-2.32 -2.13)"/><path class="cls-1" d="M219.79,263.94c-.26.33-.59,1.28.21,1.31C220.55,264.61,219.92,264.27,219.79,263.94Z" transform="translate(-2.32 -2.13)"/><path class="cls-1" d="M187.94,253.87c1.33-1.42.21-4.72-2.42-3.24a2.17,2.17,0,0,0-.67.55h0a1.92,1.92,0,0,0-.38.77s0,0,0,.05a.83.83,0,0,0,0,.22s0,.06,0,.09v.21a.28.28,0,0,1,0,.09l0,.2,0,.1c0,.07,0,.13,0,.19a.93.93,0,0,0,.05.1,1.34,1.34,0,0,0,.07.18l.16.24a.39.39,0,0,0,.08.1.81.81,0,0,0,.12.14l.1.1a.69.69,0,0,0,.13.11l.11.08.16.09.12.06.18.08.12,0,.22.05h.1a2,2,0,0,0,.35,0c.13,0,.25,0,.37-.06l.09,0a1.82,1.82,0,0,0,.58-.27l.07-.05a1.37,1.37,0,0,0,.22-.2Z" transform="translate(-2.32 -2.13)"/><path class="cls-1" d="M193.35,285.39c-.34-1.06-1.23-2-3.09-1.06C185.17,286.91,195.22,291.14,193.35,285.39Z" transform="translate(-2.32 -2.13)"/><path class="cls-1" d="M183.76,232.1c-1.51-.44-2.49-2.37-2.55-4.21l-.22.3a23.06,23.06,0,0,1-2.35,2.67c-3.67,3.64-9.2,7.38-13.74,10.17a16.24,16.24,0,0,1,2.78,0,4.08,4.08,0,0,1,1.15.27,2.28,2.28,0,0,1,.35.17l.18.11.37.21a6.11,6.11,0,0,1,1.48,1.28,7.91,7.91,0,0,1,1.6,3.43,15.4,15.4,0,0,1,.28,3.4c0,.32,0,.64,0,1,.31.29.61.6.91.92a24.2,24.2,0,0,1,1.8,2.19c1.26,1.72,2.14,2.23,2.54,2.14.58-.15,1.17-1.64,1.33-2.65,0-.15,1.16-3.89,2.27-8.39a4.83,4.83,0,0,1,1-4.17c.09-.41.18-.82.26-1.23C180.8,238,180.77,233,183.76,232.1Z" transform="translate(-2.32 -2.13)"/><path class="cls-1" d="M185.92,200.82c2,.45,3-1,2.54-2.22C187.61,196.14,183.42,198.37,185.92,200.82Z" transform="translate(-2.32 -2.13)"/><path class="cls-1" d="M186.64,191.74c-3.26,1.82,2.83,4.65,2.18,1C188.57,191.3,187.56,191.22,186.64,191.74Z" transform="translate(-2.32 -2.13)"/><path class="cls-1" d="M186.56,183.24c5.13,1.27-.44-5.5,0,0Z" transform="translate(-2.32 -2.13)"/><path class="cls-1" d="M190.19,173.12a2.53,2.53,0,0,0-.21-.44v0l0,0h0l-.05-.09,0,0h0l-.09-.13a1.62,1.62,0,0,0-.18-.19,3.11,3.11,0,0,0-2.33-1.14h0a3.16,3.16,0,0,0-1.62.42,3.42,3.42,0,0,0-.79.63,3.13,3.13,0,0,0-.83,2.41,3.2,3.2,0,0,0,.29,1.11.83.83,0,0,1,.07.13l0,.06a.16.16,0,0,1,0,.07l.06.1h0a3,3,0,0,0,.6.68,3.52,3.52,0,0,0,.42.29h0a.75.75,0,0,1,.13.06,3.44,3.44,0,0,0,1.13.34h.46a3.36,3.36,0,0,0,.78-.14l.06,0a3.74,3.74,0,0,0,1.19-.69,2.94,2.94,0,0,0,1-2A3.29,3.29,0,0,0,190.19,173.12Z" transform="translate(-2.32 -2.13)"/><path class="cls-1" d="M187.66,212.65a1.56,1.56,0,0,0-.33-.83,2.7,2.7,0,0,0-.37-.4l-.13-.12h0l-.16-.16,0,0-.12-.08c-1.25,0-1.89.46-2.18,1.06a0,0,0,0,1,0,0l-.09.22a.31.31,0,0,1,0,.08,1.42,1.42,0,0,0-.05.22h0s0,.05,0,.07-.05.14-.07.21a.58.58,0,0,0-.05.14v0a.47.47,0,0,0,0,.17h0a.47.47,0,0,0,0,.2,1.27,1.27,0,0,0,.06.18,1.52,1.52,0,0,0,1.09,1.06,1.29,1.29,0,0,0,.39,0,1.83,1.83,0,0,0,.4-.05,3,3,0,0,0,.39-.13,2.68,2.68,0,0,0,.79-.55l.22-.27h0v0h0a1.18,1.18,0,0,0,.16-.29h0a2.29,2.29,0,0,0,.12-.37A1.34,1.34,0,0,0,187.66,212.65Z" transform="translate(-2.32 -2.13)"/><path class="cls-1" d="M186.27,188.22c5.66,1.84-.08-6.09,0,0Z" transform="translate(-2.32 -2.13)"/><path class="cls-1" d="M213,290.17c.67-.06.56-.43,1.19-.87C213.5,284.5,209.68,290.48,213,290.17Z" transform="translate(-2.32 -2.13)"/><path class="cls-1" d="M194.23,293.31c0,.61.44.64.73,1.67,1,.21,1.58.75,2.73.21C202.34,293,193.87,288.17,194.23,293.31Z" transform="translate(-2.32 -2.13)"/><path class="cls-1" d="M195.25,288.66c3.57-.7,6,1.35,5.81,5.3,1.35-.72,3.53-1.68,4.62-.55.53-1.93,1-3.88,3.26-4.58.72-1.22.74-2.93,2.58-3.35-.47-1.74-.31-3,.45-3.9a136.38,136.38,0,0,1-16.2,5.86A4.2,4.2,0,0,1,195.25,288.66Z" transform="translate(-2.32 -2.13)"/><path class="cls-1" d="M214.86,282.68c-3,.07-.1,4.7,1.38,1.57C216,283,215.67,282.67,214.86,282.68Z" transform="translate(-2.32 -2.13)"/><path class="cls-1" d="M145.34,279.28a21,21,0,0,0-.44-2.12c-.2-.67-.41-1.43-.6-2.19a41.83,41.83,0,0,1-.68-4.52c-.26-2.49-.4-5-.5-7.46l-.69,0a11.61,11.61,0,0,1-2.24,3.33,12.13,12.13,0,0,1-1.91,1.63,16.07,16.07,0,0,1-2,1.36,23.53,23.53,0,0,1-2.11,1.13l-2.27,1a10.66,10.66,0,0,1-2.67.63,7.5,7.5,0,0,1-3-.29,8.35,8.35,0,0,1-1.38-.57c-.43-.22-.76-.47-1.14-.71a9,9,0,0,1-1.06-.78,10.22,10.22,0,0,1-1-.88,12.52,12.52,0,0,1-1.13-1.3q1,6.25,1.75,12.53c.11.91.21,1.82.32,2.73a122.62,122.62,0,0,0,22.66,4.47A25.25,25.25,0,0,0,145.34,279.28Z" transform="translate(-2.32 -2.13)"/><path class="cls-1" d="M172.73,253.78c0,.21-.08.41-.11.62-.11.63-.24,1.25-.37,1.85a46.9,46.9,0,0,1-1.5,6.11,19,19,0,0,1-3.08,5.92,13.31,13.31,0,0,1-1.21,1.29c-.43.41-.9.72-1.35,1.08s-1,.62-1.47.93a7.75,7.75,0,0,1-1.78.73,7.24,7.24,0,0,1-2,.25,8.28,8.28,0,0,1-1.88-.26,13.23,13.23,0,0,1-1.68-.56l-1.48-.74a23.22,23.22,0,0,1-2.78-1.6l-.67-.43-.65-.51-1.31-1A13.72,13.72,0,0,1,146,263l-.85,0c0,2.43,0,4.87.15,7.29a41.71,41.71,0,0,0,.45,4.37c.14.69.29,1.38.49,2.16a22.06,22.06,0,0,1,.36,2.28,26.23,26.23,0,0,1-.48,8.2c7.91.8,15.9.91,22-.23,1.07-9.24,2.56-18.43,4.3-27.58.13-.67.27-1.35.41-2l.57-2.9C173.17,254.3,173,254,172.73,253.78Z" transform="translate(-2.32 -2.13)"/><path class="cls-1" d="M131.28,256.81a.35.35,0,0,0-.18.42.35.35,0,0,0,.44.23h0a16.56,16.56,0,0,1,4.28-.6h1.23c-.06-.41-.1-.82-.12-1.24l-1.18.09A12.83,12.83,0,0,0,131.28,256.81Z" transform="translate(-2.32 -2.13)"/><path class="cls-1" d="M137.15,252.6c.06-.35.14-.71.23-1.07a18.69,18.69,0,0,0-2.32-.88,19.64,19.64,0,0,0-3.13-.69.36.36,0,0,0-.38.26.35.35,0,0,0,.24.43h0a26.27,26.27,0,0,1,5.32,2.09S137.14,252.65,137.15,252.6Z" transform="translate(-2.32 -2.13)"/><path class="cls-1" d="M152.86,255.91l-.69-.08c0,.45-.08.89-.1,1.34,0,.09,0,.17,0,.26h.67A20.39,20.39,0,0,1,157,258h0a.35.35,0,0,0,.28-.64,10.1,10.1,0,0,0-2.16-.94A16.42,16.42,0,0,0,152.86,255.91Z" transform="translate(-2.32 -2.13)"/><path class="cls-1" d="M156.94,251.17h0a.35.35,0,0,0-.11-.69,17.84,17.84,0,0,0-3.18.49,18.43,18.43,0,0,0-1.92.58,10.23,10.23,0,0,1,.33,1.49A30.07,30.07,0,0,1,156.94,251.17Z" transform="translate(-2.32 -2.13)"/><path class="cls-1" d="M112.27,225.72l-.43-.39-.18-.16-.07-.06-.19-.18-.21-.18,0,0-.2-.18-.21-.19-.39-.35-.12-.12c-.51,3.18-.76,10.23-.92,14.8-.11,3-.2,5.7-.34,7.63-.25,3.55.54,4.08.63,4.13.38.19,1.13-.19,1.53-.51s.9-.55,1.36-.8c.16-.1.34-.18.51-.27l.9-.48h0l.15-.07h0c.44-.22.88-.42,1.33-.61h0l.19-.08a13.69,13.69,0,0,1,.3-2,10.05,10.05,0,0,1,.49-1.53,7.53,7.53,0,0,1,.55-1.1,6.35,6.35,0,0,1,2.16-2.18l.58-.32.16-.09.31-.14a5.48,5.48,0,0,1,.56-.16,9,9,0,0,1,1.42-.12,24.46,24.46,0,0,1,2.45.1,29.46,29.46,0,0,1,4.69.8l.66.17-.19-.16-.33-.27-.37-.32-.37-.3-.39-.33-.42-.36-.49-.41-.18-.15-1.46-1.25-.07-.06-.58-.49-.5-.44-.41-.35-.08-.07L121,233.47l-2.92-2.56-.06-.06-.58-.52-.17-.14-1.2-1.06L116,229l-.58-.51L112.63,226h0l-.33-.3Z" transform="translate(-2.32 -2.13)"/><path class="cls-1" d="M170,243.94a4.67,4.67,0,0,0-1-.92l-.57-.33a2.9,2.9,0,0,0-.38-.16l-.35-.07a15.06,15.06,0,0,0-2.59-.06c-1,0-1.94.13-2.9.26-.72.09-1.45.21-2.16.37l-.8.18-.79.21h0a14.9,14.9,0,0,0-1.47.49l-.16.06-.51.22-.21.09-.65.33-.25.13-1,.58-1,.56h0q-1,.6-2,1.26h0l-.39.26c-.37.26-.75.54-1.11.82a6.45,6.45,0,0,1,.91,1l1-.78a38.53,38.53,0,0,1,4.07-2.85l.22-.13a15.25,15.25,0,0,1,4.51-1.74,29,29,0,0,1,4.73-.59,13.83,13.83,0,0,1,2.43.13l.27.06a1.43,1.43,0,0,1,.2.09,3.56,3.56,0,0,1,.5.32,3.38,3.38,0,0,1,.82.78,6.86,6.86,0,0,1,1.11,4.33V249a17.88,17.88,0,0,1-.24,2.41c-.14.82-.32,1.63-.5,2.45-.39,1.62-.82,3.23-1.33,4.8-.18.58-.38,1.15-.59,1.72a14.4,14.4,0,0,1-4.12,6.38,10.68,10.68,0,0,1-1.9,1.21,3.52,3.52,0,0,1-1.89.4,10.68,10.68,0,0,1-4.14-1.66c-.7-.4-1.4-.83-2.09-1.27a17.42,17.42,0,0,1-1.89-1.4l-.53-.46-.12-.12-.41-.4-.09-.09a12.51,12.51,0,0,1-.94-1.13h0a5.24,5.24,0,0,1-.73.41,7.35,7.35,0,0,1-1.33.49,14.32,14.32,0,0,0,2.6,3.09,20.73,20.73,0,0,0,2.14,1.62c.72.46,1.45.91,2.2,1.35a12.28,12.28,0,0,0,5.22,1.83,5.84,5.84,0,0,0,3-.69,12.58,12.58,0,0,0,2.28-1.56,12.42,12.42,0,0,0,3.18-4.38,29,29,0,0,0,1.7-4.9c.43-1.65.77-3.31,1.07-5,.11-.61.21-1.22.29-1.84a24.71,24.71,0,0,0,.21-2.72V249A7.93,7.93,0,0,0,170,243.94Z" transform="translate(-2.32 -2.13)"/><path class="cls-1" d="M187.74,204.74a3.05,3.05,0,0,0-.58-.54c-2.12-.52-3.15,1.28-2.47,2.65a1.38,1.38,0,0,0,.77.71h.07a.48.48,0,0,0,.18.06h0l.24,0h.34l.07,0h0l.27-.08.07,0,.16-.08a2,2,0,0,0,1.19-1.64A1.66,1.66,0,0,0,187.74,204.74Z" transform="translate(-2.32 -2.13)"/><path class="cls-3" d="M183.75,236.29a2,2,0,0,0,.05.24,1.53,1.53,0,0,0,.08.26,3.34,3.34,0,0,0,.15.38l.06.1a1.16,1.16,0,0,0,.13.22l.06.09a1.15,1.15,0,0,0,.14.17l.06.07a1,1,0,0,0,.16.14l.06,0,.21.13h0a1.37,1.37,0,0,0,.77.1c1.68-.26,3.38-3.28,1.09-4.17a2.45,2.45,0,0,0-2.18.36,1.78,1.78,0,0,0-.85,1.87Z" transform="translate(-2.32 -2.13)"/><path class="cls-1" d="M219.93,61.68a.4.4,0,0,0-.52-.24,25.39,25.39,0,0,0-5.33,2.63,10.29,10.29,0,0,0-2.38,2.08,4.75,4.75,0,0,0-.85,1.63,3.71,3.71,0,0,0-.09.5l-.06.4-.09.75a34.22,34.22,0,0,1-.79,5.48,6.62,6.62,0,0,1-.95,2.11,2.9,2.9,0,0,1-1.41,1.12,3.5,3.5,0,0,1-1,.21c-.5.06-1,.12-1.52.22a10.13,10.13,0,0,0-3.41,1.18,4.39,4.39,0,0,0-1.7,1.91A4.84,4.84,0,0,0,199.5,84a11.26,11.26,0,0,0,.84,3.33c.2.48.4,1,.62,1.41l.6,1.27a12.16,12.16,0,0,1,.51,1.16c.11.23.12.43.17.45s-.16.09-.26.13l-1.32.63A12.44,12.44,0,0,0,198.08,94a.44.44,0,0,0-.14.41.42.42,0,0,0,.49.32c1-.19,1.89-.34,2.82-.46.47-.07.94-.09,1.47-.19a4.36,4.36,0,0,0,.89-.25,2.48,2.48,0,0,0,1.19-.92,2.65,2.65,0,0,0,.42-1.49,6,6,0,0,0-.09-1c-.1-.59-.23-1.1-.36-1.6s-.3-1-.45-1.44l-.41-1.3a10.63,10.63,0,0,1-.48-2.3,1.1,1.1,0,0,1,.06-.51s0-.09.2-.22a6.46,6.46,0,0,1,2.06-.71l1.33-.29a7.63,7.63,0,0,0,1.83-.56,6.4,6.4,0,0,0,2.88-2.65,9.84,9.84,0,0,0,1.08-3.29,25.24,25.24,0,0,0,0-6.08l0-.71v-.32a1.48,1.48,0,0,1,0-.21,2.57,2.57,0,0,1,.41-1A9.66,9.66,0,0,1,215,65.32a29.92,29.92,0,0,1,4.71-3.14h0A.4.4,0,0,0,219.93,61.68ZM202.44,91.47a1,1,0,0,1-.15.11.29.29,0,0,0,.06-.1C202.47,91.36,202.54,91.39,202.44,91.47Z" transform="translate(-2.32 -2.13)"/><path class="cls-1" d="M190.19,118.93a.64.64,0,0,0-.77-.48h0a28.53,28.53,0,0,1-4.89.49,22.9,22.9,0,0,0-2.64.24,5.91,5.91,0,0,0-1.48.43,2.68,2.68,0,0,0-1.5,1.56,3.17,3.17,0,0,0,.09,2.08,7.83,7.83,0,0,0,.69,1.39c.46.76.84,1.4,1.2,2.12a12.84,12.84,0,0,1,.85,2.08,5.49,5.49,0,0,1,.2.94v.08a6.24,6.24,0,0,1-1.52.94,13.78,13.78,0,0,1-2.79.86,27.51,27.51,0,0,1-6.17.48h0a.65.65,0,0,0-.15,1.28,29.13,29.13,0,0,0,6.62.71,16.33,16.33,0,0,0,3.49-.4,8.83,8.83,0,0,0,3.57-1.69,1.24,1.24,0,0,0,.36-.48l.05-.11a2,2,0,0,0,.15-.55,2.26,2.26,0,0,0,0-.33,3.21,3.21,0,0,0,0-.54,4.61,4.61,0,0,0-.14-.89,7.79,7.79,0,0,0-.5-1.48,15.51,15.51,0,0,0-1.36-2.45c-.49-.75-1.06-1.49-1.56-2.12a6,6,0,0,1-.54-.81c-.13-.25-.15-.42-.16-.38s-.06-.07.19-.22a3.57,3.57,0,0,1,.91-.37,21.55,21.55,0,0,1,2.35-.5,29.63,29.63,0,0,0,5.07-1.12A.64.64,0,0,0,190.19,118.93Zm-8.26,11.21,0,.09s0,0,0,0a.39.39,0,0,1,0-.12Z" transform="translate(-2.32 -2.13)"/><path class="cls-1" d="M196.27,197.41l-.33.69a78.39,78.39,0,0,1-5.93,9.49,3.1,3.1,0,0,1-.55.89c-.16.21-.27.46-.43.68s-.27.28-.4.43a5.22,5.22,0,0,1,1.38,3.57,4.73,4.73,0,0,1-.08.93H191l.74,0,.36,0,.63-.05.46-.05h.1l.47-.06.49-.07.54-.09.53-.11.5-.11c.22-.05.43-.12.65-.18l.37-.1q.51-.16,1-.36a8.63,8.63,0,0,0,2-1.16c.22-.19.31-.51.5-.74a10.21,10.21,0,0,1-1.16,2.57,22.42,22.42,0,0,1-6.14,6.1c-.43.3-.87.58-1.32.85l-.1.06-.29.18h0c-.34.2-.68.4-1,.59l-.05,0h0c0,.08.06.15.08.22l0-.06c.23.66.45,1.32.71,2,.06.14.11.29.17.43h0c.09.22.17.45.26.67.71,1.78,1.44,3.55,2.25,5.3s1.66,3.44,2.39,5.18a42.57,42.57,0,0,1,1.91,5.3,18.66,18.66,0,0,1,.55,2.65,5.9,5.9,0,0,1,0,1.18l0,.2c-2.31.68-4.6,1.41-6.88,2.17-.74.25-1.47.52-2.21.79a3.23,3.23,0,0,1-1.26.85,3.25,3.25,0,0,1,2.09,1.66c.77-.22,1.52-.45,2.27-.71,2.3-.82,4.6-1.67,6.87-2.58a.44.44,0,0,0,.16-.06,1.26,1.26,0,0,0,.26-.13,2,2,0,0,0,.37-.33,2.16,2.16,0,0,0,.39-.65c0-.18.11-.38.14-.55l.05-.5a8,8,0,0,0-.16-1.67,19.71,19.71,0,0,0-.88-2.88c-.71-1.83-1.51-3.59-2.35-5.32-1.71-3.47-3.42-6.8-4.82-10.35l-.33-.86c.77-.49,1.53-1,2.25-1.58a22.76,22.76,0,0,0,6.31-7.2,10.68,10.68,0,0,0,1.29-4.77,6.28,6.28,0,0,0-1.81-4.48h0l-.06-.08h0a.47.47,0,0,0-.58-.1.46.46,0,0,0-.18.64h0a5,5,0,0,1,.78,3.75,4.46,4.46,0,0,1-2.79,2.56,16.23,16.23,0,0,1-3.87.95c1.27-3.64,2.24-6.88,3-9.44.58-2.17,1-3.9,1.18-4.55C197.52,198.66,197,198.08,196.27,197.41Z" transform="translate(-2.32 -2.13)"/><path class="cls-1" d="M248.81,243.12c-.44-.56-.8-1.09-1.28-1.66-1-1.21-2.14-2.48-3.29-3.76-.6-.67-1.18-1.32-1.82-2-1.19-1.26-2.45-2.56-3.74-3.86-.75-.75-1.49-1.51-2.27-2.27-1.28-1.26-2.58-2.52-3.92-3.78-.9-.86-1.8-1.7-2.73-2.56-1.27-1.17-2.54-2.35-3.82-3.51l-3.18-2.84c-1.15-1-2.29-2-3.42-3-1.29-1.13-2.52-2.18-3.77-3.26L213,208.35c-2-1.74-4-3.34-5.82-4.88a41.17,41.17,0,0,0-8.09-5.18.69.69,0,0,1,.15.6s-.15.65-.42,1.73a32.9,32.9,0,0,1,7.14,4.33c22.75,18.84,38.43,34.18,44.25,43.18.46-.46.87-1,1.32-1.44C250.74,245.57,249.77,244.34,248.81,243.12Z" transform="translate(-2.32 -2.13)"/><path class="cls-1" d="M198.36,264.68a16,16,0,0,0-2.11-4.64,9.61,9.61,0,0,0-.8-1c-.35-.38-.61-.58-.92-.88l-1.77-1.68c-.71-.68-1.4-1.37-2.1-2.06a3.44,3.44,0,0,1-.8,1.24l1.93,1.81,1,1,.72.69c.28.27.64.59.83.82a8.9,8.9,0,0,1,.67.91,14.71,14.71,0,0,1,1.84,4.24,18.28,18.28,0,0,1-.21,9.23c-.1.36-.2.72-.31,1.07l-.13.39-.22.67-.18.46c-.07.19-.14.38-.22.56s-.13.32-.2.48l-.24.56c-.08.16-.15.33-.23.49l-.23.48c-.09.18-.18.37-.28.55l-.23.43-.28.54c-.08.14-.17.28-.25.43l-.32.56h0a5,5,0,0,1,1.58,1.54c.48-.83.92-1.68,1.33-2.55a30.05,30.05,0,0,0,2.2-6.22A20.44,20.44,0,0,0,198.36,264.68Z" transform="translate(-2.32 -2.13)"/><path class="cls-2" d="M266.39,60a32.93,32.93,0,0,0-4-6.64c-.18-.24-.37-.47-.56-.7a87.3,87.3,0,0,0-10.35-10.81,171.75,171.75,0,0,0-25.75-18.81c-4.57-2.75-9.22-5.35-14-7.73a138.55,138.55,0,0,0-14.64-6.39A84.44,84.44,0,0,0,181.7,4.81a34.35,34.35,0,0,0-7.82-.42,12.15,12.15,0,0,0-3.69.8,5.3,5.3,0,0,0-1.82,1.16,5.78,5.78,0,0,0-.91.94,5.19,5.19,0,0,0-.61,3.05h0a11.87,11.87,0,0,0,1.09,3.91A29.76,29.76,0,0,0,171,19.4c.35.49.67,1,1,1.46.63.8,1.28,1.57,1.94,2.34h0l.38.43c.42.48.86,1,1.3,1.44l.69.74.64.66c.45.46.9.92,1.36,1.37l0,0,.9.86.47.45.76.72.65.59.6.56,1.32,1.18A177.44,177.44,0,0,0,209,50.74c4.57,2.7,9.24,5.26,14,7.58a128.83,128.83,0,0,0,14.64,6.22,98.06,98.06,0,0,0,15.21,4.1c1,.15,1.91.28,2.86.39h0c.63.07,1.25.12,1.88.16s1.24,0,1.86,0h.06l.7,0h.26c.4,0,.73-.16,1.12-.21a11.65,11.65,0,0,0,2.42-.46,5.4,5.4,0,0,0,2.75-1.7,1.24,1.24,0,0,0,.12-.32.5.5,0,0,1,0-.13C267.79,64.55,267.33,62.14,266.39,60Zm-26.72-14.1a2.56,2.56,0,0,1-1.6,1.13,5.72,5.72,0,0,1-1.89.09l-.37,0c-.64-.08-1.24-.19-1.82-.32-1.15-.26-2.26-.56-3.36-.85l-3.26-.85c-1-.25-2-.5-2.89-.66.36.51.78,1.06,1.17,1.58.67.92,1.36,1.86,2,2.84.33.49.63,1,.93,1.52a7.12,7.12,0,0,1,.77,1.88,3.17,3.17,0,0,1,0,1.24,2.33,2.33,0,0,1-.64,1.28,3.3,3.3,0,0,1-2.08.86,10.18,10.18,0,0,1-3.61-.47.44.44,0,0,1-.3-.54.45.45,0,0,1,.43-.32h0a11.27,11.27,0,0,0,3.17-.26,1.67,1.67,0,0,0,1-.53c.06-.15,0-.32-.08-.7a10.83,10.83,0,0,0-1.7-2.46c-.69-.86-1.42-1.7-2.17-2.55a21.52,21.52,0,0,1-2.25-2.9,3.18,3.18,0,0,1-.49-1.48,2.13,2.13,0,0,1,.55-1.53,2.34,2.34,0,0,1,1.1-.64,4.45,4.45,0,0,1,1.32-.12c.36,0,.69,0,1,.09,1.31.2,2.52.46,3.7.76s2.08.56,3.12.85,2.18.62,3.23.88c.53.14,1,.26,1.53.35a6.52,6.52,0,0,0,.8.09,6.24,6.24,0,0,0-.28-.83,16,16,0,0,0-1.63-2.66c-1.28-1.8-2.75-3.54-4.1-5.41a16.85,16.85,0,0,1-1.86-3.06,4.59,4.59,0,0,1-.31-1A1.81,1.81,0,0,1,229,30a1.59,1.59,0,0,1,1-.74,3.8,3.8,0,0,1,.92-.1H231a.44.44,0,0,1,.39.26h0a.33.33,0,0,1,0,.17.44.44,0,0,1-.38.43c-.51.06-1,.32-1,.49a1.83,1.83,0,0,0,.37,1,18.7,18.7,0,0,0,2,2.51c1.53,1.64,3.14,3.25,4.66,5a18.26,18.26,0,0,1,2.12,3,6.29,6.29,0,0,1,.72,2.06A2.67,2.67,0,0,1,239.67,45.92Z" transform="translate(-2.32 -2.13)"/><path class="cls-1" d="M240,44.16a6.29,6.29,0,0,0-.72-2.06,18.26,18.26,0,0,0-2.12-3c-1.52-1.79-3.13-3.4-4.66-5a18.7,18.7,0,0,1-2-2.51,1.83,1.83,0,0,1-.37-1c0-.17.48-.43,1-.49a.44.44,0,0,0,.38-.43.37.37,0,0,0,0-.18.44.44,0,0,0-.39-.26H231a3.8,3.8,0,0,0-.92.1,1.59,1.59,0,0,0-1,.74,1.81,1.81,0,0,0-.17,1.24,4.59,4.59,0,0,0,.31,1A16.85,16.85,0,0,0,231,35.25c1.35,1.87,2.82,3.61,4.1,5.41a16,16,0,0,1,1.63,2.66,6.24,6.24,0,0,1,.28.83,6.52,6.52,0,0,1-.8-.09c-.48-.09-1-.21-1.53-.35-1.05-.26-2.14-.57-3.23-.88a54.46,54.46,0,0,0-6.82-1.61c-.32,0-.65-.08-1-.09a4.45,4.45,0,0,0-1.32.12,2.34,2.34,0,0,0-1.1.64,2.13,2.13,0,0,0-.55,1.53,3.18,3.18,0,0,0,.49,1.48,21.52,21.52,0,0,0,2.25,2.9c.75.85,1.48,1.69,2.17,2.55a10.83,10.83,0,0,1,1.7,2.46c.12.38.14.55.08.7a1.67,1.67,0,0,1-1,.53,11.27,11.27,0,0,1-3.17.26h0a.45.45,0,0,0-.43.32.44.44,0,0,0,.3.54,10.18,10.18,0,0,0,3.61.47,3.3,3.3,0,0,0,2.08-.86,2.33,2.33,0,0,0,.64-1.28,3.17,3.17,0,0,0,0-1.24,7.12,7.12,0,0,0-.77-1.88c-.3-.55-.6-1-.93-1.52-.65-1-1.34-1.92-2-2.84-.39-.52-.81-1.07-1.17-1.58.92.16,1.91.41,2.89.66l3.26.85c1.1.29,2.21.59,3.36.85.58.13,1.18.24,1.82.32a6.45,6.45,0,0,0,2.26-.05,2.56,2.56,0,0,0,1.6-1.13A2.67,2.67,0,0,0,240,44.16Z" transform="translate(-2.32 -2.13)"/><path class="cls-1" d="M180.87,110.85a179.3,179.3,0,0,1-15-12.09.42.42,0,0,1,0-.58.41.41,0,0,1,.53-.06h0a174.5,174.5,0,0,0,16.28,9.82,84.75,84.75,0,0,0,8.47,3.92,25.56,25.56,0,0,0,7.73,1.94,34.42,34.42,0,0,1-4.64-1.66A69.28,69.28,0,0,1,185,107c-2.94-1.9-5.77-4-8.52-6.06s-5.43-4.33-8-6.64a.41.41,0,0,1,.51-.63h0a141.72,141.72,0,0,0,17.35,11.06,66.38,66.38,0,0,0,9.24,4.12,25.22,25.22,0,0,0,5.66,1.24c.07-.14.16-.28.23-.42a39.46,39.46,0,0,1-7-2.2,57.66,57.66,0,0,1-8.32-4.66,74.32,74.32,0,0,1-7.37-5.8,71.9,71.9,0,0,1-6.56-6.62.4.4,0,0,1,.58-.56h0a73.93,73.93,0,0,0,14.82,10.53,53.41,53.41,0,0,0,8.21,3.47,35.74,35.74,0,0,0,6.72,1.18,3,3,0,0,0,0-.42,1.26,1.26,0,0,1,.07-.65c-19-7.24-33.48-22.17-39.78-29.46-.79,1.14-1.59,2.28-2.47,3.35a52.83,52.83,0,0,1-3.64,4c-.64.64-1.37,1.2-2,1.8,7.42,18.54,22.89,28.49,37.32,33.74-.93-.42-1.92-.78-2.8-1.25A91.25,91.25,0,0,1,180.87,110.85Z" transform="translate(-2.32 -2.13)"/><path class="cls-1" d="M129,73.54a6.36,6.36,0,0,1,.12,2.21c0,.73,0,1.47,0,2.21l.16,2.23.34,2.21c.09.74.32,1.46.47,2.19s.31,1.47.56,2.18c.5,1.42.84,2.89,1.46,4.27a69.76,69.76,0,0,0,8.72,15.84l1.3,1.87,1.43,1.77,2.87,3.53c1,1.15,2.05,2.24,3.07,3.36s2,2.26,3.14,3.3c2.22,2.07,4.39,4.2,6.67,6.21l7,5.84h0a73.58,73.58,0,0,0,9.52,5.27c1.63.8,3.34,1.4,5,2.07.86.3,1.73.55,2.58.83a26.61,26.61,0,0,0,2.61.73A55.24,55.24,0,0,0,227.77,136a42.92,42.92,0,0,0,8.68-6.47,24.19,24.19,0,0,0,3.53-4.1,10.05,10.05,0,0,0,1.94-5,9.6,9.6,0,0,1-1.65,5.18,24.54,24.54,0,0,1-3.36,4.37,43.69,43.69,0,0,1-8.6,6.91,54.62,54.62,0,0,1-20.7,7.48,52.45,52.45,0,0,1-11.06.34,50.11,50.11,0,0,1-10.89-1.91A26,26,0,0,1,183,142c-.87-.31-1.75-.59-2.61-.92-1.69-.73-3.42-1.38-5-2.24a75,75,0,0,1-9.48-5.58l0,0-6.91-6c-2.26-2-4.41-4.2-6.62-6.29s-4.21-4.4-6.27-6.65l-2.92-3.51-1.46-1.75-1.36-1.84A72,72,0,0,1,131,91.44a45.34,45.34,0,0,1-2.73-8.8l-.39-2.29L127.7,78c0-.78,0-1.56,0-2.35a4,4,0,0,1,.62-2.31.37.37,0,0,1,.52-.09.38.38,0,0,1,.14.21Z" transform="translate(-2.32 -2.13)"/><path class="cls-1" d="M134.12,77.32a7.58,7.58,0,0,1-1.28-3.18,8.56,8.56,0,0,1,.14-3.49,10,10,0,0,1,1.52-3.17,9.55,9.55,0,0,1,1.15-1.31,7.83,7.83,0,0,1,1.46-1,10.51,10.51,0,0,1-1,1.39c-.31.46-.69.86-1,1.32a10.38,10.38,0,0,0-1.48,2.91,8.68,8.68,0,0,0-.36,3.25A9.26,9.26,0,0,0,134.12,77.32Z" transform="translate(-2.32 -2.13)"/><path class="cls-2" d="M125.59,155.21a1.81,1.81,0,0,0,.16.39,3.91,3.91,0,0,0,.34.49,6.94,6.94,0,0,0,.89.91,16.56,16.56,0,0,0,2.14,1.53,8.86,8.86,0,0,0,2.38,1.05,24.29,24.29,0,0,0,2.64.39.14.14,0,0,1,.12.16.15.15,0,0,1-.15.13,25.46,25.46,0,0,1-2.71-.24,9.18,9.18,0,0,1-2.59-1,17.67,17.67,0,0,1-2.32-1.46,7.84,7.84,0,0,1-1-.95,4.44,4.44,0,0,1-.46-.59,1.94,1.94,0,0,1-.32-.85.45.45,0,0,1,.39-.51.46.46,0,0,1,.5.33Z" transform="translate(-2.32 -2.13)"/><path class="cls-2" d="M120.05,134.33a12.51,12.51,0,0,1,4-1,4.31,4.31,0,0,1,2.52.54,3,3,0,0,1,.66.58l.33.38.63.67a49.87,49.87,0,0,0,5.5,4.93,27.42,27.42,0,0,0,5.66,3.39,5.07,5.07,0,0,0,1.07.3,2.11,2.11,0,0,0,.25,0l.49.07a9.2,9.2,0,0,1,1,.18,8.56,8.56,0,0,1,3.68,1.78,2.28,2.28,0,0,1,.28,3.22,2.36,2.36,0,0,1-.85.63l-.06,0a9.24,9.24,0,0,1-3.87.66,8.42,8.42,0,0,1-.9-.05l-.46,0c-.23,0-.46-.05-.7-.1a10,10,0,0,1-2.54-.87,19.74,19.74,0,0,1-6.5-5.71,60.77,60.77,0,0,1-4.51-6.57l-.5-.86c-.07-.13-.2-.36-.22-.41a.1.1,0,0,0,0-.09,1.81,1.81,0,0,0-1.09-.53,12.71,12.71,0,0,0-3.57-.16h0a.52.52,0,0,1-.56-.48A.51.51,0,0,1,120.05,134.33Z" transform="translate(-2.32 -2.13)"/><path class="cls-2" d="M138.67,153.91a7.76,7.76,0,0,0-.45-.86,6.11,6.11,0,0,0-.53-.47,5.08,5.08,0,0,0-.5-.44l-1-.69c-.22-.14-.47-.25-.7-.4-.61-.38-1.25-.71-1.88-1.06s-1.13-.69-1.73-1l-.57-.24c-.39-.18-.8-.35-1.2-.51-.18-.07-.35-.16-.53-.22a8.92,8.92,0,0,0-2.61-.67,4.71,4.71,0,0,0-4.77,2.54.5.5,0,0,0,0,.46.48.48,0,0,0,.66.11l.07-.05a5.46,5.46,0,0,1,3.82-1,9,9,0,0,1,2,.53,5.41,5.41,0,0,0-.56,2.24,5.6,5.6,0,0,0,1.51,3.91,5.36,5.36,0,0,0,3.9,1.66,5.28,5.28,0,0,0,3.85-1.7,5.82,5.82,0,0,0,.63-1,5.92,5.92,0,0,1,.46.59v0a.48.48,0,0,0,.52.28.47.47,0,0,0,.37-.55A4.1,4.1,0,0,0,138.67,153.91Zm-3.23,1.78a1.35,1.35,0,0,1-1.26-1.13,2.36,2.36,0,0,0,1.54-1.49l.67.36a1.1,1.1,0,0,0,.14.09,1.23,1.23,0,0,1-.09,1.69,1.53,1.53,0,0,1-.21.14A1.29,1.29,0,0,1,135.44,155.69Zm-5.86-3.46a4.16,4.16,0,0,1,.38-1.8l1.07.42.69.32a2.22,2.22,0,0,0-.5,1.2,2.34,2.34,0,0,0,2.1,2.28,2.15,2.15,0,0,0,1.17,1.54,3.64,3.64,0,0,1-.85.16A4.18,4.18,0,0,1,129.58,152.23Z" transform="translate(-2.32 -2.13)"/><path class="cls-2" d="M150.44,174.43a22.1,22.1,0,0,0-3.67-2.48,31.4,31.4,0,0,0-4-1.86,30.89,30.89,0,0,0-4.19-1.33.09.09,0,0,0-.1.05.07.07,0,0,0,0,.1c1.34.56,2.68,1.14,4,1.75s2.63,1.23,3.87,2a29.8,29.8,0,0,1,3.63,2.32,16.5,16.5,0,0,1,3.12,3,.07.07,0,0,0,.08,0,.07.07,0,0,0,0-.1A11.68,11.68,0,0,0,150.44,174.43Z" transform="translate(-2.32 -2.13)"/><path class="cls-2" d="M149,150.24l.08,0h0a1.4,1.4,0,0,0,.58-.65,3.1,3.1,0,0,0,.32-1,7.81,7.81,0,0,0-.07-2.31.18.18,0,0,1,.14-.2.17.17,0,0,1,.19.12,8.28,8.28,0,0,1,.35,2.44,4.18,4.18,0,0,1-.23,1.29,2.13,2.13,0,0,1-.92,1.16.45.45,0,0,1-.46-.78Z" transform="translate(-2.32 -2.13)"/><path class="cls-2" d="M152.72,152.21a8.76,8.76,0,0,1,.88-2.14,3.66,3.66,0,0,1,1.63-1.6.08.08,0,0,1,.11,0,.09.09,0,0,1,0,.11,3.35,3.35,0,0,0-1.23,1.68,7.88,7.88,0,0,0-.47,2.06h0a.45.45,0,1,1-.89-.08S152.72,152.24,152.72,152.21Z" transform="translate(-2.32 -2.13)"/><path class="cls-1" d="M185.81,169.82a15.64,15.64,0,0,0-.39-3.2c-.09-.35-.18-.7-.29-1a14.17,14.17,0,0,0-2.08-3.89,15.08,15.08,0,0,0-7.14-5.08,15.62,15.62,0,0,0-4.33-.85l-.4,0-.71,0c-.37,0-.75.06-1.12.09-.73.07-1.51.11-2.22.24a13,13,0,0,0-2.3.8,14.06,14.06,0,0,0-5.26,3.28,13.56,13.56,0,0,0-3.94,7.5,12.91,12.91,0,0,0,1.39,8.21,13.57,13.57,0,0,0,1.16,1.78c.47.61.91,1.2,1.37,1.71a13.36,13.36,0,0,0,3.26,2.64,12.51,12.51,0,0,0,6.55,1.52l-5.27-23.39a.14.14,0,0,1,.1-.16.13.13,0,0,1,.16.1l5.92,23.41s0,0,0,.06c.22,0,.43,0,.64,0H171a17.21,17.21,0,0,0,3.15-.62l-3.24-16.21a.12.12,0,0,1,.1-.14.11.11,0,0,1,.14.09l3.84,16.1a16.79,16.79,0,0,0,2.56-1,14.36,14.36,0,0,0,3.53-6.2,14.16,14.16,0,0,0,.13-7.67,20.56,20.56,0,0,0-1.18-3.76,12.82,12.82,0,0,0-2.1-3.28c-1.7-2-4.35-2.85-6.91-3.47h0a.28.28,0,0,1-.2-.34.27.27,0,0,1,.32-.21,21.72,21.72,0,0,1,4,1.13,9.67,9.67,0,0,1,3.48,2.32,13.73,13.73,0,0,1,2.37,3.43,21.94,21.94,0,0,1,1.38,3.91,18.42,18.42,0,0,1,.64,4.13V172a5.38,5.38,0,0,1,.83-1A5.07,5.07,0,0,1,185.81,169.82Z" transform="translate(-2.32 -2.13)"/><path class="cls-1" d="M182.36,176.25v0c-.08.29-.16.57-.25.86l0,.06c-.09.28-.19.55-.29.81,0,.09-.07.16-.1.25s-.16.41-.26.62-.27.59-.42.88l.09-.05c.35-.3.69-.62,1-.95l.1-.11c.29-.3.56-.62.82-.94A5,5,0,0,1,182.36,176.25Z" transform="translate(-2.32 -2.13)"/><path class="cls-1" d="M189.68,172.25a3.14,3.14,0,0,0-2.33-1.14,3.28,3.28,0,0,0-2.41,1,3.2,3.2,0,0,0-.83,2.41,3.12,3.12,0,0,0,3.24,2.88,3.48,3.48,0,0,0,2-.84,3,3,0,0,0,1-2A3.25,3.25,0,0,0,189.68,172.25Z" transform="translate(-2.32 -2.13)"/><path class="cls-2" d="M125.89,205.67a17.59,17.59,0,0,1,6,1,8.22,8.22,0,0,1,2.58,1.39,5.27,5.27,0,0,1,.93,1l.44.61c.16.23.33.46.51.67a12.79,12.79,0,0,0,5.62,3.77,13.72,13.72,0,0,0,6.61.58.47.47,0,0,0,0-.93h0a21.69,21.69,0,0,1-5.76-1.73,16.4,16.4,0,0,1-2.49-1.49c-.77-.59-1.49-1.22-2.23-1.87-.19-.16-.36-.34-.55-.5l-.28-.25-.35-.3a7.52,7.52,0,0,0-1.48-1,13.51,13.51,0,0,0-3.16-1.23,24,24,0,0,0-6.46-.65.47.47,0,0,0-.46.47.46.46,0,0,0,.47.46Z" transform="translate(-2.32 -2.13)"/></svg>