<svg width="168" height="40" viewBox="0 0 168 40" fill="none" xmlns="http://www.w3.org/2000/svg">
    <g clip-path="url(#clip0_1_1000)">
        <path d="M27.8572 17.8497C26.6439 18.537 25.4614 19.2091 24.2329 19.8812C23.1118 17.3762 22.0061 14.9171 20.885 12.3816C20.6239 12.962 20.409 13.466 20.1786 13.9853C19.1343 16.3681 18.0901 18.7356 17.0457 21.1184C16.6464 22.0348 16.2318 22.9513 15.8172 23.8677C15.7711 23.9746 15.679 24.0815 15.5868 24.1274C13.099 25.2424 10.6111 26.3727 7.98504 27.1364C6.80254 27.4877 5.58933 27.7626 4.3454 27.839C3.66969 27.8848 3.00933 27.8542 2.37969 27.6252C1.51969 27.3196 1.22791 26.6781 1.56577 25.8228C1.84219 25.1355 2.33362 24.6008 2.85576 24.0968C4.17648 22.8596 5.7429 22.0043 7.3554 21.2406C8.29218 20.7976 9.2597 20.4157 10.2118 20.0033C10.2272 20.0339 10.2426 20.0492 10.2426 20.0797C10.1504 20.1255 10.0736 20.1714 9.98146 20.2172C8.5993 20.8587 7.27861 21.5766 6.08076 22.5236C5.69683 22.829 5.34362 23.1956 5.02112 23.5775C4.83683 23.7913 4.65255 24.0663 4.82147 24.3717C4.97505 24.6619 5.29754 24.6925 5.58933 24.6925C6.40326 24.7231 7.18647 24.5398 7.93897 24.2801C9.16753 23.8372 10.3808 23.3637 11.5939 22.8749C11.7475 22.8138 11.8704 22.6152 11.9472 22.4472C12.7918 20.5838 13.6058 18.7051 14.4504 16.8416C15.5561 14.3672 16.6464 11.8928 17.7522 9.4184C18.1975 8.44086 18.8118 7.64661 19.9022 7.31057C21.4686 6.8218 23.0197 7.41749 23.8029 8.88381C24.3097 9.8308 24.7089 10.8236 25.1543 11.8164C26.0296 13.7562 26.905 15.6961 27.765 17.6511C27.7957 17.6817 27.8111 17.7428 27.8572 17.8497Z" fill="white"/>
        <path d="M28.8994 14.217C30.5251 13.5264 32.1354 12.9259 33.8072 12.5506C34.6047 12.3704 35.4329 12.2353 36.2611 12.1602C36.7212 12.1152 37.2273 12.1602 37.6721 12.2653C38.4542 12.4455 38.7457 13.001 38.4696 13.7516C38.2395 14.3972 37.8101 14.9227 37.35 15.4331C36.077 16.8143 34.574 17.9403 33.025 19.0062C31.8748 19.802 30.6784 20.5526 29.4976 21.3032C29.0988 21.5585 29.0988 21.5435 29.2982 21.9789C30.6784 24.9965 32.0435 27.9991 33.4237 31.0168C33.5772 31.3621 33.7459 31.7224 33.9146 32.0977C33.7918 32.0977 33.6998 32.1127 33.6231 32.1127C32.3042 32.1127 30.9852 32.1127 29.6663 32.1127C29.4208 32.1127 29.3288 32.0227 29.2368 31.8275C28.0252 29.1251 26.8136 26.4378 25.602 23.7504C25.5866 23.7054 25.5406 23.6603 25.5099 23.6003C19.8046 26.7681 13.8846 29.4855 7.85718 32.1428C7.91852 32.0077 7.93386 31.9176 7.97987 31.8426C8.5473 30.5965 9.09948 29.3504 9.68227 28.1193C9.75894 27.9691 9.89696 27.819 10.0504 27.7589C13.2557 26.3627 16.4918 25.0265 19.6052 23.4652C22.7033 21.9038 25.832 20.3725 28.792 18.5709C30.1417 17.7451 31.4453 16.8293 32.7336 15.9135C33.1937 15.5833 33.5465 15.1328 33.9299 14.7275C34.0526 14.5923 34.1293 14.4122 34.1906 14.2471C34.2827 13.9618 34.1906 13.7066 33.8839 13.6015C33.6385 13.5114 33.3778 13.4514 33.1324 13.4514C31.798 13.4063 30.5251 13.7666 29.2675 14.157C29.1908 14.187 29.1141 14.217 29.0374 14.232C29.0221 14.232 28.9914 14.232 28.8994 14.217Z" fill="#FBD506"/>
        <path d="M52.3789 25.7332V19.8855C52.3789 19.4558 52.3047 19.0847 52.1562 18.7722C52.0078 18.4597 51.7812 18.2175 51.4766 18.0457C51.1719 17.8738 50.7852 17.7878 50.3164 17.7878C49.9023 17.7878 49.5391 17.8582 49.2266 17.9988C48.9219 18.1394 48.6875 18.3386 48.5234 18.5964C48.3594 18.8464 48.2773 19.1355 48.2773 19.4636H45.1719C45.1719 18.9402 45.2969 18.4441 45.5469 17.9753C45.7969 17.4988 46.1523 17.0769 46.6133 16.7097C47.082 16.3347 47.6406 16.0417 48.2891 15.8308C48.9453 15.6199 49.6797 15.5144 50.4922 15.5144C51.4531 15.5144 52.3086 15.6785 53.0586 16.0066C53.8164 16.3269 54.4102 16.8113 54.8398 17.4597C55.2773 18.1082 55.4961 18.9246 55.4961 19.9089V25.4402C55.4961 26.073 55.5352 26.616 55.6133 27.0691C55.6992 27.5144 55.8242 27.9011 55.9883 28.2292V28.4285H52.8359C52.6875 28.1082 52.5742 27.7019 52.4961 27.2097C52.418 26.7097 52.3789 26.2175 52.3789 25.7332ZM52.8125 20.7058L52.8359 22.5457H50.8789C50.3945 22.5457 49.9688 22.5964 49.6016 22.698C49.2344 22.7917 48.9336 22.9324 48.6992 23.1199C48.4648 23.2996 48.2891 23.5183 48.1719 23.7761C48.0547 24.0261 47.9961 24.3113 47.9961 24.6316C47.9961 24.9441 48.0664 25.2253 48.207 25.4753C48.3555 25.7253 48.5664 25.9246 48.8398 26.073C49.1211 26.2136 49.4492 26.2839 49.8242 26.2839C50.3711 26.2839 50.8477 26.1746 51.2539 25.9558C51.6602 25.7292 51.9766 25.4558 52.2031 25.1355C52.4297 24.8152 52.5508 24.5105 52.5664 24.2214L53.457 25.5574C53.3477 25.8777 53.1836 26.2175 52.9648 26.5769C52.7461 26.9363 52.4648 27.2722 52.1211 27.5847C51.7773 27.8972 51.3633 28.155 50.8789 28.3582C50.3945 28.5613 49.832 28.6628 49.1914 28.6628C48.3711 28.6628 47.6367 28.4988 46.9883 28.1707C46.3398 27.8425 45.8281 27.3933 45.4531 26.823C45.0781 26.2527 44.8906 25.6042 44.8906 24.8777C44.8906 24.2058 45.0156 23.6121 45.2656 23.0964C45.5156 22.5808 45.8867 22.1472 46.3789 21.7957C46.8711 21.4363 47.4805 21.1667 48.207 20.9871C48.9414 20.7996 49.7812 20.7058 50.7266 20.7058H52.8125ZM62.3047 26.0847L65.2578 15.7488H68.4922L64.1445 28.4285H62.1758L62.3047 26.0847ZM60.1484 15.7488L63.1367 26.1082L63.2422 28.4285H61.2617L56.9023 15.7488H60.1484ZM76.918 25.7332V19.8855C76.918 19.4558 76.8438 19.0847 76.6953 18.7722C76.5469 18.4597 76.3203 18.2175 76.0156 18.0457C75.7109 17.8738 75.3242 17.7878 74.8555 17.7878C74.4414 17.7878 74.0781 17.8582 73.7656 17.9988C73.4609 18.1394 73.2266 18.3386 73.0625 18.5964C72.8984 18.8464 72.8164 19.1355 72.8164 19.4636H69.7109C69.7109 18.9402 69.8359 18.4441 70.0859 17.9753C70.3359 17.4988 70.6914 17.0769 71.1523 16.7097C71.6211 16.3347 72.1797 16.0417 72.8281 15.8308C73.4844 15.6199 74.2188 15.5144 75.0312 15.5144C75.9922 15.5144 76.8477 15.6785 77.5977 16.0066C78.3555 16.3269 78.9492 16.8113 79.3789 17.4597C79.8164 18.1082 80.0352 18.9246 80.0352 19.9089V25.4402C80.0352 26.073 80.0742 26.616 80.1523 27.0691C80.2383 27.5144 80.3633 27.9011 80.5273 28.2292V28.4285H77.375C77.2266 28.1082 77.1133 27.7019 77.0352 27.2097C76.957 26.7097 76.918 26.2175 76.918 25.7332ZM77.3516 20.7058L77.375 22.5457H75.418C74.9336 22.5457 74.5078 22.5964 74.1406 22.698C73.7734 22.7917 73.4727 22.9324 73.2383 23.1199C73.0039 23.2996 72.8281 23.5183 72.7109 23.7761C72.5938 24.0261 72.5352 24.3113 72.5352 24.6316C72.5352 24.9441 72.6055 25.2253 72.7461 25.4753C72.8945 25.7253 73.1055 25.9246 73.3789 26.073C73.6602 26.2136 73.9883 26.2839 74.3633 26.2839C74.9102 26.2839 75.3867 26.1746 75.793 25.9558C76.1992 25.7292 76.5156 25.4558 76.7422 25.1355C76.9688 24.8152 77.0898 24.5105 77.1055 24.2214L77.9961 25.5574C77.8867 25.8777 77.7227 26.2175 77.5039 26.5769C77.2852 26.9363 77.0039 27.2722 76.6602 27.5847C76.3164 27.8972 75.9023 28.155 75.418 28.3582C74.9336 28.5613 74.3711 28.6628 73.7305 28.6628C72.9102 28.6628 72.1758 28.4988 71.5273 28.1707C70.8789 27.8425 70.3672 27.3933 69.9922 26.823C69.6172 26.2527 69.4297 25.6042 69.4297 24.8777C69.4297 24.2058 69.5547 23.6121 69.8047 23.0964C70.0547 22.5808 70.4258 22.1472 70.918 21.7957C71.4102 21.4363 72.0195 21.1667 72.7461 20.9871C73.4805 20.7996 74.3203 20.7058 75.2656 20.7058H77.3516ZM85.8594 18.4558V28.4285H82.7656V15.7488H85.6719L85.8594 18.4558ZM85.3672 21.6316H84.4531C84.4609 20.7097 84.5859 19.8738 84.8281 19.1238C85.0703 18.3738 85.4102 17.7292 85.8477 17.1902C86.293 16.6511 86.8203 16.2371 87.4297 15.948C88.0391 15.6589 88.7188 15.5144 89.4688 15.5144C90.0781 15.5144 90.6289 15.6003 91.1211 15.7722C91.6133 15.9441 92.0352 16.2175 92.3867 16.5925C92.7461 16.9675 93.0195 17.4597 93.207 18.0691C93.4023 18.6707 93.5 19.4128 93.5 20.2957V28.4285H90.3828V20.2722C90.3828 19.6941 90.2969 19.2371 90.125 18.9011C89.9609 18.5652 89.7188 18.3269 89.3984 18.1863C89.0859 18.0457 88.6992 17.9753 88.2383 17.9753C87.7617 17.9753 87.3438 18.073 86.9844 18.2683C86.6328 18.4558 86.3359 18.7175 86.0938 19.0535C85.8594 19.3894 85.6797 19.7761 85.5547 20.2136C85.4297 20.6511 85.3672 21.1238 85.3672 21.6316ZM98 18.3738V28.4285H96.5938V15.7488H97.9414L98 18.3738ZM97.7422 21.3035L97.0625 20.9519C97.1094 20.2019 97.25 19.4988 97.4844 18.8425C97.7266 18.1863 98.0625 17.6082 98.4922 17.1082C98.9219 16.6082 99.4375 16.2175 100.039 15.9363C100.641 15.655 101.324 15.5144 102.09 15.5144C102.707 15.5144 103.266 15.6003 103.766 15.7722C104.273 15.9363 104.703 16.198 105.055 16.5574C105.414 16.9089 105.691 17.3699 105.887 17.9402C106.082 18.5105 106.18 19.1941 106.18 19.991V28.4285H104.785V20.0378C104.785 19.1941 104.652 18.5339 104.387 18.0574C104.129 17.5808 103.766 17.241 103.297 17.0378C102.836 16.8347 102.301 16.7332 101.691 16.7332C100.973 16.7332 100.363 16.8816 99.8633 17.1785C99.3711 17.4675 98.9688 17.8464 98.6562 18.3152C98.3516 18.7761 98.125 19.2722 97.9766 19.8035C97.8281 20.3269 97.75 20.8269 97.7422 21.3035ZM106.168 20.2019L105.23 20.2253C105.27 19.6082 105.41 19.0183 105.652 18.4558C105.902 17.8933 106.242 17.3933 106.672 16.9558C107.102 16.5105 107.613 16.1589 108.207 15.9011C108.809 15.6433 109.484 15.5144 110.234 15.5144C110.891 15.5144 111.477 15.6042 111.992 15.7839C112.508 15.9558 112.941 16.2332 113.293 16.616C113.652 16.991 113.926 17.4714 114.113 18.0574C114.301 18.6433 114.395 19.3464 114.395 20.1667V28.4285H112.988V20.155C112.988 19.2566 112.855 18.5613 112.59 18.0691C112.332 17.5691 111.973 17.2214 111.512 17.0261C111.051 16.8308 110.512 16.7332 109.895 16.7332C109.285 16.741 108.75 16.8542 108.289 17.073C107.828 17.2839 107.441 17.5652 107.129 17.9167C106.824 18.2605 106.59 18.6316 106.426 19.03C106.27 19.4285 106.184 19.8191 106.168 20.2019ZM125.668 26.155V19.616C125.668 19.0144 125.543 18.4949 125.293 18.0574C125.043 17.6199 124.676 17.2839 124.191 17.0496C123.707 16.8152 123.109 16.698 122.398 16.698C121.742 16.698 121.156 16.8152 120.641 17.0496C120.133 17.2761 119.73 17.5847 119.434 17.9753C119.145 18.3582 119 18.7839 119 19.2527L117.594 19.241C117.594 18.7644 117.711 18.3035 117.945 17.8582C118.18 17.4128 118.512 17.0144 118.941 16.6628C119.371 16.3113 119.883 16.0339 120.477 15.8308C121.078 15.6199 121.738 15.5144 122.457 15.5144C123.363 15.5144 124.16 15.6667 124.848 15.9714C125.543 16.2761 126.086 16.7332 126.477 17.3425C126.867 17.9519 127.062 18.7175 127.062 19.6394V25.7683C127.062 26.2058 127.094 26.6589 127.156 27.1277C127.227 27.5964 127.324 27.9832 127.449 28.2878V28.4285H125.961C125.867 28.1472 125.793 27.7957 125.738 27.3738C125.691 26.9441 125.668 26.5378 125.668 26.155ZM125.996 21.0457L126.02 22.1238H123.266C122.547 22.1238 121.902 22.1902 121.332 22.323C120.77 22.448 120.293 22.6355 119.902 22.8855C119.512 23.1277 119.211 23.4207 119 23.7644C118.797 24.1082 118.695 24.4988 118.695 24.9363C118.695 25.3894 118.809 25.8035 119.035 26.1785C119.27 26.5535 119.598 26.8542 120.02 27.0808C120.449 27.2996 120.957 27.4089 121.543 27.4089C122.324 27.4089 123.012 27.2644 123.605 26.9753C124.207 26.6863 124.703 26.3074 125.094 25.8386C125.484 25.3699 125.746 24.8582 125.879 24.3035L126.488 25.1121C126.387 25.5027 126.199 25.905 125.926 26.3191C125.66 26.7253 125.312 27.1082 124.883 27.4675C124.453 27.8191 123.945 28.1082 123.359 28.3347C122.781 28.5535 122.125 28.6628 121.391 28.6628C120.562 28.6628 119.84 28.5066 119.223 28.1941C118.613 27.8816 118.137 27.4558 117.793 26.9167C117.457 26.3699 117.289 25.7527 117.289 25.0652C117.289 24.4402 117.422 23.8816 117.688 23.3894C117.953 22.8894 118.336 22.4675 118.836 22.1238C119.344 21.7722 119.953 21.5066 120.664 21.3269C121.383 21.1394 122.188 21.0457 123.078 21.0457H125.996ZM132.219 17.8464V28.4285H130.824V15.7488H132.184L132.219 17.8464ZM136.707 15.655L136.672 16.9441C136.516 16.9207 136.363 16.9011 136.215 16.8855C136.066 16.8699 135.906 16.8621 135.734 16.8621C135.125 16.8621 134.59 16.9753 134.129 17.2019C133.676 17.4207 133.293 17.7292 132.98 18.1277C132.668 18.5183 132.43 18.9792 132.266 19.5105C132.102 20.0339 132.008 20.5964 131.984 21.198L131.469 21.3972C131.469 20.5691 131.555 19.7996 131.727 19.0886C131.898 18.3777 132.16 17.7566 132.512 17.2253C132.871 16.6863 133.32 16.2683 133.859 15.9714C134.406 15.6667 135.047 15.5144 135.781 15.5144C135.961 15.5144 136.137 15.53 136.309 15.5613C136.488 15.5847 136.621 15.616 136.707 15.655ZM140.305 10.4285V28.4285H138.91V10.4285H140.305ZM148.262 15.7488L142.332 21.6316L139.812 24.0691L139.602 22.698L141.629 20.5066L146.492 15.7488H148.262ZM147.043 28.4285L141.746 21.8425L142.52 20.6355L148.73 28.4285H147.043ZM155.34 28.6628C154.512 28.6628 153.75 28.5105 153.055 28.2058C152.367 27.9011 151.766 27.4714 151.25 26.9167C150.742 26.3621 150.348 25.7058 150.066 24.948C149.793 24.1824 149.656 23.3464 149.656 22.4402V21.9363C149.656 20.9597 149.801 20.0769 150.09 19.2878C150.379 18.4988 150.777 17.823 151.285 17.2605C151.793 16.698 152.371 16.2683 153.02 15.9714C153.676 15.6667 154.363 15.5144 155.082 15.5144C155.887 15.5144 156.602 15.6589 157.227 15.948C157.852 16.2292 158.375 16.6316 158.797 17.155C159.227 17.6707 159.551 18.2839 159.77 18.9949C159.988 19.698 160.098 20.4753 160.098 21.3269V22.1824H150.5V20.9871H158.703V20.823C158.688 20.1121 158.543 19.448 158.27 18.8308C158.004 18.2058 157.605 17.698 157.074 17.3074C156.543 16.9167 155.879 16.7214 155.082 16.7214C154.488 16.7214 153.941 16.8464 153.441 17.0964C152.949 17.3464 152.523 17.7058 152.164 18.1746C151.812 18.6355 151.539 19.1863 151.344 19.8269C151.156 20.4597 151.062 21.1628 151.062 21.9363V22.4402C151.062 23.1433 151.164 23.7996 151.367 24.4089C151.578 25.0105 151.875 25.5417 152.258 26.0027C152.648 26.4636 153.109 26.823 153.641 27.0808C154.172 27.3386 154.758 27.4675 155.398 27.4675C156.148 27.4675 156.812 27.3308 157.391 27.0574C157.969 26.7761 158.488 26.3347 158.949 25.7332L159.828 26.4128C159.555 26.8191 159.211 27.1941 158.797 27.5378C158.391 27.8816 157.902 28.155 157.332 28.3582C156.762 28.5613 156.098 28.6628 155.34 28.6628ZM167.656 15.7488V16.8972H161.305V15.7488H167.656ZM163.637 12.491H165.031V25.3464C165.031 25.9324 165.109 26.3738 165.266 26.6707C165.422 26.9675 165.625 27.1667 165.875 27.2683C166.125 27.3699 166.395 27.4207 166.684 27.4207C166.895 27.4207 167.098 27.4089 167.293 27.3855C167.488 27.3542 167.664 27.323 167.82 27.2917L167.879 28.4753C167.707 28.53 167.484 28.573 167.211 28.6042C166.938 28.6433 166.664 28.6628 166.391 28.6628C165.852 28.6628 165.375 28.5652 164.961 28.3699C164.547 28.1667 164.223 27.823 163.988 27.3386C163.754 26.8464 163.637 26.1785 163.637 25.3347V12.491Z" fill="white"/>
    </g>
    <defs>
        <clipPath id="clip0_1_1000">
            <rect width="168" height="40" fill="white"/>
        </clipPath>
    </defs>
</svg>
