<svg width="409" height="409" viewBox="0 0 409 409" fill="none" xmlns="http://www.w3.org/2000/svg">
<path d="M284.84 182.513C272.434 189.541 260.343 196.413 247.781 203.285C236.318 177.672 225.012 152.527 213.549 126.602C210.879 132.536 208.682 137.69 206.326 143C195.648 167.364 184.971 191.572 174.292 215.936C170.209 225.306 165.97 234.677 161.731 244.047C161.259 245.14 160.318 246.233 159.375 246.703C133.937 258.104 108.498 269.661 81.647 277.47C69.5559 281.062 57.1509 283.873 44.4317 284.654C37.5225 285.122 30.7704 284.809 24.3323 282.468C15.5388 279.343 12.5553 272.784 16.01 264.038C18.8364 257.01 23.8612 251.543 29.2001 246.39C42.7045 233.739 58.7211 224.994 75.2089 217.185C84.7875 212.655 94.6804 208.751 104.416 204.534C104.573 204.847 104.731 205.003 104.731 205.315C103.788 205.783 103.003 206.253 102.06 206.721C87.9278 213.28 74.4238 220.621 62.1757 230.304C58.2501 233.427 54.6385 237.175 51.3409 241.08C49.4566 243.266 47.5723 246.078 49.2995 249.201C50.8699 252.168 54.1673 252.481 57.1509 252.481C65.4733 252.794 73.4816 250.919 81.1759 248.264C93.738 243.735 106.144 238.894 118.548 233.896C120.118 233.271 121.375 231.24 122.16 229.523C130.796 210.469 139.119 191.26 147.755 172.205C159.061 146.905 170.209 121.604 181.516 96.3031C186.069 86.3078 192.351 78.1866 203.5 74.7506C219.516 69.7529 235.376 75.8438 243.385 90.837C248.567 100.52 252.648 110.671 257.203 120.823C266.153 140.657 275.104 160.493 283.897 180.483C284.211 180.795 284.368 181.42 284.84 182.513Z" fill="white"/>
<path d="M295.496 145.369C312.119 138.307 328.585 132.167 345.679 128.33C353.833 126.487 362.301 125.106 370.77 124.338C375.474 123.878 380.649 124.338 385.197 125.413C393.194 127.255 396.175 132.935 393.352 140.61C390.999 147.211 386.608 152.585 381.904 157.803C368.887 171.926 353.519 183.44 337.681 194.338C325.92 202.475 313.687 210.15 301.613 217.825C297.535 220.436 297.535 220.282 299.574 224.734C313.687 255.589 327.645 286.291 341.757 317.147C343.327 320.677 345.052 324.362 346.777 328.199C345.521 328.199 344.581 328.352 343.796 328.352C330.31 328.352 316.824 328.352 303.338 328.352C300.828 328.352 299.887 327.432 298.946 325.436C286.558 297.804 274.169 270.327 261.78 242.848C261.623 242.388 261.153 241.927 260.839 241.313C202.502 273.704 141.97 301.489 80.3397 328.66C80.9669 327.279 81.1238 326.357 81.5942 325.591C87.3962 312.849 93.0422 300.108 99.0013 287.52C99.7852 285.984 101.196 284.449 102.765 283.835C135.54 269.559 168.629 255.896 200.463 239.932C232.141 223.966 264.132 208.309 294.398 189.887C308.199 181.444 321.528 172.08 334.701 162.716C339.406 159.339 343.013 154.733 346.933 150.589C348.188 149.206 348.972 147.365 349.599 145.677C350.541 142.759 349.599 140.15 346.463 139.075C343.954 138.154 341.288 137.541 338.779 137.541C325.135 137.079 312.119 140.763 299.26 144.755C298.476 145.062 297.692 145.369 296.907 145.522C296.751 145.522 296.437 145.522 295.496 145.369Z" fill="#FBD508"/>
</svg>
