<svg xmlns:xlink="http://www.w3.org/1999/xlink" xmlns="http://www.w3.org/2000/svg" width="39.27" height="31.402" viewBox="0 0 39.27 31.402"><path id="path420" d="M239.8 263.486l3.013-4.445 2.321 3.427-.686 1.018zm-8.8 19.968h-5.017l-13.457-19.987H217.3L224.59 274.3l1.286-1.868 4.8-.014-.015.023-3.671 5.424 1.531 2.274 6.942-10.245h-3.078v.006h-7.748l-4.328-6.433h4.812l1.725 2.511h15.933zm-15.458-26.421h25.621l-4.375 6.453-4.9-.019 1.662-2.49H212.892zm27.231-2.49h-28.57v.018l-5.336 7.94 15.791 23.444h7.668l15.811-23.481z" transform="translate(-208.873 -254.543)" fill="#fff"/></svg>