<svg xmlns:xlink="http://www.w3.org/1999/xlink" xmlns="http://www.w3.org/2000/svg" width="201.476" height="31.402" viewBox="0 0 201.476 31.402"><div xmlns="" id="in-page-channel-node-id" data-channel-name="in_page_channel_bLSVK2"/><g id="Group_6694" data-name="Group 6694" transform="translate(-208.873 -254.543)"><path id="path420" d="M239.8 263.486l3.013-4.445 2.321 3.427-.686 1.018zm-8.8 19.968h-5.017l-13.457-19.987H217.3L224.59 274.3l1.286-1.868 4.8-.014-.015.023-3.671 5.424 1.531 2.274 6.942-10.245h-3.078v.006h-7.748l-4.328-6.433h4.812l1.725 2.511h15.933zm-15.458-26.421h25.621l-4.375 6.453-4.9-.019 1.662-2.49H212.892zm27.231-2.49h-28.57v.018l-5.336 7.94 15.791 23.444h7.668l15.811-23.481z" transform="translate(0 0)" fill="#fff"/><g id="g426" transform="translate(254.423 260.898)"><g id="g432"><path id="path434" d="M327.164 282.924H313.33v-2.848h13.834q.948.0.948 1.423t-.948 1.425M313.33 272.886h13.5q.949.0.95 1.423t-.95 1.423h-13.5zm16.827 4.89a4.827 4.827.0 001.934-4.086 5.154 5.154.0 00-1.314-3.578 5.065 5.065.0 00-3.942-1.605H308.95v18.8h18.214a5.052 5.052.0 005.292-5.182 4.763 4.763.0 00-2.3-4.344" transform="translate(-308.95 -268.506)" fill="#fff"/><path id="path436" d="M366.328 268.506h4.38v18.8h-4.38z" transform="translate(-340.212 -268.506)" fill="#fff"/><path id="path438" d="M402.414 272.886h-8.469V287.3h-4.38V272.886H381.1v-4.38h21.315z" transform="translate(-348.26 -268.506)" fill="#fff"/><path id="path440" d="M453.764 281.5a6.052 6.052.0 01-1.423 4.052 4.923 4.923.0 01-3.868 1.753H432.265v-4.38h16.207q.911.0.912-1.425t-.912-1.423h-11.79a4.919 4.919.0 01-3.869-1.752 5.826 5.826.0 01-1.459-4.014 6.016 6.016.0 011.5-4.089 4.857 4.857.0 013.832-1.715h16.206v4.38H436.682q-.911.0-.912 1.423.0 1.386.912 1.387h11.79a4.921 4.921.0 013.869 1.751 6.054 6.054.0 011.423 4.051" transform="translate(-375.642 -268.506)" fill="#fff"/><path id="path442" d="M536.113 268.506h4.38v18.8h-4.38z" transform="translate(-432.719 -268.506)" fill="#fff"/><path id="path444" d="M572.879 287.3H568.5l-11.277-12.664V287.3h-4.38v-18.8h4.38L568.5 281.063V268.506h4.38z" transform="translate(-441.834 -268.506)" fill="#fff"/><path id="path446" d="M624.7 281.5a6.052 6.052.0 01-1.423 4.052 4.922 4.922.0 01-3.868 1.753h-16.2v-4.38h16.2q.914.0.912-1.425t-.912-1.423H607.622a4.919 4.919.0 01-3.868-1.752 5.819 5.819.0 01-1.462-4.014 6.013 6.013.0 011.5-4.089 4.858 4.858.0 013.832-1.715h16.2v4.38h-16.2q-.913.0-.912 1.423.0 1.386.912 1.387h11.789a4.919 4.919.0 013.868 1.751A6.053 6.053.0 01624.7 281.5" transform="translate(-468.777 -268.506)" fill="#fff"/><path id="path448" d="M498.4 277.886l8.7-9.38h-5.984l-6.61 7.186v.021H490.17v-7.208h-4.38v18.8h4.38v-7.186h4.339l6.61 7.186H507.1l-8.7-9.38z" transform="translate(-405.301 -268.506)" fill="#fff"/></g></g></g></svg>