<svg data-v-aec83216="" width="74" height="40" viewBox="0 0 74 40" version="1.1" xmlns="http://www.w3.org/2000/svg" xmlns:xlink="http://www.w3.org/1999/xlink" class="c-nav-logo"><title>Logo_BUFF</title><defs><linearGradient x1="0%" y1="44.8550736%" x2="100%" y2="55.1449264%" id="linearGradient-1"><stop stop-color="#E6D3A4" offset="0%"></stop><stop stop-color="#C9A86B" offset="100%"></stop></linearGradient><linearGradient x1="0%" y1="49.5062565%" x2="100%" y2="50.4937435%" id="linearGradient-2"><stop stop-color="#E6D3A4" offset="0%"></stop><stop stop-color="#C9A86B" offset="100%"></stop></linearGradient><linearGradient x1="0%" y1="44.8550736%" x2="100%" y2="55.1449264%" id="linearGradient-1"><stop stop-color="#E6D3A4" offset="0%"></stop><stop stop-color="#C9A86B" offset="100%"></stop></linearGradient><linearGradient x1="0%" y1="49.5062565%" x2="100%" y2="50.4937435%" id="linearGradient-2"><stop stop-color="#E6D3A4" offset="0%"></stop><stop stop-color="#C9A86B" offset="100%"></stop></linearGradient></defs><g id="Logo_BUFF" stroke="none" stroke-width="1" fill="none" fill-rule="evenodd"><g id="Group-3" fill-rule="nonzero" fill="none"><path d="M54.1592799,0 L54.2314075,0.0073505773 C54.3926964,0.0410868786 54.5013785,0.186953111 54.4829902,0.361689547 L54.4829902,0.361689547 L54.2548069,2.53193534 L54.2398205,2.60483285 C54.1888182,2.7696561 54.0299559,2.89362489 53.8551562,2.89362489 L53.8551562,2.89362489 L44.2699039,2.89362489 L44.1210455,2.90027681 C43.2836273,2.97512259 42.5603239,3.67231913 42.4710776,4.52136349 L42.4710776,4.52136349 L41.9641624,9.34457201 L42.2180453,9.25810437 C42.6452936,9.12544852 43.0923918,9.05070565 43.5488217,9.04330572 L43.5488217,9.04330572 L43.6235324,9.04272699 L53.2088751,9.04272699 L53.2809989,9.05007382 C53.4422717,9.0837938 53.5508945,9.22959871 53.5325853,9.40439845 L53.5325853,9.40439845 L53.304402,11.5746623 L53.2894156,11.6475339 C53.2384133,11.8123139 53.079551,11.9363519 52.9047513,11.9363519 L52.9047513,11.9363519 L43.3194267,11.9363519 L43.1705796,11.9430038 C42.3332224,12.0178496 41.60992,12.7150461 41.5206908,13.5640905 L41.5206908,13.5640905 L40.5132808,23.1493427 L40.4982556,23.2222135 C40.447168,23.38699 40.2882602,23.5110142 40.1135396,23.5110142 L40.1135396,23.5110142 L37.9432757,23.5110142 L37.8711474,23.5036637 C37.7098553,23.4699276 37.6011613,23.3240634 37.6195655,23.1493427 L37.6195655,23.1493427 L39.5774527,4.52136349 L39.6053577,4.30447859 C39.9666287,1.9328144 42.1049699,0.0393537904 44.4992265,0.000560646831 L44.4992265,0.000560646831 L54.1592799,0 Z M72.9680949,0 L73.0402178,0.0073505773 C73.2014859,0.0410868786 73.310085,0.186953111 73.2916967,0.361689547 L73.2916967,0.361689547 L73.0636219,2.53193534 L73.0486353,2.60483285 C72.9976317,2.7696561 72.8387596,2.89362489 72.6638807,2.89362489 L72.6638807,2.89362489 L63.0786285,2.89362489 L62.9297843,2.90027681 C62.0924423,2.97512259 61.3691389,3.67231913 61.2798926,4.52136349 L61.2798926,4.52136349 L60.772887,9.34457201 L61.0268075,9.25810437 C61.454106,9.12544852 61.9011917,9.05070565 62.3575462,9.04330572 L62.3575462,9.04330572 L62.4323473,9.04272699 L72.01769,9.04272699 L72.0898139,9.05007382 C72.2510867,9.0837938 72.3597095,9.22959871 72.3414003,9.40439845 L72.3414003,9.40439845 L72.113217,11.5746623 L72.0982009,11.6475339 C72.0471393,11.8123139 71.8882869,11.9363519 71.7135663,11.9363519 L71.7135663,11.9363519 L62.1282417,11.9363519 L61.9793946,11.9430038 C61.1420374,12.0178496 60.418735,12.7150461 60.3295058,13.5640905 L60.3295058,13.5640905 L59.3220958,23.1493427 L59.3070446,23.2222135 C59.2559137,23.38699 59.0970752,23.5110142 58.9223546,23.5110142 L58.9223546,23.5110142 L56.7520907,23.5110142 L56.6799624,23.5036637 C56.5186703,23.4699276 56.4099763,23.3240634 56.4283804,23.1493427 L56.4283804,23.1493427 L58.3862677,4.52136349 L58.4141712,4.30447859 C58.7754266,1.9328144 60.9137822,0.0393537904 63.3079511,0.000560646831 L63.3079511,0.000560646831 L72.9680949,0 Z M12.4567591,0.000560646831 L12.6636904,0.00864537892 C14.9895743,0.153055404 16.6462228,2.07896164 16.4354165,4.44732194 L16.4354165,4.44732194 L16.4282185,4.52136349 L16.1240043,7.41498838 L16.0905015,7.66772834 C15.9162943,8.75531318 15.3684965,9.74039513 14.5946321,10.4895394 L14.5946321,10.4895394 L14.7306094,10.6647228 C15.2986067,11.4411353 15.5875389,12.438924 15.4815211,13.5283899 L15.4815211,13.5283899 L15.4777232,13.5640905 L14.9074549,18.9896507 L14.8795514,19.2065372 C14.5182959,21.5782179 12.3799382,23.471678 9.98569915,23.5104536 L9.98569915,23.5104536 L9.91098844,23.5110142 L0.325754257,23.5110142 L0.253594785,23.5036637 C0.0922505033,23.4699276 -0.0163623864,23.3240634 0.00202592539,23.1493427 L0.00202592539,23.1493427 L2.39707301,0.361689547 L2.41208858,0.288812806 C2.46314824,0.124024178 2.62199865,0 2.7968142,0 L2.7968142,0 L12.4567591,0.000560646831 Z M23.7757846,0 L23.847944,0.0073505773 C24.0092883,0.0410868786 24.1179012,0.186953111 24.0995129,0.361689547 L24.0995129,0.361689547 L22.1416076,18.9896507 L22.1390575,19.0165437 L22.1325694,19.1611701 C22.1322666,19.9708351 22.7440638,20.6037781 23.5716549,20.617118 L23.5716549,20.617118 L29.0239091,20.6173893 L29.1727535,20.6107374 C30.0100972,20.5358916 30.7334157,19.8386951 30.822645,18.9896507 L30.822645,18.9896507 L32.7805503,0.361689547 L32.7955665,0.288812806 C32.8466281,0.124024178 33.0054805,0 33.1802011,0 L33.1802011,0 L35.350465,0 L35.4225925,0.0073505773 C35.5838814,0.0410868786 35.6925635,0.186953111 35.6741752,0.361689547 L35.6741752,0.361689547 L33.7162699,18.9896507 L33.6883664,19.2065372 C33.3271109,21.5782179 31.1887532,23.471678 28.7945141,23.5104536 L28.7945141,23.5104536 L28.719713,23.5110142 L23.2941528,23.5110142 L23.219442,23.5104536 L23.0125032,23.5023703 C20.6865365,23.3579758 19.0298905,21.43205 19.2407847,19.0636018 L19.2407847,19.0636018 L19.2479827,18.9896507 L21.205888,0.361689547 L21.2209033,0.288812806 C21.2719615,0.124024178 21.4308001,0 21.6055207,0 L21.6055207,0 L23.7757846,0 Z M11.1541414,11.9365327 L4.43591043,11.9363519 L4.36223613,11.9437024 C4.19384861,11.9774385 4.05447843,12.1233027 4.03616924,12.2980233 L4.03616924,12.2980233 L3.19986502,20.2556274 C3.17874129,20.4553986 3.32369563,20.6173893 3.52348484,20.6173893 L3.52348484,20.6173893 L10.2151122,20.6173893 L10.3639537,20.6107374 C11.2012823,20.5358916 11.9246018,19.8386951 12.0138481,18.9896507 L12.0138481,18.9896507 L12.5841164,13.5640905 L12.5867568,13.5371071 L12.5932413,13.3924807 C12.5935201,12.5828157 11.9816471,11.9498727 11.1541414,11.9365327 L11.1541414,11.9365327 Z M12.1045463,2.89389617 L5.38631532,2.89362489 L5.31264473,2.90097543 C5.14427329,2.93471149 5.00496244,3.08057574 4.98657413,3.25529635 L4.98657413,3.25529635 L4.41630587,8.68105552 C4.39539917,8.88071814 4.54026308,9.04272699 4.74001612,9.04272699 L4.74001612,9.04272699 L11.4316435,9.04272699 L11.5804878,9.03607506 C12.4178317,8.96122929 13.1411511,8.26403275 13.2303975,7.41498838 L13.2303975,7.41498838 L13.5345032,4.52136349 L13.5370532,4.4943801 L13.5435547,4.349767 C13.543925,3.54016774 12.932052,2.90713367 12.1045463,2.89389617 L12.1045463,2.89389617 Z" id="Combined-Shape" fill="url(&quot;#linearGradient-1&quot;)"></path><path d="M3.73711445,32.3092019 C3.79842392,32.3092019 3.85354361,32.3449506 3.87887862,32.3997134 L3.88457821,32.4137906 L5.56887509,37.2332267 L7.3037354,32.4124424 C7.32259378,32.3600346 7.36759829,32.3223991 7.42091925,32.3120594 L7.43565413,32.3099257 L7.45072103,32.3092019 L8.96300901,32.3092019 C9.04419674,32.3092019 9.11091665,32.3710731 9.11848513,32.4501846 L9.11920013,32.4652091 L9.11920013,38.9988259 C9.11920013,39.0799181 9.05725597,39.1465594 8.97805125,39.154119 L8.96300901,39.1548331 L7.9339373,39.1548331 C7.85274867,39.1548331 7.78602837,39.0929606 7.77846096,39.0138482 L7.77774618,38.9988235 L7.77779742,35.7225282 L7.77862561,35.5723959 L7.78130431,35.3534566 L7.78449392,35.175174 L7.79032044,34.9186841 L7.80013211,34.5678744 L7.80344938,34.4602495 L6.1480243,39.0516856 C6.12914307,39.1040527 6.08415239,39.1416497 6.03085821,39.1519786 L6.01613094,39.1541101 L6.00107219,39.1548331 L5.05701076,39.1548331 C4.99561435,39.1548331 4.94043496,39.1189845 4.91514797,39.0641083 L4.90946268,39.0500026 L3.3297192,34.5062197 L3.33467298,34.6383503 C3.34553504,34.9448916 3.35232467,35.243347 3.3550406,35.533719 L3.35605909,35.6782314 L3.35639859,35.8213967 L3.35639859,38.9988259 C3.35639859,39.0799181 3.29445444,39.1465594 3.21524972,39.154119 L3.20020747,39.1548331 L2.22930069,39.1548331 C2.14811295,39.1548331 2.08139305,39.0929619 2.07382457,39.0138504 L2.07310957,38.9988259 L2.07310957,32.4652091 C2.07310957,32.384117 2.13505373,32.3174756 2.21425845,32.309916 L2.22930069,32.3092019 L3.73711445,32.3092019 Z M20.096914,32.2823881 C20.1571236,32.2823881 20.2114809,32.3168845 20.2374004,32.370209 L20.2432747,32.3839233 L22.6906757,38.9443538 C22.7271203,39.0420461 22.6593224,39.1457996 22.5577494,39.1542762 L22.544315,39.1548331 L21.4078619,39.1548331 C21.3470464,39.1548331 21.2922675,39.1196494 21.2666647,39.0655318 L21.2608852,39.0516174 L20.6447544,37.3403517 L18.3640516,37.3403517 L17.7610394,39.0506534 C17.7424138,39.1034725 17.6972708,39.1414957 17.6436799,39.1519449 L17.6288683,39.1541015 L17.6137193,39.1548331 L16.4862146,39.1548331 C16.3818379,39.1548331 16.3081724,39.0551501 16.3356856,38.9571223 L16.3398539,38.9443538 L18.7872549,32.3839233 C18.8082779,32.3275696 18.8596209,32.2887383 18.9186982,32.2830977 L18.9336156,32.2823881 L20.096914,32.2823881 Z M31.9205677,32.3092019 L31.9826697,32.3094904 C32.8270406,32.3172939 33.4636167,32.4834929 33.8905673,32.8158715 C34.3368248,33.1632804 34.5592355,33.6859838 34.5592355,34.3689853 C34.5592355,35.1629199 34.1809033,35.7575796 33.4421394,36.1369685 L33.4014859,36.1574489 L33.3618354,36.1765375 L35.1118744,38.9148854 C35.1732276,39.0108873 35.1140458,39.1344511 35.0073047,39.1525749 L34.9937197,39.1542816 L34.9802194,39.1548331 L33.7632303,39.1548331 C33.7138273,39.1548331 33.667688,39.1315204 33.6383832,39.0925741 L33.629257,39.0790236 L32.1087661,36.5449226 L31.2975094,36.5449226 L31.2975257,38.9988259 C31.2975257,39.0748498 31.2430826,39.1381728 31.1710145,39.1520201 L31.1563768,39.154119 L31.1413345,39.1548331 L30.0719948,39.1548331 C29.9908071,39.1548331 29.9240872,39.0929619 29.9165187,39.0138504 L29.9158037,38.9988259 L29.9158037,32.4652091 C29.9158037,32.384117 29.9777479,32.3174756 30.0569526,32.309916 L30.0719948,32.3092019 L31.9205677,32.3092019 Z M43.6622493,32.3092019 C43.743437,32.3092019 43.8101569,32.3710731 43.8177254,32.4501846 L43.8184404,32.4652091 L43.8184143,35.1504257 L43.9176315,35.0319618 C44.0010448,34.9327874 44.0842784,34.8347782 44.1672716,34.738005 L44.2915737,34.5937809 L44.4154696,34.4514638 L46.1827884,32.3644603 C46.2091679,32.333309 46.246566,32.3138768 46.2868261,32.3099431 L46.3020419,32.3092019 L47.519031,32.3092019 C47.6476274,32.3092019 47.7192555,32.4544631 47.6463397,32.5556625 L47.6379702,32.566328 L46.2495849,34.1917369 L45.5167463,35.0441339 L45.259746,35.3408585 L47.7148844,38.9104898 C47.7808969,39.0064693 47.7219137,39.1345258 47.6127503,39.1526627 L47.5994146,39.1543024 L47.5861444,39.1548331 L46.3467841,39.1548331 C46.3006913,39.1548331 46.2572339,39.13452 46.2277301,39.0998118 L46.2184279,39.0877174 L44.2609559,36.2678537 L43.8184143,36.6283345 L43.8184404,38.9988259 C43.8184404,39.0748498 43.7639973,39.1381728 43.6919292,39.1520201 L43.6772915,39.154119 L43.6622493,39.1548331 L42.5929095,39.1548331 C42.5117218,39.1548331 42.4450019,39.0929619 42.4374334,39.0138504 L42.4367184,38.9988259 L42.4367184,32.4652091 C42.4367184,32.384117 42.4986626,32.3174756 42.5778673,32.309916 L42.5929095,32.3092019 L43.6622493,32.3092019 Z M58.8140081,32.3092019 C58.8951959,32.3092019 58.9619158,32.3710731 58.9694843,32.4501846 L58.9701993,32.4652091 L58.9701993,33.3679387 C58.9701993,33.4490308 58.9082551,33.5156722 58.8290504,33.5232318 L58.8140081,33.5239459 L56.3393193,33.5238939 L56.3393193,34.9905702 L58.6484618,34.9905767 C58.7245753,34.9905767 58.787973,35.0449558 58.8018366,35.116939 L58.8039379,35.1315595 L58.8046529,35.146584 L58.8046529,36.0403756 C58.8046529,36.1214678 58.7427088,36.1881092 58.6635041,36.1956687 L58.6484618,36.1963829 L56.3393193,36.1962984 L56.3393193,37.9355714 L58.8140081,37.9356201 C58.8901216,37.9356201 58.9535193,37.9899991 58.9673829,38.0619824 L58.9694843,38.0766028 L58.9701993,38.0916274 L58.9701993,38.9988259 C58.9701993,39.0799181 58.9082551,39.1465594 58.8290504,39.154119 L58.8140081,39.1548331 L55.1138242,39.1548331 C55.0326365,39.1548331 54.9659166,39.0929619 54.9583481,39.0138504 L54.9576331,38.9988259 L54.9576331,32.4652091 C54.9576331,32.384117 55.0195773,32.3174756 55.098782,32.309916 L55.1138242,32.3092019 L58.8140081,32.3092019 Z M71.0754178,32.3092019 C71.1566055,32.3092019 71.2233255,32.3710731 71.2308939,32.4501846 L71.2316089,32.4652091 L71.2316089,33.3813455 C71.2316089,33.4624377 71.1696648,33.5290791 71.0904601,33.5366387 L71.0754178,33.5373528 L69.3076597,33.5373106 L69.3076923,38.9988259 C69.3076923,39.0748498 69.2532492,39.1381728 69.1811811,39.1520201 L69.1665434,39.154119 L69.1515011,39.1548331 L68.0821614,39.1548331 C68.0009737,39.1548331 67.9342538,39.0929619 67.9266853,39.0138504 L67.9259703,38.9988259 L67.925889,33.5373106 L66.1582448,33.5373528 C66.0821313,33.5373528 66.0187336,33.4829738 66.00487,33.4109906 L66.0027686,33.3963701 L66.0020536,33.3813455 L66.0020536,32.4652091 C66.0020536,32.384117 66.0639978,32.3174756 66.1432025,32.309916 L66.1582448,32.3092019 L71.0754178,32.3092019 Z M19.5196577,33.9513538 L19.5000801,34.0182229 C19.4526304,34.1772361 19.3995319,34.3412633 19.3408153,34.5102415 L19.3049114,34.612222 L18.7860801,36.1077903 L20.2537559,36.1077903 L19.7133379,34.5394312 L19.6964372,34.4934441 L19.6684163,34.4137511 L19.626158,34.2877367 L19.590766,34.1783424 L19.5386079,34.0125422 L19.5196577,33.9513538 Z M31.8482621,33.5239459 L31.2975094,33.5238939 L31.2975094,35.3480349 L31.8840559,35.3480934 C32.3492246,35.3480934 32.6764698,35.2643524 32.8673016,35.1067838 C33.0525409,34.9538329 33.146194,34.7243411 33.146194,34.404737 C33.146194,34.0842154 33.0480053,33.8686966 32.8533337,33.7390683 C32.649094,33.6030688 32.3301589,33.5293232 31.8968752,33.5242291 L31.8482621,33.5239459 Z" id="MARKET-Copy" fill="url(&quot;#linearGradient-2&quot;)"></path></g></g></svg>