<?xml version="1.0" encoding="iso-8859-1"?>
<!-- Generator: Adobe Illustrator 19.0.0, SVG Export Plug-In . SVG Version: 6.00 Build 0)  -->
<svg xmlns="http://www.w3.org/2000/svg" xmlns:xlink="http://www.w3.org/1999/xlink" version="1.1" id="Capa_1" x="0px" y="0px" viewBox="0 0 512.001 512.001" style="enable-background:new 0 0 512.001 512.001;" xml:space="preserve">
<polygon style="fill:#429DEA;" points="404.5,109.5 256,469.5 504.5,169.5 "/>
<polygon style="fill:#8BFFF4;" points="7.5,169.5 256,469.5 256,119.5 "/>
<polygon style="fill:#2DCEEA;" points="256,119.5 256,469.5 464.5,169.5 "/>
<g>
	<polygon style="fill:#17FFE9;" points="173.167,169.5 256,469.5 338.833,169.5 256,109.5  "/>
	<polygon style="fill:#17FFE9;" points="504.5,169.5 421.667,42.5 421.667,149.5 464.5,169.5  "/>
	<polygon style="fill:#17FFE9;" points="256,42.5 256,106.267 338.833,169.5 421.667,106 421.667,42.5  "/>
</g>
<polygon style="fill:#8BFFF4;" points="90.333,42.5 90.333,106 173.167,169.5 256,106.267 256,42.5 "/>
<g>
	<polygon style="fill:#FFFFFF;" points="338.833,169.5 256,42.5 173.167,169.5  "/>
	<polygon style="fill:#FFFFFF;" points="90.333,42.5 7.5,169.5 173.167,169.5  "/>
</g>
<polygon style="fill:#8BFFF4;" points="421.667,42.5 338.833,169.5 464.5,169.5 "/>
<path d="M510.782,165.403l-82.833-127c-0.179-0.269-0.357-0.509-0.55-0.738c-0.024-0.029-0.051-0.055-0.076-0.083  c-0.16-0.184-0.33-0.361-0.51-0.53c-0.066-0.062-0.134-0.12-0.201-0.18c-0.145-0.127-0.295-0.249-0.451-0.365  c-0.084-0.063-0.167-0.125-0.253-0.184c-0.049-0.034-0.093-0.071-0.143-0.104c-0.117-0.076-0.238-0.139-0.357-0.208  c-0.076-0.044-0.149-0.091-0.226-0.132c-0.518-0.276-1.055-0.483-1.603-0.627c-0.058-0.015-0.117-0.027-0.175-0.041  c-0.226-0.054-0.453-0.097-0.681-0.129c-0.072-0.01-0.144-0.02-0.216-0.028c-0.243-0.027-0.486-0.043-0.73-0.046  c-0.037,0-0.072-0.007-0.109-0.007h-0.105c-0.014,0-331.228,0-331.228,0c-0.043,0-0.084,0.007-0.127,0.008  c-0.235,0.004-0.469,0.018-0.703,0.044c-0.078,0.009-0.155,0.019-0.233,0.03c-0.221,0.032-0.442,0.074-0.661,0.126  c-0.064,0.015-0.128,0.028-0.191,0.044c-0.546,0.144-1.081,0.351-1.597,0.625c-0.079,0.042-0.153,0.09-0.23,0.134  c-0.118,0.068-0.239,0.131-0.354,0.207c-0.05,0.032-0.094,0.07-0.143,0.104c-0.086,0.059-0.17,0.121-0.253,0.184  c-0.156,0.117-0.306,0.239-0.451,0.365c-0.068,0.059-0.136,0.118-0.201,0.18c-0.18,0.169-0.35,0.346-0.51,0.53  c-0.025,0.028-0.052,0.054-0.076,0.083c-0.194,0.229-0.371,0.469-0.534,0.717C84.052,38.403,1.218,165.403,1.218,165.403  c-1.795,2.752-1.59,6.352,0.506,8.881l248.5,300c0.074,0.089,0.157,0.167,0.234,0.253c0.065,0.071,0.128,0.143,0.195,0.211  c0.248,0.253,0.508,0.492,0.787,0.705c0.029,0.022,0.061,0.041,0.091,0.062c0.259,0.192,0.53,0.364,0.81,0.52  c0.083,0.047,0.166,0.092,0.251,0.135c0.315,0.161,0.638,0.308,0.973,0.423c0.372,0.123,0.71,0.203,1.052,0.268  c0.094,0.018,0.187,0.033,0.282,0.047c0.363,0.054,0.729,0.091,1.101,0.091c0.372,0,0.738-0.037,1.101-0.091  c0.095-0.014,0.188-0.03,0.282-0.047c0.342-0.064,0.68-0.145,1.008-0.255c0.38-0.128,0.702-0.275,1.017-0.436  c0.085-0.044,0.168-0.089,0.251-0.135c0.28-0.157,0.552-0.328,0.81-0.52c0.029-0.022,0.061-0.04,0.091-0.062  c0.279-0.213,0.538-0.452,0.787-0.705c0.067-0.069,0.131-0.14,0.196-0.211c0.077-0.085,0.16-0.164,0.234-0.252l248.5-300  C512.372,171.754,512.577,168.155,510.782,165.403z M256,56.228L324.988,162H187.012L256,56.228z M173.166,155.771L104.179,50  h137.975L173.166,155.771z M269.846,50h137.975l-68.987,105.771L269.846,50z M90.334,56.228L159.321,162H44.7  c-4.142,0-7.5,3.358-7.5,7.5s3.358,7.5,7.5,7.5h122.757l20.512,74.287c0.918,3.325,3.936,5.506,7.225,5.506  c0.661,0,1.333-0.088,2-0.272c3.993-1.103,6.336-5.233,5.233-9.226L183.018,177h145.964L256,441.321l-45.588-165.108  c-1.102-3.993-5.233-6.334-9.226-5.233c-3.993,1.103-6.336,5.233-5.233,9.226l43.506,157.569L16.8,168.97L90.334,56.228z   M272.54,437.774L344.543,177H467.3c4.142,0,7.5-3.358,7.5-7.5s-3.358-7.5-7.5-7.5H352.679l68.987-105.771L495.2,168.97  L272.54,437.774z"/>
<g>
</g>
<g>
</g>
<g>
</g>
<g>
</g>
<g>
</g>
<g>
</g>
<g>
</g>
<g>
</g>
<g>
</g>
<g>
</g>
<g>
</g>
<g>
</g>
<g>
</g>
<g>
</g>
<g>
</g>
</svg>
