<svg xmlns:xlink="http://www.w3.org/1999/xlink" class="HeaderDesktop_logo__cJww_" viewBox="0 0 77 28" fill="none" xmlns="http://www.w3.org/2000/svg" width="122"  height="44" ><path d="M70.839 10.7999L68.9725 15.447L67.1061 10.7999H64.5444L67.6502 17.5554C67.8004 17.8698 67.6931 18.1194 67.2769 18.1194H64.928V20.0775H67.4785C68.7644 20.0775 69.3505 19.6313 69.6874 18.9161L73.2439 10.8166L70.839 10.7999Z" fill="#FFFFFF"></path><path d="M7.79696 16.1446C6.67709 16.1446 6.00984 15.447 6.00984 14.4517C6.00984 13.4565 6.67803 12.758 7.79696 12.758C8.64899 12.758 9.24999 13.1736 9.4665 13.8368H11.7716C11.5037 11.9121 9.97137 10.6506 7.79696 10.6506C5.40884 10.6506 3.7561 12.194 3.7561 14.4536C3.7561 16.7132 5.40884 18.2566 7.79696 18.2566C9.96764 18.2566 11.5205 16.9784 11.7874 15.0537H9.4833C9.26679 15.7123 8.66486 16.1446 7.79696 16.1446Z" fill="#FFFFFF"></path><path d="M35.355 10.7007C34.8927 10.7067 34.4365 10.8075 34.0152 10.9968C33.5938 11.1861 33.2163 11.4598 32.9063 11.8008C32.4723 11.119 31.7257 10.7007 30.4799 10.7007C30.072 10.696 29.6683 10.7823 29.2984 10.9533C28.9286 11.1242 28.602 11.3755 28.3428 11.6885V10.7999H26.1217V18.1194H28.3428V14.385C28.3428 13.1068 28.9774 12.7914 29.8285 12.7914C30.73 12.7914 31.2283 13.207 31.2283 14.385V18.1194H33.4494V14.385C33.4494 13.1068 34.084 12.7914 34.9351 12.7914C35.8375 12.7914 36.3349 13.207 36.3349 14.385V18.1194H38.556V14.385C38.5625 12.3295 37.8113 10.7007 35.355 10.7007Z" fill="#FFFFFF"></path><path d="M43.5273 10.6506C41.1392 10.6506 39.4864 12.194 39.4864 14.4536C39.4864 16.7132 41.1392 18.2566 43.5273 18.2566C45.9154 18.2566 47.5513 16.7132 47.5513 14.4536C47.5513 12.194 45.9145 10.6506 43.5273 10.6506ZM43.5273 16.1446C42.4074 16.1446 41.7402 15.447 41.7402 14.4517C41.7402 13.4565 42.4083 12.758 43.5273 12.758C44.6294 12.758 45.3004 13.4555 45.3004 14.4517C45.3004 15.448 44.6294 16.1446 43.5273 16.1446Z" fill="#FFFFFF"></path><path d="M52.601 10.7007C52.2414 10.6909 51.8841 10.7608 51.555 10.9051C51.2259 11.0495 50.9332 11.2648 50.6982 11.5355V10.7999H48.4771V18.1193H50.6982V14.385C50.6982 13.1068 51.3328 12.7914 52.1839 12.7914C53.0854 12.7914 53.5837 13.207 53.5837 14.385V18.1193H55.8048V14.385C55.8076 12.3295 55.0563 10.7007 52.601 10.7007Z" fill="#FFFFFF"></path><path d="M62.2711 15.7086C62.0228 16.1001 61.5086 16.2605 60.7648 16.2605C59.8634 16.2605 59.1784 15.7615 58.9535 14.999H64.7889V14.4518C64.7889 12.1941 63.152 10.6487 60.7648 10.6487C58.3777 10.6487 56.724 12.1922 56.724 14.4518C56.724 16.7113 58.3767 18.2548 60.7648 18.2548C62.692 18.2548 64.3111 17.266 64.6638 15.7114L62.2711 15.7086ZM60.7648 12.451C61.5581 12.451 62.2925 12.8684 62.5324 13.6411H58.9805C59.1961 12.8907 59.9595 12.451 60.7648 12.451Z" fill="#FFFFFF"></path><path d="M21.2354 15.2337L21.5107 15.2541C22.3291 17.8086 21.1766 20.8714 18.8239 22.094V22.1209C21.1402 21.9122 24.1564 19.5645 24.3337 15.947L24.6752 15.9015V15.3376C23.9791 14.9554 23.5236 13.3656 24.4989 12.5206C24.3327 10.4048 23.4098 8.29363 22.2358 6.81602L20.1323 5.59998L19.8122 6.27061C19.5316 6.42974 19.3047 6.66779 19.1599 6.9548C19.0151 7.24182 18.9589 7.56498 18.9984 7.88365C19.0992 8.65167 19.6517 9.12195 20.6652 9.275C21.1868 9.35199 21.3782 9.57367 21.4715 9.87142C21.5648 10.1859 21.5377 10.505 21.2848 10.6895L21.3259 10.8231C21.7822 10.8519 22.0184 11.1014 22.1135 11.4659C22.2265 11.8972 22.1901 12.2525 21.8336 12.4974L21.8494 12.6105C22.2713 12.7524 22.5027 13.1671 22.5158 13.5817C22.5298 14.0139 22.2087 14.4545 21.7272 14.641C21.5685 14.7022 21.0945 14.7996 21.0945 14.7996L21.2354 15.2337ZM20.7034 8.63405C20.0716 8.72124 19.6508 8.35578 19.5761 7.82057C19.494 7.22971 19.8019 6.76871 20.4337 6.68245C21.0403 6.59897 21.4864 6.96072 21.5685 7.54787C21.6469 8.08678 21.3147 8.5515 20.7034 8.63405Z" fill="#FF159A"></path><path d="M19.9373 15.7615C19.9373 14.4341 19.018 13.5863 17.3149 13.5863H15.0434C14.7765 13.5863 14.4956 13.412 14.4956 13.0799C14.4956 12.7812 14.7644 12.6254 15.0322 12.6254H19.7291V10.7999H15.2282C13.3618 10.7999 12.5396 11.7961 12.5396 13.0901C12.5396 14.2857 13.358 15.2819 15.2282 15.2819H17.4941C17.5625 15.2794 17.6307 15.291 17.6943 15.316C17.758 15.341 17.8157 15.3788 17.864 15.4271C17.9122 15.4754 17.9498 15.5331 17.9745 15.5965C17.9992 15.66 18.0104 15.7278 18.0074 15.7958C18.0062 15.8636 17.9913 15.9304 17.9636 15.9923C17.936 16.0543 17.896 16.1101 17.8462 16.1564C17.7964 16.2027 17.7378 16.2385 17.6738 16.2618C17.6097 16.2851 17.5416 16.2954 17.4735 16.2921H12.771V18.1194H17.313C19.018 18.1194 19.9373 17.2558 19.9373 15.7615Z" fill="#FFFFFF"></path></svg>