<svg width="145" height="29" viewBox="0 0 145 29" fill="none" xmlns="http://www.w3.org/2000/svg">
<path d="M34.9805 6.8457H41.83C43.4164 6.8457 44.8236 7.14384 46.0514 7.7401C47.2792 8.33637 48.2311 9.18224 48.9071 10.2777C49.5831 11.3732 49.921 12.6558 49.921 14.1257C49.921 15.5956 49.5831 16.8782 48.9071 17.9737C48.2311 19.0692 47.2792 19.915 46.0514 20.5113C44.8236 21.1076 43.4164 21.4057 41.83 21.4057H34.9805V6.8457ZM41.6644 18.1193C42.906 18.1193 43.8993 17.7657 44.6442 17.0585C45.403 16.3513 45.7824 15.3737 45.7824 14.1257C45.7824 12.8777 45.403 11.9001 44.6442 11.1929C43.8993 10.4857 42.906 10.1321 41.6644 10.1321H39.0777V18.1193H41.6644Z" fill="white"/>
<path d="M64.6335 21.4057L64.5921 13.6889L60.8673 19.9705H59.0463L55.3422 13.8969V21.4057H51.5553V6.8457H54.9283L60.0189 15.2489L64.9852 6.8457H68.3583L68.3996 21.4057H64.6335Z" fill="white"/>
<path d="M81.004 18.5769H74.8787L73.7406 21.4057H69.5606L75.9548 6.8457H79.99L86.4049 21.4057H82.1421L81.004 18.5769ZM79.8038 15.5401L77.9414 10.8809L76.079 15.5401H79.8038Z" fill="white"/>
<path d="M93.8987 17.5369H91.6638V21.4057H87.5665V6.8457H94.1884C95.4989 6.8457 96.6371 7.06757 97.6028 7.5113C98.5685 7.94117 99.3134 8.56517 99.8376 9.3833C100.362 10.1876 100.624 11.1374 100.624 12.2329C100.624 13.2868 100.376 14.2089 99.879 14.9993C99.3962 15.7758 98.6995 16.386 97.789 16.8297L100.914 21.4057H96.5267L93.8987 17.5369ZM96.4853 12.2329C96.4853 11.5534 96.2715 11.0265 95.8438 10.6521C95.4162 10.2777 94.7816 10.0905 93.94 10.0905H91.6638V14.3545H93.94C94.7816 14.3545 95.4162 14.1742 95.8438 13.8137C96.2715 13.4393 96.4853 12.9124 96.4853 12.2329Z" fill="white"/>
<path d="M108.472 16.1225L106.94 17.7657V21.4057H102.884V6.8457H106.94V12.8985L112.548 6.8457H117.059L111.141 13.2937L117.37 21.4057H112.61L108.472 16.1225Z" fill="white"/>
<path d="M130.596 18.2233V21.4057H118.966V6.8457H130.327V10.0281H123.022V12.4825H129.458V15.5609H123.022V18.2233H130.596Z" fill="white"/>
<path d="M136.474 10.1113H132.025V6.8457H145V10.1113H140.572V21.4057H136.474V10.1113Z" fill="white"/>
<path fill-rule="evenodd" clip-rule="evenodd" d="M5.07897 27.7064L8.80914 21.2652C8.85946 21.1783 8.95274 21.1247 9.05372 21.1247H15.7164C16.0878 21.1247 16.4311 20.9259 16.6172 20.6022C16.8625 20.1743 17.2365 19.5227 17.6542 18.7949C18.0667 18.0763 18.5219 17.2833 18.9379 16.5579C19.0948 16.2848 19.2461 16.0212 19.3875 15.7748C19.6441 15.3279 19.8682 14.9375 20.0341 14.6488C20.1264 14.4873 20.1733 14.3065 20.1733 14.1263C20.1733 13.9455 20.1264 13.7646 20.0341 13.6031C19.8682 13.3144 19.6441 12.9241 19.3875 12.4771C19.2461 12.2308 19.0948 11.9672 18.9379 11.694C18.429 10.8067 17.8615 9.81808 17.3851 8.98831C17.0778 8.45294 16.8084 7.9837 16.6172 7.65044C16.4311 7.32676 16.0878 7.12723 15.7164 7.12723H9.05371C8.95273 7.12723 8.85946 7.07367 8.80914 6.98678L5.07899 0.546215C4.97088 0.359554 5.10663 0.126681 5.32355 0.126671L19.7348 0.125977C20.1062 0.125977 20.4495 0.3255 20.6356 0.649187L28.212 13.6031C28.3043 13.7646 28.3512 13.9455 28.3512 14.1263C28.3512 14.3065 28.3043 14.4873 28.212 14.6488L20.6356 27.6035C20.4495 27.9265 20.1062 28.126 19.7348 28.126H5.32355C5.10663 28.126 4.97087 27.8931 5.07897 27.7064ZM3.69309 14.1227C3.69453 13.9386 3.64842 13.7537 3.55404 13.5876C3.18187 12.9322 2.51407 11.7557 1.8463 10.5792C1.17863 9.40293 0.510984 8.2267 0.138876 7.57133C-0.046292 7.24434 -0.046292 6.84195 0.138876 6.51568L3.68244 0.54117C3.79225 0.356034 4.06253 0.35754 4.17024 0.543889L11.7092 13.5876C11.8036 13.7544 11.8497 13.94 11.8482 14.1263C11.8497 14.3119 11.8036 14.4976 11.7092 14.6643L4.17024 27.7081C4.06253 27.8944 3.79225 27.8959 3.68244 27.7108L0.138876 21.7363C-0.046292 21.41 -0.046292 21.0076 0.138876 20.6814C0.88315 19.3698 2.80976 15.9752 3.55404 14.6643C3.64842 14.499 3.69453 14.3141 3.69309 14.1292V14.1263V14.1227Z" fill="#59ED90"/>
</svg>
