<svg width="319" height="77" viewBox="0 0 319 77" fill="none" xmlns="http://www.w3.org/2000/svg">
<path d="M123.113 49.1133V53H108.836V49.1133H123.113ZM110.203 24.5625V53H105.301V24.5625H110.203ZM136.137 24.5625V53H131.234V24.5625H136.137ZM161.191 45.6758C161.191 45.0898 161.1 44.569 160.918 44.1133C160.749 43.6576 160.443 43.2409 160 42.8633C159.557 42.4857 158.932 42.1211 158.125 41.7695C157.331 41.4049 156.315 41.0339 155.078 40.6562C153.724 40.2396 152.474 39.7773 151.328 39.2695C150.195 38.7487 149.206 38.1497 148.359 37.4727C147.513 36.7826 146.855 35.9948 146.387 35.1094C145.918 34.2109 145.684 33.1758 145.684 32.0039C145.684 30.8451 145.924 29.7904 146.406 28.8398C146.901 27.8893 147.598 27.069 148.496 26.3789C149.408 25.6758 150.482 25.1354 151.719 24.7578C152.956 24.3672 154.323 24.1719 155.82 24.1719C157.93 24.1719 159.746 24.5625 161.27 25.3438C162.806 26.125 163.984 27.1732 164.805 28.4883C165.638 29.8034 166.055 31.2552 166.055 32.8438H161.191C161.191 31.9062 160.99 31.0794 160.586 30.3633C160.195 29.6341 159.596 29.0612 158.789 28.6445C157.995 28.2279 156.986 28.0195 155.762 28.0195C154.603 28.0195 153.639 28.1953 152.871 28.5469C152.103 28.8984 151.53 29.3737 151.152 29.9727C150.775 30.5716 150.586 31.2487 150.586 32.0039C150.586 32.5378 150.71 33.026 150.957 33.4688C151.204 33.8984 151.582 34.3021 152.09 34.6797C152.598 35.0443 153.236 35.3893 154.004 35.7148C154.772 36.0404 155.677 36.3529 156.719 36.6523C158.294 37.1211 159.668 37.6419 160.84 38.2148C162.012 38.7747 162.988 39.4128 163.77 40.1289C164.551 40.8451 165.137 41.6589 165.527 42.5703C165.918 43.4688 166.113 44.4909 166.113 45.6367C166.113 46.8346 165.872 47.9154 165.391 48.8789C164.909 49.8294 164.219 50.6432 163.32 51.3203C162.435 51.9844 161.367 52.4987 160.117 52.8633C158.88 53.2148 157.5 53.3906 155.977 53.3906C154.609 53.3906 153.262 53.2083 151.934 52.8438C150.618 52.4792 149.421 51.9258 148.34 51.1836C147.259 50.4284 146.4 49.4909 145.762 48.3711C145.124 47.2383 144.805 45.9167 144.805 44.4062H149.707C149.707 45.3307 149.863 46.1185 150.176 46.7695C150.501 47.4206 150.951 47.9544 151.523 48.3711C152.096 48.7747 152.76 49.0742 153.516 49.2695C154.284 49.4648 155.104 49.5625 155.977 49.5625C157.122 49.5625 158.079 49.3997 158.848 49.0742C159.629 48.7487 160.215 48.293 160.605 47.707C160.996 47.1211 161.191 46.444 161.191 45.6758ZM183.453 38.9766V42.7266H173.121V38.9766H183.453ZM207.004 45.6758C207.004 45.0898 206.913 44.569 206.73 44.1133C206.561 43.6576 206.255 43.2409 205.812 42.8633C205.37 42.4857 204.745 42.1211 203.938 41.7695C203.143 41.4049 202.128 41.0339 200.891 40.6562C199.536 40.2396 198.286 39.7773 197.141 39.2695C196.008 38.7487 195.018 38.1497 194.172 37.4727C193.326 36.7826 192.668 35.9948 192.199 35.1094C191.73 34.2109 191.496 33.1758 191.496 32.0039C191.496 30.8451 191.737 29.7904 192.219 28.8398C192.714 27.8893 193.41 27.069 194.309 26.3789C195.22 25.6758 196.294 25.1354 197.531 24.7578C198.768 24.3672 200.135 24.1719 201.633 24.1719C203.742 24.1719 205.559 24.5625 207.082 25.3438C208.618 26.125 209.797 27.1732 210.617 28.4883C211.451 29.8034 211.867 31.2552 211.867 32.8438H207.004C207.004 31.9062 206.802 31.0794 206.398 30.3633C206.008 29.6341 205.409 29.0612 204.602 28.6445C203.807 28.2279 202.798 28.0195 201.574 28.0195C200.415 28.0195 199.452 28.1953 198.684 28.5469C197.915 28.8984 197.342 29.3737 196.965 29.9727C196.587 30.5716 196.398 31.2487 196.398 32.0039C196.398 32.5378 196.522 33.026 196.77 33.4688C197.017 33.8984 197.395 34.3021 197.902 34.6797C198.41 35.0443 199.048 35.3893 199.816 35.7148C200.585 36.0404 201.49 36.3529 202.531 36.6523C204.107 37.1211 205.48 37.6419 206.652 38.2148C207.824 38.7747 208.801 39.4128 209.582 40.1289C210.363 40.8451 210.949 41.6589 211.34 42.5703C211.73 43.4688 211.926 44.4909 211.926 45.6367C211.926 46.8346 211.685 47.9154 211.203 48.8789C210.721 49.8294 210.031 50.6432 209.133 51.3203C208.247 51.9844 207.18 52.4987 205.93 52.8633C204.693 53.2148 203.312 53.3906 201.789 53.3906C200.422 53.3906 199.074 53.2083 197.746 52.8438C196.431 52.4792 195.233 51.9258 194.152 51.1836C193.072 50.4284 192.212 49.4909 191.574 48.3711C190.936 47.2383 190.617 45.9167 190.617 44.4062H195.52C195.52 45.3307 195.676 46.1185 195.988 46.7695C196.314 47.4206 196.763 47.9544 197.336 48.3711C197.909 48.7747 198.573 49.0742 199.328 49.2695C200.096 49.4648 200.917 49.5625 201.789 49.5625C202.935 49.5625 203.892 49.3997 204.66 49.0742C205.441 48.7487 206.027 48.293 206.418 47.707C206.809 47.1211 207.004 46.444 207.004 45.6758ZM225.164 24.5625V53H220.262V24.5625H225.164ZM242.254 24.5625L230.73 38.2539L224.168 45.207L223.309 40.3438L227.996 34.5625L236.277 24.5625H242.254ZM236.98 53L227.625 39.5234L231.004 36.1836L242.801 53H236.98ZM254.77 24.5625V53H249.867V24.5625H254.77ZM287.422 24.5625V53H282.52L269.766 32.6289V53H264.863V24.5625H269.766L282.559 44.9727V24.5625H287.422ZM312.223 45.6758C312.223 45.0898 312.132 44.569 311.949 44.1133C311.78 43.6576 311.474 43.2409 311.031 42.8633C310.589 42.4857 309.964 42.1211 309.156 41.7695C308.362 41.4049 307.346 41.0339 306.109 40.6562C304.755 40.2396 303.505 39.7773 302.359 39.2695C301.227 38.7487 300.237 38.1497 299.391 37.4727C298.544 36.7826 297.887 35.9948 297.418 35.1094C296.949 34.2109 296.715 33.1758 296.715 32.0039C296.715 30.8451 296.956 29.7904 297.438 28.8398C297.932 27.8893 298.629 27.069 299.527 26.3789C300.439 25.6758 301.513 25.1354 302.75 24.7578C303.987 24.3672 305.354 24.1719 306.852 24.1719C308.961 24.1719 310.777 24.5625 312.301 25.3438C313.837 26.125 315.016 27.1732 315.836 28.4883C316.669 29.8034 317.086 31.2552 317.086 32.8438H312.223C312.223 31.9062 312.021 31.0794 311.617 30.3633C311.227 29.6341 310.628 29.0612 309.82 28.6445C309.026 28.2279 308.017 28.0195 306.793 28.0195C305.634 28.0195 304.671 28.1953 303.902 28.5469C303.134 28.8984 302.561 29.3737 302.184 29.9727C301.806 30.5716 301.617 31.2487 301.617 32.0039C301.617 32.5378 301.741 33.026 301.988 33.4688C302.236 33.8984 302.613 34.3021 303.121 34.6797C303.629 35.0443 304.267 35.3893 305.035 35.7148C305.803 36.0404 306.708 36.3529 307.75 36.6523C309.326 37.1211 310.699 37.6419 311.871 38.2148C313.043 38.7747 314.02 39.4128 314.801 40.1289C315.582 40.8451 316.168 41.6589 316.559 42.5703C316.949 43.4688 317.145 44.4909 317.145 45.6367C317.145 46.8346 316.904 47.9154 316.422 48.8789C315.94 49.8294 315.25 50.6432 314.352 51.3203C313.466 51.9844 312.398 52.4987 311.148 52.8633C309.911 53.2148 308.531 53.3906 307.008 53.3906C305.641 53.3906 304.293 53.2083 302.965 52.8438C301.65 52.4792 300.452 51.9258 299.371 51.1836C298.29 50.4284 297.431 49.4909 296.793 48.3711C296.155 47.2383 295.836 45.9167 295.836 44.4062H300.738C300.738 45.3307 300.895 46.1185 301.207 46.7695C301.533 47.4206 301.982 47.9544 302.555 48.3711C303.128 48.7747 303.792 49.0742 304.547 49.2695C305.315 49.4648 306.135 49.5625 307.008 49.5625C308.154 49.5625 309.111 49.3997 309.879 49.0742C310.66 48.7487 311.246 48.293 311.637 47.707C312.027 47.1211 312.223 46.444 312.223 45.6758Z" fill="white"/>
<path d="M36.8265 22.2768L25.3585 0L0 66.3459L14.2137 59.4853L26.0854 62.3103L34.646 72.9644L43.8526 77L52.413 72.9644L61.3773 62.3103L73.0068 59.4853L87.7051 66.3459L62.1042 0L50.5556 22.2768H36.8265Z" fill="black"/>
<path d="M75.4327 41.1813L60.1481 60.1502L51.0128 70.992L43.763 65.9405L36.5095 70.9867L27.3781 60.1502L12.0934 41.1813L25.6335 5.8114L35.45 24.6777H52.076L61.8927 5.8114L75.4327 41.1813Z" fill="#FF7200"/>
<path d="M31.8997 24.6776H21.7843L26.0713 13.4778L31.8997 24.6776Z" fill="#FF6700"/>
<path d="M65.7387 24.6776H55.6234L61.4509 13.4778L65.7387 24.6776Z" fill="#FF6700"/>
<path d="M27.3774 60.15L14.3947 56.9709L4.28015 61.5883L12.0927 41.181L27.3774 60.15Z" fill="#E5E6E8"/>
<path d="M83.2429 61.5883L73.1291 56.9709L60.1465 60.15L75.4312 41.181L83.2429 61.5883Z" fill="#E5E6E8"/>
<path d="M51.0127 70.9917L43.7945 74.3447L36.5094 70.9863L43.763 65.9402L51.0127 70.9917Z" fill="black"/>
<path d="M36.7566 27.7943L43.7629 45.3759L50.7693 27.7943H36.7566Z" fill="#FF6700"/>
<path d="M26.6693 40.8356H31.8046L36.7868 46.3923V50.4608L29.122 45.0256L26.6693 40.8356Z" fill="black"/>
<path d="M55.7191 40.8356L50.7371 46.3923V50.4608L58.4018 45.0248L60.8545 40.8356H55.7191Z" fill="black"/>
</svg>
