<svg width="155" height="36" viewBox="0 0 930 243" fill="none" xmlns="http://www.w3.org/2000/svg">
<g clip-path="url(#clip0_21686_156494)">
<path d="M114.946 0C114.946 0 114.893 3.75956 114.946 6.26429V11.3896H150.816H186.954L186.687 13.0981C186.525 13.9519 186.097 15.9461 185.616 17.6539C184.598 21.8095 182.456 29.2735 181.333 34.7384C180.583 38.4955 180.315 39.4083 179.191 39.8637C178.442 40.1484 152.144 40.4902 113.341 40.4332H48.5605L45.8835 41.5722C38.3905 45.2723 33.4622 52.739 30.8931 65.4904C29.8227 70.6139 29.8227 84.285 30.8931 89.4085C33.7298 103.583 37.9086 110.025 45.3481 113.896L47.4897 115.035L90.3191 115.605C113.869 115.662 133.471 115.947 133.685 116.174C133.898 116.402 133.738 118.225 133.149 120.73C132.507 123.235 131.436 127.337 131.008 129.842C130.098 135.534 129.562 139.524 128.866 142.37L128.331 144.648H84.4304C51.4071 144.478 39.3511 144.022 37.3178 143.509C32.9288 142.314 25.6454 138.326 21.7918 134.967C7.92968 122.728 0.376953 102.383 0.376953 77.4495C0.376953 64.3566 1.93066 53.8121 5.73069 43.8501C11.4575 28.8786 21.742 18.1076 34.6407 13.0981C37.1137 11.9709 39.7757 11.3896 42.4657 11.3896H63.5511H88.7136V5.69481V0H101.562C113.444 0 114.946 0 114.946 0Z" fill="#005BBB"/>
<path d="M88.7128 208.999C88.7128 208.999 88.7662 204.67 88.7128 202.165V197.61L53.3777 197.666H41.5995V246.072H12.1543V203.93C12.3149 203.076 12.1543 193.11 12.1543 193.11V176.88V168.623C12.1543 168.623 68.6473 167.996 90.3183 167.996L138.502 168.566L141.179 167.427C148.672 163.727 153.601 156.26 156.169 143.509C157.239 138.385 157.239 124.713 156.169 119.591C153.332 105.416 149.154 98.9737 141.714 95.1029L139.573 93.9639L96.7431 93.3944C73.1934 93.3375 62.9125 92.8249 62.9125 92.8249L60.2361 84.5673L56.4883 71.1841L55.5193 67.198L54.8821 64.3506H102.632C135.655 64.5214 147.711 64.9773 149.745 65.4896C154.133 66.685 161.417 70.6729 165.27 74.0317C179.133 86.271 186.686 106.616 186.686 131.55C186.686 144.642 185.132 155.187 181.332 165.149C176.855 176.853 169.593 185.989 160.474 191.813C155.376 195.069 149.499 196.642 143.588 197.324C135.793 198.226 123.512 197.61 123.512 197.61H114.945V202.734V208.999H102.096C90.2146 208.999 88.7128 208.999 88.7128 208.999Z" fill="#FFD500"/>
<path d="M244.307 62.8198C243.564 62.9992 242.282 63.2865 241.438 63.502C236.645 64.579 231.751 66.482 229.455 68.1336C225.911 70.6831 222.907 74.5961 221.86 78.0791C221.624 78.8692 221.32 79.5511 221.185 79.6586C220.544 80.1615 219.734 85.6548 219.599 90.6812C219.397 96.3181 220.004 102.171 221.017 104.612C221.253 105.187 221.86 106.623 222.333 107.807C223.413 110.393 227.025 114.307 229.455 115.527C230.4 115.958 231.751 116.64 232.493 116.999C236.037 118.759 241.708 120.195 249.876 121.488C251.834 121.81 254.399 122.277 255.614 122.564C256.83 122.851 258.989 123.282 260.441 123.498C261.859 123.714 263.04 124.072 263.04 124.216C263.04 124.395 263.243 124.539 263.479 124.539C264.559 124.539 266.82 126.585 267.597 128.273C268.306 129.781 268.441 130.571 268.441 133.443C268.441 137.177 267.799 139.224 266.145 140.875C263.952 143.101 264.761 143.03 242.889 143.137C231.886 143.173 222.873 143.281 222.873 143.317C222.839 143.676 221.017 153.658 220.308 157.32C219.836 159.869 219.532 162.023 219.667 162.166C220.105 162.633 255.142 162.705 260.171 162.275C269.724 161.412 270.668 161.233 276.542 159.115C280.356 157.75 284.98 154.089 286.566 151.216C286.904 150.606 287.613 149.349 288.119 148.416C290.279 144.645 291.292 133.407 290.245 125.006C289.503 118.974 288.491 116.353 285.25 112.116C284.102 110.609 279.613 107.341 277.318 106.372C276.609 106.084 275.732 105.69 275.36 105.51C274.989 105.33 273.166 104.864 271.31 104.433C269.454 104.002 267.394 103.535 266.753 103.355C266.111 103.176 264.66 102.925 263.547 102.781C260.238 102.386 260.07 102.35 258.922 101.991C258.315 101.812 256.289 101.345 254.433 101.022C252.576 100.663 250.45 100.232 249.707 100.052C248.965 99.8732 247.682 99.586 246.872 99.3703C243.666 98.6523 241.809 95.9234 241.505 91.4713C241.235 87.3779 242.585 83.8956 244.915 82.7108C247.446 81.4539 249.437 81.3103 267.259 81.3103L284.811 81.2742L285.385 78.043C285.722 76.2478 286.229 73.0527 286.533 70.862C286.803 68.708 287.174 66.7692 287.309 66.5538C287.478 66.3743 287.68 65.3331 287.815 64.2918L288.052 62.4248L266.854 62.4607C255.209 62.4966 245.05 62.6403 244.307 62.8198Z" fill="white"/>
<path d="M344.486 162.059C345.397 162.023 361.532 161.915 365.278 161.844L365.312 136.71C365.312 112.835 365.042 103.499 364.299 102.997C364.131 102.889 363.928 102.314 363.793 101.74C361.802 96.4977 362.375 96.3541 355.861 90.7173C355.22 90.1068 351.372 88.6348 350.629 88.2755C347.625 86.9832 335.541 86.4088 331.389 87.3779C326.698 88.168 323.356 89.7121 321.601 91.4352C321.466 90.1429 321.331 67.6668 321.264 62.4248H300.269L300.201 112.152C300.167 152.508 300.235 161.879 300.572 161.879C301.754 161.951 317.112 162.023 320.994 162.059C321.196 150.929 321.432 137.824 321.432 126.119C321.432 111.685 321.601 110.321 323.559 108.059C326.63 105.474 327.407 105.007 332.74 105.007C339.558 104.936 341.55 104.325 344.317 110.142" fill="white"/>
<path d="M497.627 76.6071V90.7894C491.619 86.3367 482.303 86.5524 472.076 87.5222C465.392 88.886 461.308 90.9684 456.886 96.857C451.249 107.377 451.452 111.003 451.486 127.77C451.823 143.568 451.958 145.974 458.54 154.77C468.362 165.578 491.518 160.838 510.96 161.7C514.808 160.013 517.474 157.284 518.386 153.083C518.419 130.499 518.554 85.0083 518.554 62.4248C513.322 62.4248 502.825 62.4248 497.627 62.4248V76.6071ZM490.235 104.792C501.171 105.294 496.986 127.914 497.492 141.809C497.526 143.173 496.513 144.286 495.23 144.251C489.256 144.143 477.847 144.358 477.409 143.353C475.721 142.383 474.641 140.875 473.729 138.182C471.839 133.766 472.447 108.67 475.282 107.269C475.484 107.162 475.653 107.018 475.788 106.838C478.59 103.499 486.353 104.505 490.235 104.792Z" fill="white"/>
<path d="M712.47 67.1642C712.372 69.7855 712.307 92.1893 712.372 116.927L712.47 161.951L723.002 161.987L733.566 162.059V145.436V128.848L744.47 128.811C749.837 128.811 750.548 129.135 757.669 128.273C764.151 127.483 771.272 125.724 773.059 124.001C773.366 123.714 773.737 123.462 773.835 123.462C773.972 123.462 774.983 122.78 776.098 121.99C777.885 120.697 779.033 119.441 781.602 115.85C782.613 114.45 783.761 111.578 784.569 108.382C785.313 105.546 785.345 104.612 785.378 95.6362C785.378 86.6246 785.313 85.6909 784.569 82.5312C783.859 79.4796 782.378 75.8531 781.263 74.3089C777.448 69.1389 772.622 65.8716 766.818 64.579C765.905 64.3636 764.823 64.0764 764.451 63.8969C764.079 63.7173 761.953 63.3224 759.73 62.9992C756.384 62.5325 751.93 62.4248 734.212 62.4248H712.711L712.47 67.1642ZM753.078 81.8132C761.549 82.6033 763.675 85.4037 763.675 95.6362C763.708 102.278 763.238 104.002 760.773 106.515C759.762 107.556 758.817 108.382 758.68 108.382C758.51 108.382 758.008 108.598 757.532 108.849C756.254 109.567 754.8 109.639 743.863 109.639H733.736L733.638 95.9955C733.605 88.4913 733.638 82.1364 733.736 81.9207C733.938 81.3463 747.339 81.2742 753.078 81.8132Z" fill="white"/>
<path d="M556.69 87.0259C529.62 87.0259 528.438 114.564 530.531 137.83C531.578 159.876 546.935 164.471 564.217 164.722C600.232 165.907 600.165 137.076 596.688 108.03C594.798 87.4928 571.44 85.8411 556.69 87.0259ZM570.934 105.122C579.44 107.204 575.39 135.065 575.727 140.272C574.276 148.099 561.753 147.489 556.69 145.801C549.771 140.451 552.201 139.338 551.458 125.803C549.703 104.368 556.589 103.111 570.934 105.122Z" fill="white"/>
<path d="M388.905 88.885L384.652 89.0286C384.314 91.6493 382.019 106.011 382.019 106.011C382.019 106.011 410.406 106.262 415.199 107.555C419.047 108.596 419.722 115.059 419.554 118.29C416.11 117.501 413.275 115.669 409.191 115.526C384.719 113.3 370.948 121.342 377.125 149.491C378.61 154.948 384.247 159.221 388.804 160.621C391.2 161.699 396.06 161.914 414.254 161.806C430.658 161.699 432.447 161.626 433.628 161.052C436.7 159.652 438.591 156.851 439.738 153.8V131C439.738 106.083 439.805 106.909 437.713 102.098C430.591 84.7916 405.276 89.4593 388.905 88.885ZM414.996 131.18C415.098 131.216 415.233 131.252 415.334 131.288C417.629 132.078 419.149 134.447 419.149 137.033C419.149 140.982 419.149 146.619 419.149 146.619C419.149 146.619 399.268 147.409 397.242 144.213C396.33 142.777 396.229 141.952 396.195 138.432C396.027 128.344 408.009 130.067 414.996 131.18Z" fill="white"/>
<path d="M802.185 88.8872C798.305 88.9947 798.031 89.0668 798.031 89.7127C797.594 91.6876 796.042 98.8325 794.96 106.05C802.727 105.906 826.321 106.085 828.31 107.449C831.212 108.957 831.858 110.789 832.666 115.456C833.912 122.35 829.255 116.031 815.887 115.205C793.747 115.133 786.019 127.879 789.462 145.256C790.473 150.462 793.173 155.166 797.223 158.254C804.311 163.604 811.263 161.163 827.397 161.808C832.431 161.234 848.259 163.927 851.128 157.5C852.915 154.448 853.052 152.761 853.052 131.649C853.052 109.604 852.85 106.66 850.861 102.136C843.094 84.5066 817.511 89.533 802.185 88.8872ZM828.31 131.146C834.388 133.157 832.223 140.877 832.634 146.621C828.649 146.585 813.389 146.801 813.187 145.795C810.115 144.502 808.902 141.81 809.274 137.106C809.072 127.592 823.145 130.608 828.31 131.146Z" fill="white"/>
<path d="M601.828 90.8626C608.039 113.626 614.553 137.897 620.933 161.773C621.945 161.953 638.082 161.989 641.929 161.953L642.399 160.553C645.066 150.607 646.892 140.518 649.22 131.398C653.57 110.718 651.783 114.488 656.276 133.337C657.926 140.913 660.287 151.146 662.419 160.553L662.856 161.953C667.884 161.917 678.077 161.917 683.105 161.917C690.767 135.276 696.375 115.529 702.923 88.9959C697.888 88.9959 687.8 88.9959 682.772 88.9959C679.864 103.896 676.662 119.981 673.688 134.055C673.147 146.406 669.299 120.592 668.321 118.257C666.938 112.549 664.78 101.024 663.325 96.5355C661.167 85.6565 663.091 89.7138 652.631 88.9959C640.677 89.2831 644.662 86.4466 641.283 99.2644C638.89 111.508 635.714 122.889 633.491 135.133C632.545 142.062 630.589 129.46 630.282 127.593C627.85 114.416 624.713 98.869 622.654 89.1748C617.355 89.1395 606.621 89.0313 601.322 88.9959L601.828 90.8626Z" fill="white"/>
<path d="M865.065 93.2058C864.759 98.3397 864.492 129.577 865.809 139.773C866.376 144.154 867.459 146.595 868.339 148.175C876.002 161.747 897.131 161.137 909.247 155.104C908.367 169.825 905.941 168.533 887.205 168.676C876.1 168.676 872.793 169.107 872.793 169.107L869.924 186.377C869.924 186.377 910.767 187.238 918.058 182.895C924.266 179.196 928.218 173.918 929.431 166.343C930.311 166.343 930.344 104.767 930.376 88.9688H908.908C908.908 88.9688 908.569 132.879 908.302 138.732C908.197 141.245 892.064 141.174 890.342 139.558C888.523 138.804 887.14 137.116 886.97 135.142C885.992 123.688 886.768 88.9688 886.768 88.9688H865.163L865.065 93.2058Z" fill="white"/>
</g>
<defs>
<clipPath id="clip0_21686_156494">
<rect width="930" height="243" fill="white"/>
</clipPath>
</defs>
</svg>
