<svg xmlns="http://www.w3.org/2000/svg" width="186" height="44">
  <g fill="none" fill-rule="evenodd">
    <path fill="#FFF" d="M63.407 13.478h-5.963c-1.726 0-2.85.76-2.85 2.753v3.094c0 1.521.418 2.15 1.726 2.754l6.564 2.438v2.884H58.02v-2.576a.125.125 0 0 0-.124-.124h-3.178a.124.124 0 0 0-.124.124v2.55c0 2.124 1.255 3.147 2.981 3.147h5.78c1.935 0 2.955-1.31 2.955-3.225v-2.963c0-1.547-.392-2.177-1.621-2.754l-6.67-2.412v-2.57h4.865v2.341c0 .069.056.124.124.124h3.178a.123.123 0 0 0 .124-.124v-2.026c0-2.281-.758-3.435-2.903-3.435m11.271 10.646v-.262l3.89-5.574a.123.123 0 0 0-.1-.195h-3.515c-.041 0-.08.02-.103.055l-2.97 4.429h-.419v-9.5a.123.123 0 0 0-.124-.123h-3.021a.124.124 0 0 0-.124.124v17.32c0 .068.056.124.124.124h3.021a.124.124 0 0 0 .124-.124v-4.675h.419l3.284 4.746a.124.124 0 0 0 .102.053h3.545c.1 0 .158-.112.102-.194l-4.235-6.204zm8.479-10.253h-3.048a.124.124 0 0 0-.123.124v2.531c0 .069.055.125.123.125h3.048a.125.125 0 0 0 .124-.125v-2.53a.124.124 0 0 0-.124-.125m0 4.222h-3.048a.124.124 0 0 0-.123.124v12.18c0 .07.055.125.123.125h3.048a.125.125 0 0 0 .124-.124v-12.18a.124.124 0 0 0-.124-.125m9.669-.105c-1.595 0-3.19.472-4.42 1.128l-.093-.911a.124.124 0 0 0-.123-.112h-2.903a.124.124 0 0 0-.124.124v12.18c0 .07.055.125.124.125h3.021a.124.124 0 0 0 .124-.124V21.16h3.819v9.237c0 .068.055.124.124.124h3.021a.125.125 0 0 0 .124-.124v-9.552c0-2.019-.785-2.858-2.694-2.858m11.428.106H100.2c-2.092 0-2.955 1.075-2.955 2.806v1.363c0 1.442.47 2.02 1.673 2.439l5.231 1.573v1.416h-3.818v-1.03a.125.125 0 0 0-.124-.124h-2.839a.124.124 0 0 0-.123.125v.95c0 1.915.889 2.911 3.06 2.911h3.923c2.04 0 3.033-1.049 3.033-2.806v-1.495c0-1.494-.418-2.07-1.752-2.49l-5.178-1.521v-1.285h3.818v.925c0 .068.056.124.124.124h2.865a.124.124 0 0 0 .123-.124v-1.056c0-1.783-.81-2.701-3.007-2.701m21.399-4.615h-4.333a.125.125 0 0 0-.12.091l-3.583 12.941h-.157l-3.74-12.942a.125.125 0 0 0-.12-.09h-4.307a.125.125 0 0 0-.124.124v16.796c0 .068.056.124.124.124h2.89c.07 0 .125-.056.125-.124v-8.372c0-.734-.079-2.281-.13-3.933.313 1.468.627 2.858.836 3.618l2.537 8.721c.015.054.064.09.119.09h3.71a.125.125 0 0 0 .12-.09l2.484-8.747c.21-.76.497-2.071.785-3.487-.026 1.626-.078 3.12-.078 3.854v8.346c0 .068.055.124.124.124h2.838a.125.125 0 0 0 .124-.124V13.602a.125.125 0 0 0-.124-.124m5.222 14.055h4.054v-6.398h-4.054v6.398zm4.184-9.44h-4.315c-1.91 0-3.06 1.049-3.06 3.199v5.952c0 2.255 1.308 3.278 3.112 3.278h4.133c2.17 0 3.19-1.206 3.19-3.252v-5.716c0-2.281-.941-3.461-3.06-3.461zm12.526-.105c-1.595 0-3.19.472-4.42 1.128l-.093-.911a.124.124 0 0 0-.123-.112h-2.903a.124.124 0 0 0-.123.124v12.18c0 .07.055.125.123.125h3.022a.125.125 0 0 0 .124-.124V21.16h3.818v9.237c0 .068.055.124.123.124h3.022a.125.125 0 0 0 .124-.124v-9.552c0-2.019-.785-2.858-2.694-2.858m11.114 6.137v-.262l3.891-5.574a.124.124 0 0 0-.101-.195h-3.515c-.041 0-.08.02-.103.055l-2.97 4.429h-.419v-9.5a.123.123 0 0 0-.124-.123h-3.021a.123.123 0 0 0-.124.124v17.32c0 .068.055.124.124.124h3.021a.124.124 0 0 0 .124-.124v-4.675h.418l3.285 4.746c.023.033.06.053.102.053h3.544c.1 0 .159-.112.103-.194l-4.235-6.204zm8.001-.761h4.002v-2.36H166.7v2.36zm4.054-5.27h-4.106c-2.118 0-3.138 1.18-3.138 3.383v5.716c0 2.255 1.072 3.33 3.243 3.33h3.975c2.197 0 3.138-1.049 3.138-3.225v-.577h-3.04a.123.123 0 0 0-.124.124v.898H166.7V25.41h7.166v-4.04c0-2.203-1.02-3.278-3.112-3.278zm15.122 0h-3.047a.124.124 0 0 0-.124.124v9.263h-3.819v-9.263a.124.124 0 0 0-.124-.124h-3.02a.125.125 0 0 0-.125.124V27.9c0 1.81.863 2.648 2.72 2.648 1.57 0 3.217-.393 4.368-.996v2.333h-4.725a.126.126 0 0 0-.124.113l-.239 2.584a.124.124 0 0 0 .124.135h5.121A3.142 3.142 0 0 0 186 31.571V18.217a.124.124 0 0 0-.124-.124"/>
    <path fill="#F5C71B" d="M43.885 22c0 12.15-9.824 22-21.943 22C9.824 44 0 34.15 0 22S9.824 0 21.942 0c12.119 0 21.943 9.85 21.943 22"/>
    <path fill="#212126" d="M29.047 10.776s-.618-5.823-3.398-5.823c-.834 0-1.502.1-2.027.24a6.468 6.468 0 0 1-3.36 0c-.526-.14-1.193-.24-2.027-.24-2.78 0-3.398 5.823-3.398 5.823s6.92 2.044 14.21 0m-8.62 12.213c.32-.017.402-.448.117-.586a16.71 16.71 0 0 1-1.355-.737 17.041 17.041 0 0 1-1.378-.945c-.265-.203-.543-.413-.804-.64a.309.309 0 0 0-.51.172l-.384 2.016a.312.312 0 0 0 .254.368c.99.159 1.99.276 2.987.338.358.02.719.035 1.073.014m3.028 0c.357.02.718.007 1.072-.014 1-.062 1.997-.179 2.99-.338a.314.314 0 0 0 .255-.368l-.388-2.016a.308.308 0 0 0-.509-.173c-.258.228-.54.438-.804.641a15.756 15.756 0 0 1-2.729 1.682c-.29.138-.207.569.113.586m-.33 3.346a.759.759 0 0 0 0-1.516.755.755 0 0 0-.756.758c0 .417.337.758.756.758M20 25.577a.759.759 0 1 0 1.514-.002.759.759 0 0 0-1.514.002m5.792 1.861a.38.38 0 0 0-.514-.357l-6.838 2.57c-.371.137-.31.682.082.73 1.28.166 3.238.332 5.147.15l1.106.946a.346.346 0 0 0 .494-.047l1.66-2.066a.348.348 0 0 0-.072-.502l-1.065-.749v-.675z"/>
    <path fill="#212126" d="m32.632 19.832-.237-1.137s4.07-1.375 4.259 2.133c.189 3.512-2.84 5.214-2.84 5.214l-.518-2.94 1.464.67s-.237-1.758-1.275-2.23c0 0 1.56-.666 1.938 0 0 0 .028-.452-.072-.948-.175-.855-1.093-1.337-1.91-1.048l-.809.286zm-2.608 11.256-1.702-1.196a.266.266 0 0 0-.363.052l-.94 1.182-.185.227a8.098 8.098 0 0 1-.866 1.14c-.853.935-2.2 1.951-4.026 1.951-3.258 0-4.997-3.25-5.104-3.453l.375 1.744s-4.21-.569-3.877-3.508c.33-2.943 4.73-4.367 4.73-4.367s-4.115-.19-3.737-3.746c.378-3.556 6.094-2.467 7.613-2.467 1.52 0 7.236-1.09 7.614 2.467.378 3.557-3.736 3.746-3.736 3.746s4.4 1.424 4.73 4.367c.089.775-.141 1.385-.526 1.86zM11.253 19.832l-.808-.286c-.818-.29-1.736.193-1.911 1.048-.1.496-.073.947-.073.947.379-.665 1.94 0 1.94 0-1.039.473-1.276 2.23-1.276 2.23l1.464-.668-.519 2.94s-3.028-1.703-2.839-5.215c.19-3.508 4.259-2.133 4.259-2.133l-.237 1.137zm-.54 11.493c1.52 4.43 11.23 7.558 11.23 7.558s4.518-1.45 6.836-3.987l.664.565.556.476 3.512 2.9a.873.873 0 0 0 1.257-.127l1.547-1.972a.882.882 0 0 0-.185-1.264l-3.377-2.467c.26-.52.42-1.085.42-1.682l1.852.373-1.052-2.664s4.84-4.15 4.84-7.248c0-4.744-3.232-4.956-3.232-4.956.901-.213 1.235-1.244.702-1.974-.557-.769-1.715-1.193-2.602-1.382-1.23-.266-2.52-.235-3.76-.083-.623.076-6.397.903-7.71.896h-.533c-1.313.007-7.091-.82-7.713-.896-1.241-.152-2.53-.183-3.76.083-.888.19-2.046.613-2.603 1.382-.533.73-.2 1.76.701 1.974 0 0-3.23.212-3.23 4.956 0 3.098 4.84 7.248 4.84 7.248L8.86 31.698l1.853-.373z"/>
  </g>
</svg>
