<svg width="304" height="60" viewBox="0 0 304 60" fill="none" xmlns="http://www.w3.org/2000/svg">
<path d="M17.2382 13.9974L47.4675 17.8851L71.187 7.48018L13.2437 10.448L17.2382 13.9974Z" fill="#FF6E48"/>
<path d="M13.2437 10.448L71.187 7.48018C71.187 7.48018 41.0304 9.36537 39.1698 9.36776C37.2885 9.34951 13.2437 10.448 13.2437 10.448Z" fill="#FF6E48"/>
<path d="M39.7685 9.08984L37.1069 9.22617L33.814 16.1281L33.8185 16.13L38.478 16.7292L39.7685 9.08984Z" fill="#FF6E48"/>
<path d="M50.8896 40.3448L20.6078 43.8143L0.07878 59.5264L55.6477 42.9013L50.8896 40.3448Z" fill="#FF6E48"/>
<path d="M20.604 43.8126L50.8858 40.3224C50.8858 40.3224 40.762 41.8 35.7391 42.3231C30.7162 42.8462 20.604 43.8126 20.604 43.8126Z" fill="#FF6E48"/>
<path d="M29.7438 42.7654L17.6934 54.2459L38.9639 41.709L29.7438 42.7654Z" fill="#FF6E48"/>
<path d="M55.6464 42.9002L49.8809 28.689L48.0224 30.3241L50.8882 40.323L55.6464 42.9002Z" fill="#FF6E48"/>
<path d="M17.2394 13.9987L13.2449 10.4492L16.5611 33.0749L17.9232 31.2751L17.2394 13.9987Z" fill="#FF6E48"/>
<path d="M17.9907 54.1519L71.1849 7.46042L47.4654 17.8861L17.6807 54.2556L17.9907 54.1519Z" fill="#FF6E48"/>
<path d="M48.1909 17.5724L71.1876 7.47823C71.1876 7.47823 59.3274 12.4328 58.0257 13.0338C56.724 13.6348 48.1909 17.5724 48.1909 17.5724Z" fill="#FF6E48"/>
<path d="M47.4694 17.8816C49.3908 16.8871 51.3329 15.9753 53.2957 15.0635C54.2668 14.6075 55.2586 14.1723 56.2297 13.7164L59.1843 12.3899L62.1596 11.1047C63.1514 10.6901 64.1432 10.2549 65.135 9.84025C67.1393 9.01101 69.1229 8.20247 71.1686 7.45584C69.2472 8.4503 67.3051 9.36213 65.3423 10.274C64.3712 10.7299 63.3794 11.1652 62.4084 11.6211L59.4537 12.9475L56.4784 14.2327C55.4866 14.6473 54.4948 15.0826 53.503 15.4972C51.4988 16.3264 49.4945 17.135 47.4694 17.8816Z" fill="#FF6E48"/>
<path d="M41.3257 0.511314L0.0758149 59.5252L20.6048 43.8131L41.3257 0.511314Z" fill="#FF6E48"/>
<path d="M50.8867 40.3457C51.3004 40.5312 51.7141 40.7166 52.1072 40.9228C52.5209 41.1289 52.914 41.3351 53.3071 41.5413C53.7001 41.7474 54.0932 41.9742 54.4863 42.2011L55.0656 42.5517C55.2518 42.6754 55.4587 42.7992 55.645 42.9229C55.4381 42.8405 55.2312 42.7374 55.0244 42.655L54.4245 42.3665C54.0108 42.1603 53.6177 41.9542 53.2246 41.748C52.8316 41.5419 52.4385 41.315 52.0454 41.0882C51.6523 40.82 51.2592 40.5932 50.8867 40.3457Z" fill="#FF6E48"/>
<path d="M13.2449 10.4492C13.5967 10.7174 13.9485 10.9856 14.3003 11.2745C14.6521 11.5634 14.9833 11.8523 15.3144 12.1412C15.6456 12.4301 15.9767 12.7397 16.2872 13.0493L16.7633 13.524C16.9083 13.6892 17.0738 13.8336 17.2394 13.9987C17.0532 13.875 16.8876 13.7305 16.7014 13.5861L16.184 13.1734C15.8322 12.8846 15.5011 12.5956 15.1699 12.3067C14.8388 12.0178 14.5076 11.7083 14.1971 11.3987C13.8659 11.0891 13.5554 10.7795 13.2449 10.4492Z" fill="#FF6E48"/>
<path d="M0.0765663 59.5258C1.70797 58.1183 3.38077 56.7522 5.0536 55.4067C5.90034 54.7236 6.7471 54.0612 7.59387 53.3988L10.1548 51.4115L12.7365 49.4655C13.604 48.8237 14.4715 48.182 15.3389 47.5402C17.0739 46.2773 18.8295 45.0144 20.6266 43.8134C18.9952 45.2208 17.3224 46.587 15.6495 47.9325C14.8028 48.6155 13.956 49.278 13.1093 49.9404L10.5483 51.907L7.94593 53.8737C7.07847 54.5155 6.211 55.1572 5.34354 55.799C3.60858 57.0619 1.87362 58.3248 0.0765663 59.5258Z" fill="#FF6E48"/>
<path d="M103.108 25.3506H83.78L83.2431 25.5984L82.7475 27.5395H98.9785C99.4328 27.5808 99.8871 27.7873 100.3 28.0351C100.713 28.2829 101.085 28.6133 101.374 28.985C101.663 29.3567 101.911 29.7697 102.035 30.224C102.2 30.6783 102.241 31.0913 102.117 31.5456L101.043 35.5517C100.92 36.006 100.672 36.4603 100.259 36.9559C99.8871 37.4515 99.4328 37.8645 98.9372 38.2775C98.4416 38.6492 97.946 38.9796 97.4091 39.2274C96.8722 39.4752 96.3765 39.5991 95.9635 39.5991H75.8503C75.9329 39.3513 76.0568 38.9796 76.222 38.4427C76.3075 38.2205 76.4 37.9984 76.4938 37.7732C76.6266 37.4544 76.7618 37.1296 76.8828 36.7907C77.0125 36.4278 77.1584 36.0974 77.2899 35.7995C77.3679 35.6229 77.4408 35.4577 77.5024 35.3039C77.543 35.2144 77.5789 35.1345 77.6106 35.0639C77.7398 34.7763 77.7996 34.6431 77.8328 34.6431H96.2113L96.7069 32.8672L96.3765 32.5368H81.0129C80.5173 32.5368 80.1043 32.3716 79.6913 32.1238C79.3196 31.8347 78.9892 31.5043 78.7414 31.0913C78.7132 31.0294 78.6851 30.9684 78.6572 30.9077C78.4802 30.523 78.3115 30.1565 78.2045 29.7284C78.0806 29.2328 77.998 28.8198 78.0393 28.4068L78.2871 27.5395L78.9066 25.3506C79.1544 24.7311 79.4435 24.1116 79.8152 23.5333C80.1869 22.9551 80.5999 22.4182 81.0955 21.9639C81.5911 21.4683 82.128 21.0966 82.7475 20.8488C83.367 20.5597 84.0691 20.3945 84.8125 20.3945H105.091L104.843 20.9314C104.719 21.3031 104.554 21.7161 104.347 22.2117C104.265 22.4595 104.172 22.697 104.079 22.9345C103.986 23.172 103.893 23.4094 103.811 23.6572C103.645 24.1116 103.48 24.5246 103.315 24.855C103.191 25.1854 103.108 25.3506 103.108 25.3506Z" fill="#FAFAFA"/>
<path d="M125.287 27.5395L132.927 20.3945H126.732L118.761 27.5395H111.492L113.392 20.3945H108.312L106.412 27.5395L103.191 39.5578H108.271L110.171 32.4955H117.44L121.611 39.5578H127.806L122.561 30.0175L125.287 27.5395Z" fill="#FAFAFA"/>
<path d="M133.629 27.5395L130.408 39.5578H135.488L138.709 27.5395L140.609 20.3945H135.529L133.629 27.5395Z" fill="#FAFAFA"/>
<path d="M161.879 27.5395L160.516 32.7846L155.518 27.5395L148.787 20.3945H143.789L141.889 27.5395L138.709 39.5578H143.748L146.969 27.5395H147.465L158.533 39.5578H163.572L166.793 27.5395L168.693 20.3945H163.778L161.879 27.5395Z" fill="#FAFAFA"/>
<path fill-rule="evenodd" clip-rule="evenodd" d="M195.414 25.3505L193.969 30.637C193.886 31.05 193.68 31.463 193.349 31.9586C193.06 32.4542 192.689 32.9085 192.234 33.3215C191.821 33.7345 191.284 34.0649 190.706 34.354C190.128 34.6431 189.508 34.767 188.889 34.767H173.071L171.791 39.5578H166.711L170.593 25.3505L171.915 20.3945H192.234C192.936 20.3945 193.515 20.5597 193.969 20.8488C194.465 21.1379 194.795 21.4683 195.043 21.9639C195.291 22.3769 195.456 22.9138 195.497 23.5333C195.538 24.1116 195.497 24.7311 195.414 25.3505ZM189.88 27.5395L189.385 29.3154L188.806 29.7697H174.434L175.59 25.3505H189.88V27.5395Z" fill="#FAFAFA"/>
<path d="M215.941 35.2213C215.982 34.8083 215.941 34.6018 215.899 34.6018H201.196L203.096 27.5395L204.996 20.3945H199.999L198.099 27.5395L194.878 39.5578H215.28C215.362 39.31 215.445 38.897 215.528 38.3601C215.609 38.0092 215.654 37.6405 215.699 37.2773C215.723 37.0851 215.747 36.8939 215.775 36.7081C215.842 36.2411 215.882 35.828 215.917 35.4688L215.923 35.4017C215.929 35.3399 215.935 35.2798 215.941 35.2213Z" fill="#FAFAFA"/>
<path fill-rule="evenodd" clip-rule="evenodd" d="M235.682 20.3945C235.187 20.3945 234.732 20.5184 234.195 20.7249C233.7 20.8901 233.204 21.1792 232.709 21.4683C232.213 21.7574 231.8 22.0878 231.346 22.4595C230.933 22.8312 230.52 23.2029 230.189 23.5333L228.537 25.3506L215.652 39.5578H221.516L226.018 34.767H238.201L236.921 39.5578H241.877L246.998 20.3945H235.682ZM239.606 29.7284H230.561C230.627 29.6399 230.729 29.516 230.86 29.3565C230.974 29.2181 231.11 29.053 231.263 28.8611C231.635 28.4481 234.195 25.8049 234.65 25.3919H240.762L239.606 29.7284Z" fill="#FAFAFA"/>
<path d="M250.22 20.3945H275.206C275.165 20.6423 275.041 21.014 274.752 21.5922C274.708 21.7079 274.663 21.8254 274.618 21.9441C274.455 22.3763 274.286 22.823 274.091 23.2442C273.885 23.8224 273.678 24.3181 273.472 24.7311C273.411 24.852 273.362 24.9553 273.32 25.0408C273.221 25.2473 273.171 25.3506 273.141 25.3506H253.937L251.624 34.0236L251.789 34.5605H270.663C270.705 34.5605 270.746 34.767 270.705 35.18L270.694 35.3039C270.656 35.724 270.615 36.1783 270.54 36.6668C270.511 36.8524 270.487 37.0429 270.464 37.2349L270.463 37.2357C270.418 37.599 270.373 37.9677 270.292 38.3188C270.209 38.8557 270.127 39.2687 270.044 39.5165H249.724C249.187 39.5165 248.692 39.3513 248.196 39.1035C247.701 38.8557 247.288 38.484 246.957 38.071C246.668 37.658 246.42 37.1211 246.296 36.5842C246.172 36.0473 246.172 35.4691 246.338 34.8909L248.898 25.3506L250.22 20.3945Z" fill="#FAFAFA"/>
<path d="M278.387 20.3945L277.065 25.3506L276.487 27.5395L274.504 34.8909C274.339 35.4691 274.339 36.0473 274.463 36.5842C274.587 37.1211 274.835 37.658 275.124 38.071C275.454 38.484 275.867 38.8557 276.363 39.1035C276.859 39.3513 277.354 39.5165 277.891 39.5165H298.211C298.293 39.2687 298.376 38.8557 298.459 38.3188C298.54 37.9679 298.585 37.5992 298.63 37.236C298.654 37.0438 298.678 36.8526 298.706 36.6668C298.781 36.1782 298.822 35.7237 298.86 35.3035L298.872 35.18C298.913 34.767 298.872 34.5605 298.83 34.5605H279.956L279.791 34.0236L280.245 32.4955H297.922C297.951 32.4955 298.001 32.3922 298.1 32.1857C298.142 32.1002 298.192 31.997 298.252 31.876C298.313 31.7223 298.386 31.5573 298.464 31.3808C298.596 31.0829 298.742 30.7521 298.872 30.3892C299.119 29.811 299.326 29.2328 299.491 28.7372C299.652 28.3182 299.763 27.9747 299.843 27.7262C299.866 27.6563 299.886 27.5939 299.904 27.5395H281.567L282.104 25.5571L282.558 25.3506H301.35C301.379 25.3506 301.429 25.2474 301.528 25.041C301.569 24.9555 301.619 24.852 301.68 24.7311C301.886 24.3181 302.093 23.8224 302.299 23.2442C302.494 22.8229 302.663 22.3762 302.826 21.9439L302.828 21.9398C302.872 21.8226 302.916 21.7065 302.96 21.5922C303.121 21.1733 303.232 20.8297 303.312 20.5813L303.314 20.5779C303.336 20.5093 303.355 20.4481 303.373 20.3945H278.387Z" fill="#FAFAFA"/>
</svg>
