<svg width="20" height="18" viewBox="0 0 20 18" fill="none" xmlns="http://www.w3.org/2000/svg">
<g id="logo_icon">
<path id="Vector" d="M5.26851 4.51498L13.0532 5.61381L19.1659 2.71057L4.24084 3.52024L5.26851 4.51498Z" fill="#FF6E48"/>
<path id="Vector_2" d="M4.24084 3.52024L19.1659 2.71057C19.1659 2.71057 11.3981 3.22728 10.9188 3.22728C10.4343 3.2215 4.24084 3.52024 4.24084 3.52024Z" fill="#FF6E48"/>
<path id="Intersect" d="M12.1712 3.61782L11.4233 3.65839L10.4955 5.76417L10.4968 5.76473L11.8058 5.9495L12.1712 3.61782Z" fill="#FF6E48"/>
<path id="Vector_3" d="M13.9267 11.9004L6.12607 12.8604L0.833328 17.25L15.1514 12.6175L13.9267 11.9004Z" fill="#FF6E48"/>
<path id="Vector_4" d="M6.1261 12.8601L13.9268 11.8943C13.9268 11.8943 11.3187 12.3041 10.0248 12.4487C8.73094 12.5933 6.1261 12.8601 6.1261 12.8601Z" fill="#FF6E48"/>
<path id="Intersect_2" d="M9.3421 13.8953L5.95201 17.3954L11.9331 13.5765L9.3421 13.8953Z" fill="#FF6E48"/>
<path id="Vector_5" d="M15.1517 12.6177L13.6714 8.63867L13.1922 9.09556L13.927 11.8948L15.1517 12.6177Z" fill="#FF6E48"/>
<path id="Vector_6" d="M5.26897 4.51453L4.24129 3.51978L5.08793 9.85265L5.43936 9.34949L5.26897 4.51453Z" fill="#FF6E48"/>
<path id="Vector_7" d="M5.44999 15.7517L19.1664 2.70447L13.0536 5.61349L5.37012 15.7806L5.44999 15.7517Z" fill="#FF6E48"/>
<path id="Vector_8" d="M13.2401 5.52686L19.1666 2.71033C19.1666 2.71033 16.1102 4.09257 15.7747 4.26029C15.4392 4.42801 13.2401 5.52686 13.2401 5.52686Z" fill="#FF6E48"/>
<path id="Vector_9" d="M13.0535 5.61378C13.5487 5.33618 14.0492 5.08171 14.5551 4.82724C14.8053 4.7 15.0609 4.57855 15.3112 4.45131L16.0726 4.08117L16.8394 3.7226C17.095 3.60693 17.3506 3.48548 17.6061 3.36981C18.1226 3.13847 18.6338 2.91292 19.161 2.70471C18.6658 2.98232 18.1652 3.23679 17.6594 3.49126C17.4091 3.6185 17.1535 3.73995 16.9033 3.86718L16.1418 4.23732L15.3751 4.5959C15.1195 4.71157 14.8639 4.83302 14.6083 4.94869C14.0918 5.18003 13.5753 5.40558 13.0535 5.61378Z" fill="#FF6E48"/>
<path id="Vector_10" d="M11.4779 0.75L0.833817 17.2499L6.12655 12.8603L11.4779 0.75Z" fill="#FF6E48"/>
<path id="Vector_11" d="M13.9263 11.9004C14.0328 11.9524 14.1393 12.0045 14.2404 12.0623C14.3469 12.1202 14.4481 12.178 14.5493 12.2358C14.6504 12.2937 14.7516 12.3573 14.8528 12.4209L15.0019 12.5192C15.0498 12.5539 15.103 12.5886 15.151 12.6233C15.0977 12.6002 15.0445 12.5713 14.9912 12.5481L14.8368 12.4672C14.7303 12.4093 14.6291 12.3515 14.528 12.2937C14.4268 12.2358 14.3256 12.1722 14.2245 12.1086C14.1233 12.0334 14.0221 11.9698 13.9263 11.9004Z" fill="#FF6E48"/>
<path id="Vector_12" d="M4.24129 3.51978C4.33181 3.59496 4.42233 3.67015 4.51285 3.75111C4.60337 3.83208 4.68857 3.91305 4.77376 3.99402C4.85896 4.07499 4.94416 4.16174 5.02403 4.24849L5.1465 4.38151C5.18377 4.42778 5.22637 4.46826 5.26897 4.51453C5.22104 4.47983 5.17845 4.43934 5.13052 4.39886L4.9974 4.28319C4.90688 4.20222 4.82169 4.12125 4.73649 4.04029C4.65129 3.95932 4.5661 3.87257 4.48623 3.78581C4.40103 3.69906 4.32116 3.61231 4.24129 3.51978Z" fill="#FF6E48"/>
<path id="Vector_13" d="M0.833328 17.25C1.25399 16.8567 1.68529 16.475 2.1166 16.0991C2.33491 15.9082 2.55323 15.7232 2.77154 15.5381L3.43182 14.9829L4.09741 14.4392C4.32105 14.2599 4.54469 14.0807 4.76833 13.9014C5.21561 13.5486 5.66822 13.1958 6.13147 12.8604C5.71082 13.2536 5.27951 13.6353 4.84821 14.0113C4.62989 14.2021 4.41157 14.3872 4.19326 14.5723L3.53299 15.1217L2.86207 15.6711C2.63843 15.8504 2.41479 16.0297 2.19114 16.209C1.74386 16.5618 1.29658 16.9145 0.833328 17.25Z" fill="#FF6E48"/>
</g>
</svg>
