<svg width="186" height="43" viewBox="0 0 186 43" fill="none" xmlns="http://www.w3.org/2000/svg">
<path d="M56.6145 32.2385C52.9724 32.2385 49.5358 31.0904 46.9805 28.8237L50.1527 25.0262C52.2087 26.6453 54.441 27.499 56.8202 27.499C58.3769 27.499 59.1993 26.9691 59.1993 26.086V26.0271C59.1993 25.144 58.5237 24.7024 55.704 24.0254C51.3276 23.0245 47.9498 21.7881 47.9498 17.5785V17.5196C47.9498 13.6927 50.9751 10.9256 55.9096 10.9256C59.4049 10.9256 62.1365 11.8676 64.3688 13.6633L61.5197 17.6963C59.6399 16.3421 57.5838 15.6651 55.7628 15.6651C54.3823 15.6651 53.7067 16.2244 53.7067 16.9897V17.0486C53.7067 17.9906 54.4116 18.4028 57.2901 19.0504C61.9897 20.0807 64.9269 21.6115 64.9269 25.4678V25.5267C64.9269 29.7363 61.6078 32.2385 56.6145 32.2385Z" fill="#575757"/>
<path d="M67.698 31.8852V11.2788H73.3962V19.6391L80.4749 11.2788H87.2305L79.4468 20.1101L87.4948 31.8852H80.6805L75.4816 24.2314L73.3962 26.5276V31.8852H67.698Z" fill="#575757"/>
<path d="M89.3003 31.8852V11.2788H94.9985V31.8852H89.3003Z" fill="#575757"/>
<path d="M98.7625 31.8852V11.2788H104.079L112.538 22.1708V11.2788H118.178V31.8852H113.214L104.402 20.5812V31.8852H98.7625Z" fill="#575757"/>
<path d="M132.193 32.2974C125.848 32.2974 121.149 27.5579 121.149 21.6409V21.582C121.149 15.6651 125.907 10.8667 132.251 10.8667C138.596 10.8667 143.295 15.6062 143.295 21.5232V21.582C143.295 27.499 138.537 32.2974 132.193 32.2974ZM132.251 27.1458C135.365 27.1458 137.45 24.6141 137.45 21.6409V21.582C137.45 18.5794 135.335 16.0183 132.193 16.0183C129.05 16.0183 126.964 18.5499 126.964 21.5232V21.582C126.964 24.5552 129.109 27.1458 132.251 27.1458Z" fill="#575757"/>
<path d="M155.486 32.2679C149.671 32.2679 145.999 29.2947 145.999 22.8479V11.2788H151.756V22.7301C151.756 25.7033 153.254 27.1163 155.545 27.1163C157.866 27.1163 159.364 25.7622 159.364 22.8773V11.2788H165.12V22.7007C165.12 29.3242 161.331 32.2679 155.486 32.2679Z" fill="#575757"/>
<path d="M173.515 31.8852V16.2832H167.377V11.2788H185.382V16.2832H179.214V31.8852H173.515Z" fill="#575757"/>
<path opacity="0.43" d="M29.5554 6.04775C21.3364 1.30374 10.8163 4.12872 6.06531 12.3556C1.3143 20.5825 4.12722 31.1033 12.3462 35.8473C20.5652 40.5913 31.0853 37.7663 35.8364 29.5395C40.5874 21.3126 37.7897 10.8006 29.5554 6.04775ZM16.6133 28.4584C12.4734 26.0688 11.0541 20.7603 13.4472 16.6164C15.8403 12.4725 21.1484 11.0471 25.2883 13.4367C29.4283 15.8263 30.8476 21.1347 28.4545 25.2786C26.0614 29.4225 20.7685 30.8567 16.6133 28.4584Z" fill="url(#paint0_linear_1646_4202)"/>
<path d="M24.8326 23.1877L10.9821 15.1932C9.67314 14.4376 9.69349 12.5399 11.0447 11.8167L30.6635 1.28361C32.3733 0.36107 34.2195 2.25956 33.2429 3.95064L24.8326 23.1877Z" fill="#575757"/>
<path d="M17.0859 18.7166L30.9365 26.7111C32.2454 27.4666 32.2251 29.3643 30.8739 30.0876L11.2551 40.6207C9.54525 41.5432 7.69902 39.6447 8.67562 37.9536L17.0859 18.7166Z" fill="#575757"/>
<path d="M24.8331 23.1882L16.2568 20.574L17.0859 18.7166L24.8331 23.1882Z" fill="#505050"/>
<defs>
<linearGradient id="paint0_linear_1646_4202" x1="21.1497" y1="-0.437649" x2="20.8336" y2="39.3056" gradientUnits="userSpaceOnUse">
<stop stop-color="#575757"/>
<stop offset="1" stop-color="#393939"/>
</linearGradient>
</defs>
</svg>
