<svg width="1220" height="282" viewBox="0 0 1220 282" fill="none" xmlns="http://www.w3.org/2000/svg">
<path d="M439.816 96.0857H393.465L382.257 73.7124H485.268L496.479 96.0857H464.138V211.087H439.816V96.0857Z" fill="white"/>
<path d="M1032.23 73.72H1070.47V211.091H1032.23V73.72Z" fill="white"/>
<path d="M1140.35 107.097H1099.16V73.7373H1219.6V107.097H1178.4V211.109H1140.35V107.097Z" fill="white"/>
<path d="M588.322 159.089C593.159 157.781 597.572 155.92 601.564 153.501C605.551 151.081 608.988 148.136 611.861 144.666C614.736 141.199 616.992 137.207 618.628 132.693C620.261 128.182 621.081 123.116 621.081 117.487V117.09C621.081 111.078 620.098 105.589 618.138 100.603C616.176 95.6354 613.364 91.2537 609.703 87.4616C605.26 83.1442 599.697 79.7788 593.033 77.3525C586.362 74.9361 578.71 73.7263 570.079 73.7263H516.071L527.283 96.0964H565.763C574.814 96.0964 583.967 98.5057 588.953 102.386C593.935 106.263 596.563 110.879 596.563 118.368V118.765C596.563 125.854 594.003 131.476 588.888 135.614C583.771 139.755 576.888 141.819 568.229 141.819H511.685L522.891 163.216H563.112L596.957 211.098H625.397L588.322 159.089Z" fill="white"/>
<path d="M709.82 72.7363H687.458L639.2 183.244L654.484 204.689L665.881 177.923L674.712 156.53L698.247 101.582L721.986 156.53L730.808 177.923L744.738 211.087H770.237L709.82 72.7363Z" fill="white"/>
<path d="M876.212 115.031C872.684 106.725 867.677 99.4963 861.208 93.3487C854.735 87.1981 847.015 82.3857 838.063 78.9257C829.103 75.4555 819.258 73.7239 808.537 73.7239H746.057L755.571 95.5041H808.344C815.537 95.5041 822.078 96.6903 827.962 99.0524C833.845 101.418 838.843 104.671 842.97 108.805C847.083 112.947 850.289 117.905 852.577 123.683C854.859 129.467 856.007 135.71 856.007 142.406V142.799C856.007 149.502 854.859 155.711 852.577 161.424C850.289 167.142 847.083 172.069 842.97 176.207C838.843 180.348 833.845 183.568 827.962 185.862C822.078 188.163 815.537 189.311 808.344 189.311H796.537L806.018 211.034C815.546 210.722 829.97 208.987 838.063 205.795C847.015 202.257 854.735 197.421 861.208 191.27C867.677 185.13 872.684 177.867 876.212 169.493C879.747 161.12 881.511 152.095 881.511 142.406V142.02C881.511 132.331 879.747 123.344 876.212 115.031Z" fill="white"/>
<path d="M911.875 151.936H964.974L976.183 130.155H911.598C912.061 134.056 912.325 138.007 912.325 142.033V142.42C912.325 145.632 912.173 148.804 911.875 151.936Z" fill="white"/>
<path d="M1004.21 188.636H900.464C896.095 196.404 890.652 203.432 884.174 209.583C883.876 209.868 883.559 210.139 883.249 210.417H1004.21V188.636Z" fill="white"/>
<path d="M899.821 94.8319H1004.23V73.0518H881.963C882.711 73.7227 883.466 74.3767 884.191 75.0647C890.354 80.924 895.566 87.5561 899.821 94.8319Z" fill="white"/>
<path d="M68.945 141.025C68.945 84.2006 114.989 38.1356 171.79 38.1356C200.335 38.1356 226.16 49.7764 244.794 68.5676L312.634 138.88C311.486 62.0238 248.888 0.0649414 171.79 0.0649414C119.026 0.0649414 73.047 29.0941 48.9127 72.0481H0L68.945 141.025Z" fill="#615DFC"/>
<path d="M171.78 282C224.547 282 270.519 252.975 294.657 210.01H343.569L274.623 141.03C274.623 197.858 228.581 243.932 171.78 243.932C143.235 243.932 117.41 232.282 98.7766 213.497L30.9324 143.181C32.0842 220.038 94.6814 282 171.78 282Z" fill="#615DFC"/>
<path d="M220.082 171.183C222.371 167.459 222.446 165.249 213.578 159.681C210.655 157.848 204.503 153.08 197.99 148.034C189.62 141.544 176.965 131.737 174.722 131.3C173.418 131.303 172.185 131.92 169.729 133.143C167.595 134.207 164.675 135.668 160.221 137.464C149.643 141.73 142.35 141.239 137.388 136.159C135.552 134.272 133.678 131.92 133.722 128.748C133.77 125.22 136.138 121.374 141.398 116.267C144.694 113.067 150.876 108.418 155.161 105.3C149.463 105.653 139.962 106.568 129.19 108.923L114.506 149.63L115.241 150.365C117.27 148.949 121.525 146.455 126.274 146.455C129.664 146.455 134.393 147.78 138.129 153.897C138.458 153.873 138.851 153.856 139.284 153.856C142.143 153.856 148.942 154.679 152.42 162.033C155.32 162.118 162.904 163.196 165.983 171.78C168.462 172.183 174.055 173.766 176.44 179.92C178.743 185.867 177.303 191.544 172.497 195.753C174.055 197.037 177.056 198.569 179.929 197.556C182.293 196.708 183.146 195.115 183.445 193.929C183.885 192.177 183.404 190.141 182.246 188.856L181.981 188.582C181.368 187.904 181.405 186.857 182.063 186.223C182.716 185.589 183.756 185.586 184.417 186.226L184.488 186.301C184.508 186.321 184.742 186.565 184.762 186.586C185.328 187.152 188.6 190.273 191.872 190.273C193.176 190.273 194.331 189.775 195.402 188.758C199.307 185.034 196.486 181.611 196.15 181.231C195.534 180.536 195.595 179.472 196.286 178.852C196.98 178.229 198.044 178.283 198.671 178.968C198.701 179.001 201.662 182.19 204.981 182.19C205.892 182.19 206.732 181.956 207.552 181.468C211.695 179.025 209.618 173.786 209.527 173.562C209.246 172.878 209.445 172.088 210.018 171.614C210.59 171.146 211.396 171.088 212.023 171.502C212.043 171.519 214.438 173.061 216.786 173.061C218.246 173.061 219.292 172.464 220.082 171.183Z" fill="#615DFC"/>
<path d="M175.105 106.22C171.027 105.02 164.327 108.043 155.334 115.071C145.28 122.937 140.711 128.081 142.109 129.952C145.775 134.835 152.641 133.775 165.567 126.848C169.316 124.835 172.192 123.591 174.939 123.591C178.255 123.591 181.04 125.465 184.342 127.912C206.482 144.355 217.436 152.64 220.427 154.914L224.502 152.742L211.221 117.66C206.377 116.102 180.406 107.758 175.105 106.22Z" fill="#8986FD"/>
<path d="M105.358 149.361L122.738 102.313L106.764 98.2632L95.1252 145.752L105.358 149.361Z" fill="#615DFC"/>
<path d="M168.932 180.671C164.722 176.364 157.957 179.681 157.957 179.681C157.957 179.681 162.134 176.371 157.402 171.528C152.663 166.682 145.028 171.64 145.028 171.64C145.028 171.64 149.415 167.614 144.547 162.635C139.68 157.651 132.278 163.242 132.278 163.242C133.044 161.104 133.64 157.722 131.798 155.834C129.955 153.95 126.784 152.364 121.019 154.245C117.527 155.39 111.663 159.172 115.105 164.028C118.55 168.881 125.873 167.329 125.873 167.329C125.873 167.329 119.786 169.481 125.622 174.92C131.455 180.356 138.47 175.832 138.47 175.832C138.47 175.832 133.681 179.573 138.284 183.43C142.891 187.283 151.288 183.497 151.288 183.497C148.91 185.985 149.774 193.918 157.758 193.041C165.738 192.166 173.143 184.978 168.932 180.671Z" fill="#8986FD"/>
<path d="M217.715 109.028L235.478 156.021L245.165 152.148L232.463 105.022L217.715 109.028Z" fill="#8986FD"/>
</svg>
