<svg xmlns:xlink="http://www.w3.org/1999/xlink" xmlns="http://www.w3.org/2000/svg" class="logo_wide" data-v-34f87b30="" width="100"  height="30" ><defs><symbol id="logo" viewBox="0 0 100 30" fill="none" xmlns="http://www.w3.org/2000/svg" data-v-0035627f=""><path d="M39.705 23.1995C39.1667 23.1995 38.6853 23.0918 38.261 22.8765C37.8367 22.6548 37.501 22.3382 37.254 21.9265C37.0133 21.5085 36.893 21.0018 36.893 20.4065C36.893 19.8808 36.9817 19.4407 37.159 19.086C37.3427 18.725 37.5833 18.4305 37.881 18.2025C38.1787 17.9745 38.5112 17.7972 38.8785 17.6705C39.2458 17.5438 39.6163 17.452 39.99 17.395L42.7925 16.958C42.8178 16.4323 42.7387 16.0302 42.555 15.7515C42.3777 15.4728 42.1243 15.2828 41.795 15.1815C41.472 15.0802 41.1047 15.0295 40.693 15.0295C40.4777 15.0295 40.2433 15.0453 39.99 15.077C39.743 15.1087 39.4802 15.1625 39.2015 15.2385C38.9292 15.3082 38.641 15.3968 38.337 15.5045C38.0393 15.6058 37.7322 15.7293 37.4155 15.875L37.3015 14.07C37.5358 13.975 37.7987 13.8832 38.09 13.7945C38.3813 13.7058 38.6948 13.6267 39.0305 13.557C39.3725 13.481 39.724 13.424 40.085 13.386C40.446 13.348 40.8133 13.329 41.187 13.329C41.9343 13.329 42.574 13.4398 43.106 13.6615C43.638 13.8832 44.0465 14.2378 44.3315 14.7255C44.6165 15.2068 44.759 15.8338 44.759 16.6065C44.759 16.9105 44.759 17.2873 44.759 17.737C44.759 18.1867 44.759 18.6047 44.759 18.991V20.131C44.759 20.5807 44.759 21.0367 44.759 21.499C44.759 21.9613 44.759 22.4617 44.759 23H42.9255L42.8115 21.746H42.631C42.4473 21.9803 42.2162 22.2083 41.9375 22.43C41.6652 22.6517 41.339 22.8353 40.959 22.981C40.5853 23.1267 40.1673 23.1995 39.705 23.1995ZM40.37 21.5845C40.674 21.5845 40.9717 21.518 41.263 21.385C41.5607 21.2457 41.8362 21.0493 42.0895 20.796C42.3428 20.5427 42.5613 20.2355 42.745 19.8745V18.2025C42.65 18.2595 42.5265 18.3133 42.3745 18.364C42.2288 18.4147 42.0072 18.4717 41.7095 18.535C41.4118 18.5983 40.9938 18.6775 40.4555 18.7725C40.1452 18.8232 39.8792 18.915 39.6575 19.048C39.4358 19.181 39.2617 19.3552 39.135 19.5705C39.0147 19.7795 38.9545 20.0297 38.9545 20.321C38.9545 20.7833 39.0938 21.1095 39.3725 21.2995C39.6575 21.4895 39.99 21.5845 40.37 21.5845Z" fill="#FFFFFF" data-v-0035627f=""></path> <path d="M47.0555 23C47.3278 22.5693 47.5653 22.1957 47.768 21.879C47.9706 21.556 48.1606 21.252 48.338 20.967C48.5216 20.682 48.718 20.378 48.927 20.055L50.295 17.8985L50.3045 18.4115L48.9555 16.388C48.7465 16.065 48.547 15.7642 48.357 15.4855C48.167 15.2068 47.9706 14.9155 47.768 14.6115C47.5653 14.3012 47.331 13.9497 47.065 13.557L49.345 13.481C49.611 13.899 49.8453 14.2822 50.048 14.6305C50.257 14.9725 50.4786 15.3367 50.713 15.723L51.5965 17.167H51.758L52.6415 15.723C52.8631 15.343 53.0721 14.9883 53.2685 14.659C53.4711 14.3233 53.696 13.956 53.943 13.557H56.2515C55.9728 13.9687 55.7321 14.3233 55.5295 14.621C55.3331 14.9123 55.1431 15.191 54.9595 15.457C54.7821 15.7167 54.5826 16.0048 54.361 16.3215L52.974 18.364L52.879 17.8795L54.4275 20.074C54.7505 20.5363 55.064 20.9828 55.368 21.4135C55.672 21.8442 56.0425 22.373 56.4795 23H54.038C53.791 22.6137 53.5661 22.2622 53.3635 21.9455C53.1671 21.6288 52.9455 21.2773 52.6985 20.891L51.6915 19.295H51.53L50.6275 20.815C50.3868 21.214 50.1683 21.5782 49.972 21.9075C49.782 22.2305 49.5635 22.5947 49.3165 23H47.0555Z" fill="#FFFFFF" data-v-0035627f=""></path> <path d="M58.9575 26.7145C58.9575 26.0242 58.9575 25.3433 58.9575 24.672C58.9575 24.007 58.9575 23.285 58.9575 22.506V17.908C58.9575 17.205 58.9575 16.4893 58.9575 15.761C58.9575 15.0263 58.9575 14.2917 58.9575 13.557L60.7815 13.443L60.8385 14.697H61.0285C61.2122 14.431 61.4465 14.1935 61.7315 13.9845C62.0165 13.7755 62.3395 13.614 62.7005 13.5C63.0678 13.3797 63.4668 13.3195 63.8975 13.3195C64.7525 13.3195 65.4745 13.5348 66.0635 13.9655C66.6588 14.3962 67.1085 14.9852 67.4125 15.7325C67.7228 16.4798 67.878 17.319 67.878 18.25C67.878 19.1303 67.7323 19.9505 67.441 20.7105C67.156 21.4642 66.7222 22.0722 66.1395 22.5345C65.5568 22.9968 64.8222 23.228 63.9355 23.228C63.5238 23.228 63.147 23.1742 62.805 23.0665C62.4693 22.9588 62.1622 22.8037 61.8835 22.601C61.6112 22.3983 61.3642 22.1545 61.1425 21.8695H60.9905V22.6105C60.9905 23.3388 60.9905 24.0197 60.9905 24.653C60.9905 25.2927 60.9905 25.9577 60.9905 26.648L58.9575 26.7145ZM63.242 21.4515C63.831 21.4515 64.3155 21.3027 64.6955 21.005C65.0755 20.701 65.3542 20.3083 65.5315 19.827C65.7088 19.3393 65.7975 18.82 65.7975 18.269C65.7975 17.6927 65.7025 17.167 65.5125 16.692C65.3288 16.2107 65.047 15.8275 64.667 15.5425C64.287 15.2575 63.8025 15.115 63.2135 15.115C62.9222 15.115 62.6372 15.1593 62.3585 15.248C62.0862 15.3303 61.8328 15.457 61.5985 15.628C61.3642 15.7927 61.1615 16.0017 60.9905 16.255V20.093C61.1552 20.3717 61.3452 20.6123 61.5605 20.815C61.7758 21.0177 62.0228 21.176 62.3015 21.29C62.5802 21.3977 62.8937 21.4515 63.242 21.4515Z" fill="#FFFFFF" data-v-0035627f=""></path> <path d="M75.2081 23.2185C74.0491 23.2185 73.096 23.0032 72.3486 22.5725C71.6013 22.1418 71.0471 21.5528 70.6861 20.8055C70.3315 20.0582 70.1541 19.2 70.1541 18.231C70.1541 17.2747 70.3251 16.426 70.6671 15.685C71.0155 14.944 71.5221 14.3677 72.1871 13.956C72.8521 13.538 73.6565 13.329 74.6001 13.329C75.4171 13.329 76.1201 13.4842 76.7091 13.7945C77.2981 14.0985 77.751 14.5545 78.0676 15.1625C78.3843 15.7705 78.5426 16.5242 78.5426 17.4235C78.5426 17.6642 78.5363 17.8827 78.5236 18.079C78.5173 18.269 78.4983 18.459 78.4666 18.649L76.6901 17.87C76.7028 17.775 76.7123 17.6832 76.7186 17.5945C76.725 17.4995 76.7281 17.4108 76.7281 17.3285C76.7281 16.5495 76.5318 15.9478 76.1391 15.5235C75.7528 15.0928 75.2461 14.8775 74.6191 14.8775C74.1315 14.8775 73.7071 15.0105 73.3461 15.2765C72.9851 15.5425 72.7033 15.9067 72.5006 16.369C72.3043 16.8313 72.2061 17.3633 72.2061 17.965V18.269C72.2061 18.9403 72.3201 19.5167 72.5481 19.998C72.7825 20.4793 73.1371 20.8498 73.6121 21.1095C74.0935 21.3692 74.6983 21.499 75.4266 21.499C75.7053 21.499 76.0093 21.4768 76.3386 21.4325C76.6743 21.3818 77.01 21.3058 77.3456 21.2045C77.6813 21.1032 77.998 20.9733 78.2956 20.815L78.3716 22.582C78.131 22.7087 77.8491 22.8195 77.5261 22.9145C77.2031 23.0095 76.8453 23.0823 76.4526 23.133C76.0663 23.19 75.6515 23.2185 75.2081 23.2185ZM70.9711 18.649V17.262L77.2506 17.186L78.4666 17.6895V18.649H70.9711Z" fill="#FFFFFF" data-v-0035627f=""></path> <path d="M85.7977 23.2185C84.6387 23.2185 83.6855 23.0032 82.9382 22.5725C82.1908 22.1418 81.6367 21.5528 81.2757 20.8055C80.921 20.0582 80.7437 19.2 80.7437 18.231C80.7437 17.2747 80.9147 16.426 81.2567 15.685C81.605 14.944 82.1117 14.3677 82.7767 13.956C83.4417 13.538 84.246 13.329 85.1897 13.329C86.0067 13.329 86.7097 13.4842 87.2987 13.7945C87.8877 14.0985 88.3405 14.5545 88.6572 15.1625C88.9738 15.7705 89.1322 16.5242 89.1322 17.4235C89.1322 17.6642 89.1258 17.8827 89.1132 18.079C89.1068 18.269 89.0878 18.459 89.0562 18.649L87.2797 17.87C87.2923 17.775 87.3018 17.6832 87.3082 17.5945C87.3145 17.4995 87.3177 17.4108 87.3177 17.3285C87.3177 16.5495 87.1213 15.9478 86.7287 15.5235C86.3423 15.0928 85.8357 14.8775 85.2087 14.8775C84.721 14.8775 84.2967 15.0105 83.9357 15.2765C83.5747 15.5425 83.2928 15.9067 83.0902 16.369C82.8938 16.8313 82.7957 17.3633 82.7957 17.965V18.269C82.7957 18.9403 82.9097 19.5167 83.1377 19.998C83.372 20.4793 83.7267 20.8498 84.2017 21.1095C84.683 21.3692 85.2878 21.499 86.0162 21.499C86.2948 21.499 86.5988 21.4768 86.9282 21.4325C87.2638 21.3818 87.5995 21.3058 87.9352 21.2045C88.2708 21.1032 88.5875 20.9733 88.8852 20.815L88.9612 22.582C88.7205 22.7087 88.4387 22.8195 88.1157 22.9145C87.7927 23.0095 87.4348 23.0823 87.0422 23.133C86.6558 23.19 86.241 23.2185 85.7977 23.2185ZM81.5607 18.649V17.262L87.8402 17.186L89.0562 17.6895V18.649H81.5607Z" fill="#FFFFFF" data-v-0035627f=""></path> <path d="M91.9507 23C91.9507 22.3097 91.9507 21.6415 91.9507 20.9955C91.9507 20.3495 91.9507 19.637 91.9507 18.858V17.908C91.9507 17.205 91.9507 16.4893 91.9507 15.761C91.9507 15.0263 91.9507 14.2917 91.9507 13.557L93.6892 13.443L93.7652 15.305H93.9552C94.2085 14.7477 94.4967 14.3265 94.8197 14.0415C95.1427 13.7565 95.472 13.5665 95.8077 13.4715C96.1434 13.3702 96.4569 13.3195 96.7482 13.3195C96.9129 13.3195 97.0839 13.3322 97.2612 13.3575C97.4385 13.3828 97.6064 13.424 97.7647 13.481L97.5842 15.495C97.3625 15.457 97.163 15.4285 96.9857 15.4095C96.8084 15.3905 96.6057 15.381 96.3777 15.381C96.2004 15.381 96.004 15.4063 95.7887 15.457C95.5734 15.5013 95.3549 15.5963 95.1332 15.742C94.9179 15.8877 94.7089 16.1062 94.5062 16.3975C94.3099 16.6825 94.1357 17.0593 93.9837 17.528V18.9625C93.9837 19.6908 93.9837 20.3748 93.9837 21.0145C93.9837 21.6478 93.9837 22.3097 93.9837 23H91.9507Z" fill="#FFFFFF" data-v-0035627f=""></path> <path d="M26.3777 22.9883C25.7794 22.9147 25.211 22.6123 24.7907 22.1439C24.3108 21.6091 24.0684 20.9652 24.0683 20.2249C24.0683 19.8865 24.0973 19.6782 24.1861 19.3818C24.3665 18.7795 24.6736 18.3525 25.2412 17.915C26.963 16.5876 29.2825 12.6317 30.3149 9.2615C30.6052 8.31361 30.7521 7.58212 30.7896 6.89723C30.8138 6.45362 30.8593 6.12612 30.9294 5.89015C31.1921 5.00622 31.8898 4.31477 32.7505 4.08547C33.3742 3.91931 34.0082 3.99638 34.5839 4.30833C35.3341 4.71483 35.8535 5.48377 35.9764 6.36997C36.0165 6.65915 36.0042 7.11412 35.9494 7.3661C35.8348 7.89285 35.6164 8.31584 35.2645 8.69242C35.1704 8.79308 35.0259 8.92344 34.9433 8.98211C34.397 9.37043 33.7383 10.0771 33.1116 10.9474C31.5084 13.1736 30.0575 16.2539 29.493 18.6294C29.323 19.3448 29.2515 19.8716 29.2494 20.4245C29.2474 20.9465 29.0435 21.5283 28.7064 21.9736C28.3277 22.4738 27.7911 22.8171 27.1813 22.9493C26.9676 22.9956 26.5873 23.0141 26.3777 22.9883ZM12.8898 22.9585C11.9207 22.782 11.1205 22.0471 10.8463 21.0817C10.7778 20.8408 10.7519 20.6744 10.7223 20.2848C10.656 19.4128 10.6019 19.0269 10.4704 18.4892C10.0165 16.6326 8.93703 14.1705 7.69729 12.1645C7.0889 11.18 6.54656 10.4429 5.96702 9.81265C5.63377 9.45026 5.40426 9.23612 5.13642 9.0377C4.87867 8.84676 4.74462 8.71994 4.58426 8.51532C4.32716 8.18727 4.17098 7.86382 4.0679 7.4459C4.01896 7.24747 4.01005 7.17061 4.00197 6.87728C3.98909 6.40954 4.03814 6.09911 4.1856 5.71517C4.50982 4.871 5.20437 4.25502 6.06228 4.05078C6.31686 3.99017 6.83841 3.9847 7.09603 4.03993C7.62638 4.15363 8.05876 4.40124 8.44347 4.81155C8.68499 5.06915 8.83331 5.29 8.94643 5.56047C9.1108 5.95348 9.16963 6.24282 9.19388 6.77752C9.2541 8.10507 9.79367 9.93233 10.7329 11.9896C11.3308 13.299 12.2827 14.9989 12.6133 15.3473C12.9281 15.679 13.3479 15.8742 13.8011 15.8994C14.2466 15.9242 14.6608 15.7936 14.9997 15.5215C15.2179 15.3463 15.7745 14.6077 16.1791 13.9562C16.9308 12.746 17.3712 11.6331 17.4497 10.7457C17.565 9.44117 18.376 8.46424 19.571 8.19021C19.6917 8.16254 19.8087 8.15439 20.0752 8.15506C20.3832 8.15583 20.446 8.16187 20.6329 8.20872C21.6608 8.4664 22.4111 9.2843 22.6293 10.385C22.6833 10.6579 22.6871 11.1406 22.6373 11.4163C22.5387 11.962 22.3088 12.4404 21.9556 12.8352C21.664 13.161 21.3673 13.3627 20.8758 13.5692C19.7107 14.0587 18.2635 15.5095 17.182 17.2721C16.5181 18.3542 16.119 19.3333 15.9659 20.2549C15.8426 20.9976 15.7997 21.1593 15.6386 21.4873C15.498 21.7737 15.3544 21.9779 15.1333 22.206C14.7438 22.6079 14.2771 22.8618 13.7542 22.9563C13.5418 22.9947 13.0945 22.9958 12.8898 22.9585Z" fill="#FFFFFF" data-v-0035627f=""></path></symbol></defs><use xlink:href="#logo" data-v-34f87b30=""></use></svg>