<svg xmlns:xlink="http://www.w3.org/1999/xlink" viewBox="0 0 41 43" fill="none" xmlns="http://www.w3.org/2000/svg" class="styles_mobile__nBJfF" width="41"  height="43" ><path d="M40.813 10.23c.058-.415-.617-.341-1.016-.35-1.795-.039-3.592.006-5.386-.03-.647-.012-1.037.2-1.36.77-2.193 3.85-4.416 7.684-6.632 11.521a3.42 3.42 0 0 1-.206.308c-.08.111-.27.067-.278-.075v-.002a6998.91 6998.91 0 0 1-.542-11.573c-.04-.905-.06-.936-.993-.935-2.592.004-5.183.034-7.774 0-.687-.008-1.063.236-1.396.823-2.435 4.288-4.901 8.559-7.36 12.833l-.023.037c-.111.185-.4.07-.352-.142l.001-.005L12.648 1.1c.207-.897.077-1.078-.822-1.086C10.439.003 9.052.035 7.666 0c-.633-.016-.887.261-1 .844-.276 1.427-.59 2.847-.892 4.268C3.872 14.09 1.968 23.066.067 32.044c-.184.87-.022 1.075.866 1.08 1.904.009 3.809-.007 5.713.008.413.003.795-.216 1-.573 2.217-3.863 4.447-7.72 6.675-11.576l.003-.006a.32.32 0 0 1 .593.122c.01.078.014.155.018.23.158 3.563.309 7.126.472 10.69.046 1.02.152 1.108 1.18 1.108 2.592-.005 5.182-.028 7.774-.01.554.004.868-.205 1.135-.672 2.456-4.302 7.4-12.89 7.4-12.89l.012-.02c.125-.2.437-.07.384.16l-.002.01-5.1 22.11c-.228.99-.085 1.166.948 1.172 1.295.007 2.592-.025 3.887.013.7.02.99-.247 1.136-.94 2.11-10.046 4.247-20.088 6.385-30.13" fill="#FFFFFF"></path></svg>