<svg xmlns:xlink="http://www.w3.org/1999/xlink" viewBox="0 0 193 48" fill="none" xmlns="http://www.w3.org/2000/svg" class="styles_desktop__qainn" width="193"  height="48" ><g clip-path="url(#logo_svg__a)" fill="#0C0D0C"><path d="M62.733 20.227 65 26.392l2.456-6.165h2.489l-3.567 8.878h-2.662l-2.32-5.97-2.315 5.97H56.42l-3.573-8.878h2.495l2.404 6.035 2.32-6.035h2.67-.002ZM79.967 29.105v-3.703h-6.101v3.703h-2.397v-8.878h2.397v3.23h6.1v-3.23h2.398v8.878h-2.397ZM85.143 29.105v-8.878h2.397v8.878h-2.397ZM95.296 22.159v6.947h-2.397V22.16H89.13v-1.932h9.94v1.932h-3.775ZM110.554 28.666c-.728.24-1.455.414-2.181.52-.727.106-1.468.16-2.227.16-.969 0-1.833-.105-2.589-.314-.755-.21-1.393-.512-1.909-.908a3.942 3.942 0 0 1-1.183-1.454c-.271-.573-.406-1.222-.406-1.945 0-.672.136-1.296.41-1.87a4.455 4.455 0 0 1 1.162-1.5c.502-.425 1.109-.756 1.819-.995.711-.24 1.504-.359 2.378-.359.806 0 1.544.11 2.213.326.67.217 1.245.54 1.726.966.48.427.852.953 1.117 1.577.265.625.398 1.344.398 2.159v.595h-8.751c.078.28.206.536.385.768.179.232.421.431.728.594.306.164.682.291 1.128.382.446.09.979.135 1.599.135.439 0 .87-.027 1.292-.08.423-.054.816-.126 1.183-.214.366-.088.697-.186.992-.294.296-.108.533-.216.714-.323v2.074h.002Zm-1.655-4.801a2.108 2.108 0 0 0-.197-.683 1.796 1.796 0 0 0-.521-.636c-.236-.189-.546-.346-.93-.469s-.862-.184-1.435-.184c-.539 0-1.004.068-1.396.201-.393.134-.721.3-.986.497a2.511 2.511 0 0 0-.617.64c-.146.228-.241.44-.285.633h6.367ZM112.73 29.106v-2.327h2.45v2.327h-2.45ZM119.632 20.227v.976c.212-.134.441-.271.689-.413a6.258 6.258 0 0 1 1.744-.676 4.895 4.895 0 0 1 1.083-.114c.388 0 .711.04.996.12.285.08.531.183.74.31.209.127.387.27.533.427.146.158.273.313.381.469.306-.198.608-.38.906-.543.297-.164.596-.304.898-.42.301-.116.609-.205.924-.267.314-.062.642-.094.982-.094.542 0 1.028.076 1.457.226.429.151.791.358 1.089.62.298.263.525.572.682.928.158.355.236.736.236 1.14v6.19h-2.397v-5.848c0-.236-.037-.441-.111-.614a1.142 1.142 0 0 0-.294-.42 1.186 1.186 0 0 0-.433-.24 1.77 1.77 0 0 0-.527-.077c-.862 0-1.844.388-2.947 1.163.013.073.022.16.03.259.006.098.009.198.009.297v5.48h-2.397v-5.9c0-.237-.037-.439-.109-.605a1.068 1.068 0 0 0-.301-.404 1.18 1.18 0 0 0-.439-.223 2.005 2.005 0 0 0-.527-.068c-.224 0-.461.033-.708.097a4.594 4.594 0 0 0-.749.271c-.253.116-.5.255-.744.413a7.25 7.25 0 0 0-.695.517v5.9h-2.397v-8.878h2.397l-.001.001ZM143.24 29.106v-.873a7.224 7.224 0 0 1-.985.446 9.641 9.641 0 0 1-2.269.533c-.403.045-.809.067-1.219.067-.478 0-.94-.045-1.386-.135a3.806 3.806 0 0 1-1.186-.44 2.435 2.435 0 0 1-.831-.795c-.209-.326-.313-.727-.313-1.201 0-.6.164-1.098.491-1.496.327-.399.827-.725 1.499-.98.672-.253 1.522-.45 2.549-.587a47.39 47.39 0 0 1 3.649-.323v-.187a.91.91 0 0 0-.117-.436c-.078-.144-.219-.271-.424-.382-.205-.11-.484-.198-.84-.268-.355-.07-.808-.103-1.36-.103-.435 0-.865.022-1.289.069-.425.045-.834.106-1.228.183a12.952 12.952 0 0 0-2.084.595V20.66a18.948 18.948 0 0 1 2.185-.416c.405-.053.814-.097 1.228-.13.413-.032.809-.048 1.189-.048.745 0 1.432.061 2.062.184.628.123 1.17.314 1.625.572.454.259.809.586 1.066.982.256.397.385.869.385 1.415v5.888h-2.397v-.001Zm0-4.052c-.922.035-1.706.084-2.349.148-.644.065-1.18.14-1.605.226a5.847 5.847 0 0 0-1.005.278c-.244.099-.426.2-.546.304a.651.651 0 0 0-.223.31 1.096 1.096 0 0 0-.042.285c0 .103.028.204.084.3a.705.705 0 0 0 .294.256c.14.073.326.131.56.174.232.043.525.064.879.064a7.393 7.393 0 0 0 2.216-.34c.336-.104.652-.23.947-.374a5.83 5.83 0 0 0 .792-.462v-1.169h-.002ZM156.264 22.15a5.9 5.9 0 0 0-.43-.11 5.957 5.957 0 0 0-.539-.093 4.561 4.561 0 0 0-.605-.039 4.38 4.38 0 0 0-1.205.159c-.372.105-.72.246-1.044.42a6.16 6.16 0 0 0-.902.594 9.264 9.264 0 0 0-.765.681v5.345h-2.397v-8.88h2.397v1.442c.289-.215.585-.423.888-.623.304-.2.621-.379.951-.533a5.682 5.682 0 0 1 1.044-.371 4.9 4.9 0 0 1 1.638-.116 8.92 8.92 0 0 1 .902.126c.133.026.25.052.349.078v2.01a13.3 13.3 0 0 0-.281-.087l-.001-.003ZM166.497 29.105a3.383 3.383 0 0 0-.349-1.27 3.385 3.385 0 0 0-.714-.94 3.952 3.952 0 0 0-.969-.653c-.36-.172-.73-.309-1.108-.41-.38-.1-.757-.172-1.134-.213a9.779 9.779 0 0 0-1.051-.061h-.71v3.548h-2.398v-8.878h2.398v3.425h.491c.332 0 .678-.026 1.04-.078a6.666 6.666 0 0 0 1.076-.246 5.82 5.82 0 0 0 1.024-.433c.327-.177.62-.392.879-.647.258-.254.474-.547.646-.882.173-.334.28-.714.323-1.14h2.442c-.043.47-.136.893-.28 1.273a4.356 4.356 0 0 1-1.25 1.803 5.684 5.684 0 0 1-1.632.979 6.157 6.157 0 0 1-.765.242c.301.048.615.122.939.223.325.101.648.235.967.4.318.167.623.37.914.612a4.573 4.573 0 0 1 1.367 1.951c.156.413.255.879.298 1.396h-2.444ZM180.896 28.666c-.729.24-1.455.414-2.182.52-.726.106-1.467.16-2.226.16-.97 0-1.833-.105-2.589-.314-.756-.21-1.393-.512-1.909-.908a3.942 3.942 0 0 1-1.183-1.454c-.271-.573-.407-1.222-.407-1.945 0-.672.137-1.296.41-1.87a4.471 4.471 0 0 1 1.163-1.5c.502-.425 1.108-.756 1.819-.995.711-.24 1.503-.359 2.378-.359.806 0 1.544.11 2.213.326.67.217 1.245.54 1.726.966.48.427.852.953 1.117 1.577.265.625.397 1.344.397 2.159v.595h-8.75c.078.28.206.536.385.768.179.232.42.431.727.594.306.164.683.291 1.129.382.445.09.978.135 1.599.135.439 0 .87-.027 1.292-.08.422-.054.816-.126 1.183-.214a9.12 9.12 0 0 0 .992-.294c.295-.108.533-.216.714-.323v2.074h.002Zm-1.655-4.801a2.087 2.087 0 0 0-.198-.683 1.783 1.783 0 0 0-.52-.636c-.236-.189-.547-.346-.93-.469-.384-.123-.862-.184-1.435-.184-.539 0-1.004.068-1.397.201-.392.134-.72.3-.985.497a2.494 2.494 0 0 0-.617.64c-.146.228-.242.44-.285.633h6.367ZM188.649 22.159v6.947h-2.397V22.16h-3.768v-1.932h9.94v1.932h-3.775ZM41.813 13.23c.058-.415-.617-.341-1.016-.35-1.795-.039-3.592.006-5.386-.03-.647-.012-1.037.2-1.36.77-2.193 3.85-4.416 7.684-6.632 11.521a3.42 3.42 0 0 1-.206.308c-.08.111-.27.067-.278-.075v-.002a6998.91 6998.91 0 0 1-.542-11.573c-.04-.905-.06-.936-.993-.935-2.592.004-5.183.034-7.774 0-.687-.008-1.063.236-1.396.823-2.435 4.288-4.901 8.559-7.36 12.833l-.023.037c-.111.185-.4.07-.352-.142l.001-.005L13.648 4.1c.207-.897.077-1.078-.822-1.086-1.387-.011-2.774.021-4.16-.014-.633-.016-.887.261-1 .844-.276 1.427-.59 2.847-.892 4.268-1.902 8.978-3.806 17.954-5.707 26.932-.184.87-.022 1.075.866 1.08 1.904.009 3.809-.007 5.713.008.413.003.795-.216 1-.573 2.217-3.863 4.447-7.72 6.675-11.576l.003-.006a.32.32 0 0 1 .593.122c.01.078.014.155.018.23.158 3.563.309 7.126.472 10.69.046 1.02.152 1.108 1.18 1.108 2.592-.005 5.182-.028 7.774-.01.554.004.868-.205 1.135-.672 2.456-4.302 7.4-12.89 7.4-12.89l.012-.02c.125-.2.437-.07.384.16l-.002.01-5.1 22.11c-.228.99-.085 1.166.948 1.172 1.295.007 2.592-.025 3.887.013.7.02.99-.247 1.136-.94 2.11-10.046 4.247-20.088 6.385-30.13" fill="#FFFFFF"></path></g><defs><clipPath id="logo_svg__a"><path fill="#fff" transform="translate(1 3)" d="M0 0h191.425v43H0z"></path></clipPath></defs></svg>